<?xml version="1.0" encoding="utf-8"?>
<!-- Generator: Adobe Illustrator 24.1.2, SVG Export Plug-In . SVG Version: 6.00 Build 0)  -->
<svg version="1.1" id="Layer_1" xmlns="http://www.w3.org/2000/svg" xmlns:xlink="http://www.w3.org/1999/xlink" x="0px" y="0px"
	 viewBox="0 0 1235 325" style="enable-background:new 0 0 1235 325;" xml:space="preserve">
<style type="text/css">
	.st0{fill:#2B3176;}
	.st1{enable-background:new    ;}
</style>
<g>
	<g>
		<path class="st0" d="M372.5,222.6c-27.2,0-49.4-22.1-49.4-49.4s22.1-49.3,49.4-49.3c27.2,0,49.4,22.1,49.4,49.3
			S399.7,222.6,372.5,222.6z"/>
	</g>
	<g>
		<path class="st0" d="M467.6,226.7l-0.6-1.1L374.2,64.9l-0.6-1.1l-1.1-1.9l-1.1,1.9l-0.6,1.1L278,225.6l-0.6,1.1l-1.1,1.9h2.2h1.3
			h185.5h1.3h2.2L467.6,226.7z M389.8,225.6c-58.9,0,26.6,0-34.6,0h-73.6l36.8-63.7c23.3-40.3-11.1,19.2,17.4-30.1l36.9-63.8
			l36.8,63.7c4.8,8.4,7.6,13.2,9.1,15.8c0,0,0,0.1,0.1,0.1c0,0,0,0,0,0l0,0c0.1,0.1,0.1,0.2,0.2,0.4c0,0,0,0,0,0
			c0.5,0.9,0.9,1.5,1.1,1.9c-0.1-0.2-0.3-0.5-0.5-0.8c1.1,2,3.4,5.9,7.4,12.9l36.8,63.8L389.8,225.6L389.8,225.6z"/>
	</g>
	<g class="st1">
		<path class="st0" d="M223.2,52.4l-0.3,0.5c8.2,19,13.2,40.2,14.9,63.5c1.7,23.3,2.5,65.1,2.3,125.4h-16.7
			c0-37.6-0.1-63.7-0.4-78.6s-1.1-30.8-2.6-47.8c-1.5-17.1-3.9-31.3-7.1-42.8c-19.2,40-35.9,82.3-50.2,126.9h-15.7
			c-14.3-44.6-30.9-87-49.9-127.2c-3.4,11.6-5.9,25.9-7.4,42.9c-1.5,17-2.3,32.9-2.6,47.8c-0.3,14.9-0.4,41.2-0.4,78.7H70.5
			c-0.2-60.5,0.6-102.4,2.3-125.6c1.7-23.2,6.8-44.4,15.1-63.6l-0.3-0.3h17v0.3c17.9,35.1,34.8,76.1,50.7,123
			c15.9-46.7,32.9-87.6,50.9-122.7l-0.3-0.5L223.2,52.4L223.2,52.4z"/>
	</g>
	<g>
		<g class="st1">
			<path class="st0" d="M504.9,56.4l16.7-1.5v147.3c0,10.5,2,17.7,6.2,21.6c4.1,3.9,10.7,5.9,19.9,5.9c3.6,0,6.6-0.5,9.1-1.5v14.8
				c-2.1,1.6-5.6,2.5-10.3,2.5c-27.7,0-41.6-13.8-41.6-41.3L504.9,56.4L504.9,56.4z"/>
			<path class="st0" d="M633.8,106.1c13.9,0,25.8,3.6,35.5,10.8c9.8,7.2,16.6,16.2,20.5,27.1c3.9,10.8,5.4,22.6,4.4,35.2H586.1
				c0.5,15.1,5.2,27.7,14,37.9c8.8,10.2,20.7,15.3,35.7,15.3c12.1,0,24.6-3.8,37.4-11.3l8.6,12.5c-14.1,9.5-29.5,14.3-46.2,14.3
				c-20.8,0-37-6.9-48.6-20.8s-17.3-30.7-17.3-50.5c0-19.7,5.5-36.3,16.6-49.9C597.3,112.9,613.1,106.1,633.8,106.1z M586.8,165.4
				h90.8c-0.5-12.1-4.6-22.5-12.4-31.1s-18.3-12.9-31.6-12.9s-23.9,4.1-32,12.3C593.5,141.8,588.6,152.4,586.8,165.4z"/>
			<path class="st0" d="M813.6,217.8l11.8,10.8c-11.6,12.8-26.9,19.2-45.8,19.2c-13.9,0-26-3.4-36.3-10.2
				c-10.3-6.8-17.8-15.5-22.6-26.1c-4.8-10.6-7.3-22.3-7.3-35.1c0-19.5,5.8-36.1,17.5-49.8c11.6-13.7,27.9-20.5,48.7-20.5
				c19.2,0,34.5,6.2,46,18.7l-11.8,11.3c-9.3-9.8-20.7-14.8-33.9-14.8c-15.3,0-27.5,5.3-36.7,16c-9.2,10.7-13.8,23.9-13.8,39.6
				c0,15.4,4.5,28.4,13.7,39.1c9.1,10.7,21.2,16,36.3,16C792.7,232,804.1,227.3,813.6,217.8z"/>
			<path class="st0" d="M956,107.8v126.4c-1,0.3-2.9,1.1-5.7,2.2c-2.8,1.1-4.8,2-5.9,2.5c-1.2,0.5-3,1.2-5.5,2.1
				c-2.5,0.9-4.6,1.6-6.3,2.1c-1.6,0.5-3.7,1.1-6.3,1.7c-2.5,0.7-4.9,1.1-7.1,1.4c-2.2,0.3-4.7,0.5-7.5,0.7
				c-2.8,0.3-5.6,0.4-8.4,0.4c-8.2,0-16.3-1.7-24.2-5.2c-8-3.4-14.8-9-20.7-16.6c-5.8-7.6-8.7-16.5-8.7-26.7v-89.5l16.7-1.5v86.8
				c0,11.3,3.8,20.3,11.3,26.8s16.2,9.8,26.1,9.8c11.2,0,23-2.6,35.4-7.9V109.3L956,107.8z"/>
			<path class="st0" d="M990.4,56.4l16.7-1.5v147.3c0,10.5,2,17.7,6.2,21.6c4.1,3.9,10.7,5.9,19.9,5.9c3.6,0,6.6-0.5,9.1-1.5v14.8
				c-2.1,1.6-5.6,2.5-10.3,2.5c-27.7,0-41.6-13.8-41.6-41.3L990.4,56.4L990.4,56.4z"/>
			<path class="st0" d="M1118.1,106.1c12.9,0,24.9,4.3,35.8,13c10.9,8.7,16.4,20.5,16.4,35.4V235c-0.8,0.3-2.6,1.1-5.3,2.2
				c-2.7,1.1-4.6,1.9-5.5,2.3s-2.8,1.1-5.3,2.1s-4.6,1.7-6,2.1s-3.4,0.9-5.9,1.6c-2.5,0.6-4.8,1.1-6.9,1.4c-2.1,0.3-4.6,0.5-7.3,0.7
				s-5.4,0.4-8.2,0.4c-40.7,0-61-15.7-61-47.2c0-8.7,2.1-16.1,6.2-22.3s9.5-10.7,16.1-13.8s13.1-5.2,19.4-6.4s12.8-1.8,19.3-1.8
				c12,0,23.4,2.1,34.2,6.4v-5.2c0-11.3-3.6-20.2-10.7-26.7c-7.1-6.5-15.7-9.7-25.7-9.7c-12.3,0-24,2.3-35.2,6.9l-5.9-13
				C1089.3,109.1,1103.1,106.1,1118.1,106.1z M1074.8,200.5c0,11.1,3.7,19.3,10.9,24.5c7.3,5.2,18.7,7.8,34.1,7.8
				c11,0,22.4-2.6,34.2-7.9v-46.7c-11-5.1-22.3-7.6-33.9-7.6C1089.8,170.5,1074.8,180.5,1074.8,200.5z"/>
		</g>
	</g>
	<g>
		<path class="st0" d="M472.4,154.7h-3.2c-0.3,0-0.6,0.3-0.6,0.6v3.2c0,0.3,0.3,0.6,0.6,0.6h3.2c0.3,0,0.6-0.3,0.6-0.6v-3.2
			C473,154.9,472.8,154.7,472.4,154.7z"/>
		<path class="st0" d="M472.4,170.9h-3.2c-0.3,0-0.6,0.3-0.6,0.6v3.2c0,0.3,0.3,0.6,0.6,0.6h3.2c0.3,0,0.6-0.3,0.6-0.6v-3.2
			C473,171.2,472.8,170.9,472.4,170.9z"/>
		<path class="st0" d="M472.4,146.6h-3.2c-0.3,0-0.6,0.3-0.6,0.6v3.2c0,0.3,0.3,0.6,0.6,0.6h3.2c0.3,0,0.6-0.3,0.6-0.6v-3.2
			C473,146.8,472.8,146.6,472.4,146.6z"/>
		<path class="st0" d="M472.4,162.8h-3.2c-0.3,0-0.6,0.3-0.6,0.6v3.2c0,0.3,0.3,0.6,0.6,0.6h3.2c0.3,0,0.6-0.3,0.6-0.6v-3.2
			C473,163.1,472.8,162.8,472.4,162.8z"/>
		<path class="st0" d="M472.4,130.3h-3.2c-0.3,0-0.6,0.3-0.6,0.6v3.2c0,0.3,0.3,0.6,0.6,0.6h3.2c0.3,0,0.6-0.3,0.6-0.6v-3.2
			C473,130.6,472.8,130.3,472.4,130.3z"/>
		<path class="st0" d="M472.4,122.2h-3.2c-0.3,0-0.6,0.3-0.6,0.6v3.2c0,0.3,0.3,0.6,0.6,0.6h3.2c0.3,0,0.6-0.3,0.6-0.6v-3.2
			C473,122.5,472.8,122.2,472.4,122.2z"/>
		<path class="st0" d="M472.4,138.4h-3.2c-0.3,0-0.6,0.3-0.6,0.6v3.2c0,0.3,0.3,0.6,0.6,0.6h3.2c0.3,0,0.6-0.3,0.6-0.6V139
			C473,138.7,472.8,138.4,472.4,138.4z"/>
		<path class="st0" d="M472.4,219.6h-3.2c-0.3,0-0.6,0.3-0.6,0.6v3.2c0,0.3,0.3,0.6,0.6,0.6h3.2c0.3,0,0.6-0.3,0.6-0.6v-3.2
			C473,219.9,472.8,219.6,472.4,219.6z"/>
		<path class="st0" d="M472.4,211.5h-3.2c-0.3,0-0.6,0.3-0.6,0.6v3.2c0,0.3,0.3,0.6,0.6,0.6h3.2c0.3,0,0.6-0.3,0.6-0.6v-3.2
			C473,211.8,472.8,211.5,472.4,211.5z"/>
		<path class="st0" d="M472.4,203.4h-3.2c-0.3,0-0.6,0.3-0.6,0.6v3.2c0,0.3,0.3,0.6,0.6,0.6h3.2c0.3,0,0.6-0.3,0.6-0.6V204
			C473,203.6,472.8,203.4,472.4,203.4z"/>
		<path class="st0" d="M472.4,179h-3.2c-0.3,0-0.6,0.3-0.6,0.6v3.2c0,0.3,0.3,0.6,0.6,0.6h3.2c0.3,0,0.6-0.3,0.6-0.6v-3.2
			C473,179.3,472.8,179,472.4,179z"/>
		<path class="st0" d="M472.4,195.3h-3.2c-0.3,0-0.6,0.3-0.6,0.6v3.2c0,0.3,0.3,0.6,0.6,0.6h3.2c0.3,0,0.6-0.3,0.6-0.6v-3.2
			C473,195.5,472.8,195.3,472.4,195.3z"/>
		<path class="st0" d="M472.4,187.1h-3.2c-0.3,0-0.6,0.3-0.6,0.6v3.2c0,0.3,0.3,0.6,0.6,0.6h3.2c0.3,0,0.6-0.3,0.6-0.6v-3.2
			C473,187.4,472.8,187.1,472.4,187.1z"/>
		<path class="st0" d="M407.3,77.1c-0.1-0.1-0.2-0.1-0.3-0.1c0,0-0.1,0-0.2,0c-0.2,0-0.3,0.1-0.4,0.3l-1.6,2.7
			c-0.2,0.3-0.1,0.7,0.2,0.8l2.8,1.6c0.1,0.1,0.2,0.1,0.3,0.1c0.2,0,0.4-0.1,0.5-0.3l1.6-2.7c0.1-0.1,0.1-0.3,0.1-0.5
			c0-0.2-0.1-0.3-0.3-0.4L407.3,77.1z"/>
		<path class="st0" d="M400.3,73.1c-0.1-0.1-0.2-0.1-0.3-0.1c0,0-0.1,0-0.2,0c-0.2,0-0.3,0.1-0.4,0.3l-1.6,2.7
			c-0.2,0.3-0.1,0.7,0.2,0.8l2.8,1.6c0.1,0.1,0.2,0.1,0.3,0.1c0.2,0,0.4-0.1,0.5-0.3l1.6-2.7c0.1-0.1,0.1-0.3,0.1-0.5
			c0-0.2-0.1-0.3-0.3-0.4L400.3,73.1z"/>
		<path class="st0" d="M421.4,85.2c-0.1-0.1-0.2-0.1-0.3-0.1c0,0-0.1,0-0.2,0c-0.2,0-0.3,0.1-0.4,0.3l-1.6,2.7
			c-0.2,0.3-0.1,0.7,0.2,0.8l2.8,1.6c0.1,0.1,0.2,0.1,0.3,0.1c0.2,0,0.4-0.1,0.5-0.3l1.6-2.7c0.1-0.1,0.1-0.3,0.1-0.5
			c0-0.2-0.1-0.3-0.3-0.4L421.4,85.2z"/>
		<path class="st0" d="M414.4,81.2c-0.1-0.1-0.2-0.1-0.3-0.1c0,0-0.1,0-0.2,0c-0.2,0-0.3,0.1-0.4,0.3l-1.6,2.7
			c-0.2,0.3-0.1,0.7,0.2,0.8l2.8,1.6c0.1,0.1,0.2,0.1,0.3,0.1c0.2,0,0.4-0.1,0.5-0.3l1.6-2.7c0.1-0.1,0.1-0.3,0.1-0.5
			c0-0.2-0.1-0.3-0.3-0.4L414.4,81.2z"/>
		<path class="st0" d="M393.3,69c-0.1-0.1-0.2-0.1-0.3-0.1c0,0-0.1,0-0.2,0c-0.2,0-0.3,0.1-0.4,0.3l-1.6,2.7
			c-0.2,0.3-0.1,0.7,0.2,0.8l2.8,1.6c0.1,0.1,0.2,0.1,0.3,0.1c0.2,0,0.4-0.1,0.5-0.3l1.6-2.7c0.1-0.1,0.1-0.3,0.1-0.5
			c0-0.2-0.1-0.3-0.3-0.4L393.3,69z"/>
		<path class="st0" d="M386.2,64.9c-0.1-0.1-0.2-0.1-0.3-0.1c0,0-0.1,0-0.2,0c-0.2,0-0.3,0.1-0.4,0.3l-1.6,2.7
			c-0.2,0.3-0.1,0.7,0.2,0.8l2.8,1.6c0.1,0.1,0.2,0.1,0.3,0.1c0.2,0,0.4-0.1,0.5-0.3l1.6-2.7c0.1-0.1,0.1-0.3,0.1-0.5
			c0-0.2-0.1-0.3-0.3-0.4L386.2,64.9z"/>
		<path class="st0" d="M379.2,60.9c-0.1,0-0.2-0.1-0.3-0.1c0,0-0.1,0-0.2,0c-0.1,0-0.3,0.1-0.4,0.3l-1.6,2.7
			c-0.2,0.3-0.1,0.7,0.2,0.8l2.8,1.6c0.1,0.1,0.2,0.1,0.3,0.1c0.2,0,0.4-0.1,0.5-0.3l1.6-2.7c0.1-0.1,0.1-0.3,0.1-0.5
			s-0.1-0.3-0.3-0.4L379.2,60.9z"/>
		<path class="st0" d="M449.5,101.5c-0.1-0.1-0.2-0.1-0.3-0.1c0,0-0.1,0-0.2,0c-0.2,0-0.3,0.1-0.4,0.3l-1.6,2.7
			c-0.2,0.3-0.1,0.7,0.2,0.8l2.8,1.6c0.1,0.1,0.2,0.1,0.3,0.1c0.2,0,0.4-0.1,0.5-0.3l1.6-2.7c0.1-0.1,0.1-0.3,0.1-0.5
			c0-0.2-0.1-0.3-0.3-0.4L449.5,101.5z"/>
		<path class="st0" d="M456.5,105.5c-0.1-0.1-0.2-0.1-0.3-0.1c0,0-0.1,0-0.2,0c-0.2,0-0.3,0.1-0.4,0.3l-1.6,2.7
			c-0.2,0.3-0.1,0.7,0.2,0.8l2.8,1.6c0.1,0.1,0.2,0.1,0.3,0.1c0.2,0,0.4-0.1,0.5-0.3l1.6-2.7c0.1-0.1,0.1-0.3,0.1-0.5
			c0-0.2-0.1-0.3-0.3-0.4L456.5,105.5z"/>
		<path class="st0" d="M463.5,109.6c-0.1-0.1-0.2-0.1-0.3-0.1c0,0-0.1,0-0.2,0c-0.2,0-0.3,0.1-0.4,0.3l-1.6,2.7
			c-0.2,0.3-0.1,0.7,0.2,0.8l2.8,1.6c0.1,0.1,0.2,0.1,0.3,0.1c0.2,0,0.4-0.1,0.5-0.3l1.6-2.7c0.1-0.1,0.1-0.3,0.1-0.5
			c0-0.2-0.1-0.3-0.3-0.4L463.5,109.6z"/>
		<path class="st0" d="M428.4,89.3c-0.1-0.1-0.2-0.1-0.3-0.1c0,0-0.1,0-0.2,0c-0.2,0-0.3,0.1-0.4,0.3l-1.6,2.7
			c-0.2,0.3-0.1,0.7,0.2,0.8l2.8,1.6c0.1,0.1,0.2,0.1,0.3,0.1c0.2,0,0.4-0.1,0.5-0.3l1.6-2.7c0.1-0.1,0.1-0.3,0.1-0.5
			c0-0.2-0.1-0.3-0.3-0.4L428.4,89.3z"/>
		<path class="st0" d="M442.5,97.4c-0.1-0.1-0.2-0.1-0.3-0.1c0,0-0.1,0-0.2,0c-0.2,0-0.3,0.1-0.4,0.3l-1.6,2.7
			c-0.2,0.3-0.1,0.7,0.2,0.8l2.8,1.6c0.1,0.1,0.2,0.1,0.3,0.1c0.2,0,0.4-0.1,0.5-0.3l1.6-2.7c0.1-0.1,0.1-0.3,0.1-0.5
			c0-0.2-0.1-0.3-0.3-0.4L442.5,97.4z"/>
		<path class="st0" d="M435.4,93.3c-0.1-0.1-0.2-0.1-0.3-0.1c0,0-0.1,0-0.2,0c-0.2,0-0.3,0.1-0.4,0.3l-1.6,2.7
			c-0.2,0.3-0.1,0.7,0.2,0.8l2.8,1.6c0.1,0.1,0.2,0.1,0.3,0.1c0.2,0,0.4-0.1,0.5-0.3l1.6-2.7c0.1-0.1,0.1-0.3,0.1-0.5
			c0-0.2-0.1-0.3-0.3-0.4L435.4,93.3z"/>
		<path class="st0" d="M303.4,97.6c-0.1-0.2-0.3-0.3-0.5-0.3c-0.1,0-0.2,0-0.3,0.1l-2.8,1.6c-0.3,0.2-0.4,0.5-0.2,0.8l1.6,2.7
			c0.1,0.1,0.2,0.2,0.4,0.3c0,0,0.1,0,0.2,0c0.1,0,0.2,0,0.3-0.1l2.8-1.6c0.1-0.1,0.2-0.2,0.3-0.4s0-0.3-0.1-0.5L303.4,97.6z"/>
		<path class="st0" d="M282.3,109.8c-0.1-0.2-0.3-0.3-0.5-0.3c-0.1,0-0.2,0-0.3,0.1l-2.8,1.6c-0.3,0.2-0.4,0.5-0.2,0.8l1.6,2.7
			c0.1,0.1,0.2,0.2,0.4,0.3c0,0,0.1,0,0.2,0c0.1,0,0.2,0,0.3-0.1l2.8-1.6c0.1-0.1,0.2-0.2,0.3-0.4s0-0.3-0.1-0.5L282.3,109.8z"/>
		<path class="st0" d="M310.4,93.6c-0.1-0.2-0.3-0.3-0.5-0.3c-0.1,0-0.2,0-0.3,0.1l-2.8,1.6c-0.3,0.2-0.4,0.5-0.2,0.8l1.6,2.7
			c0.1,0.1,0.2,0.2,0.4,0.3c0,0,0.1,0,0.2,0c0.1,0,0.2,0,0.3-0.1l2.8-1.6c0.1-0.1,0.2-0.2,0.3-0.4s0-0.3-0.1-0.5L310.4,93.6z"/>
		<path class="st0" d="M296.3,101.7c-0.1-0.2-0.3-0.3-0.5-0.3c-0.1,0-0.2,0-0.3,0.1l-2.8,1.6c-0.3,0.2-0.4,0.5-0.2,0.8l1.6,2.7
			c0.1,0.1,0.2,0.2,0.4,0.3c0,0,0.1,0,0.2,0c0.1,0,0.2,0,0.3-0.1l2.8-1.6c0.1-0.1,0.2-0.2,0.3-0.4s0-0.3-0.1-0.5L296.3,101.7z"/>
		<path class="st0" d="M324.4,85.5c-0.1-0.2-0.3-0.3-0.5-0.3c-0.1,0-0.2,0-0.3,0.1l-2.8,1.6c-0.3,0.2-0.4,0.5-0.2,0.8l1.6,2.7
			c0.1,0.1,0.2,0.2,0.4,0.3c0,0,0.1,0,0.2,0c0.1,0,0.2,0,0.3-0.1l2.8-1.6c0.1-0.1,0.2-0.2,0.3-0.4s0-0.3-0.1-0.5L324.4,85.5z"/>
		<path class="st0" d="M289.3,105.7c-0.1-0.2-0.3-0.3-0.5-0.3c-0.1,0-0.2,0-0.3,0.1l-2.8,1.6c-0.3,0.2-0.4,0.5-0.2,0.8l1.6,2.7
			c0.1,0.1,0.2,0.2,0.4,0.3c0,0,0.1,0,0.2,0c0.1,0,0.2,0,0.3-0.1l2.8-1.6c0.1-0.1,0.2-0.2,0.3-0.4s0-0.3-0.1-0.5L289.3,105.7z"/>
		<path class="st0" d="M359.6,65.2c-0.1-0.2-0.3-0.3-0.5-0.3c-0.1,0-0.2,0-0.3,0.1l-2.8,1.6c-0.3,0.2-0.4,0.5-0.2,0.8l1.6,2.7
			c0.1,0.1,0.2,0.2,0.4,0.3c0,0,0.1,0,0.2,0c0.1,0,0.2,0,0.3-0.1l2.8-1.6c0.1-0.1,0.2-0.2,0.3-0.4s0-0.3-0.1-0.5L359.6,65.2z"/>
		<path class="st0" d="M366.6,61.1c-0.1-0.2-0.3-0.3-0.5-0.3c-0.1,0-0.2,0-0.3,0.1l-2.8,1.6c-0.3,0.2-0.4,0.5-0.2,0.8l1.6,2.7
			c0.1,0.1,0.2,0.2,0.4,0.3c0,0,0.1,0,0.2,0c0.1,0,0.2,0,0.3-0.1l2.8-1.6c0.1-0.1,0.2-0.2,0.3-0.4s0-0.3-0.1-0.5L366.6,61.1z"/>
		<path class="st0" d="M331.5,81.4c-0.1-0.2-0.3-0.3-0.5-0.3c-0.1,0-0.2,0-0.3,0.1l-2.8,1.6c-0.3,0.2-0.4,0.5-0.2,0.8l1.6,2.7
			c0.1,0.1,0.2,0.2,0.4,0.3c0,0,0.1,0,0.2,0c0.1,0,0.2,0,0.3-0.1l2.8-1.6c0.1-0.1,0.2-0.2,0.3-0.4s0-0.3-0.1-0.5L331.5,81.4z"/>
		<path class="st0" d="M352.5,69.2c-0.1-0.2-0.3-0.3-0.5-0.3c-0.1,0-0.2,0-0.3,0.1l-2.8,1.6c-0.3,0.2-0.4,0.5-0.2,0.8l1.6,2.7
			c0.1,0.1,0.2,0.2,0.4,0.3c0,0,0.1,0,0.2,0c0.1,0,0.2,0,0.3-0.1l2.8-1.6c0.1-0.1,0.2-0.2,0.3-0.4s0-0.3-0.1-0.5L352.5,69.2z"/>
		<path class="st0" d="M338.5,77.3c-0.1-0.2-0.3-0.3-0.5-0.3c-0.1,0-0.2,0-0.3,0.1l-2.8,1.6c-0.3,0.2-0.4,0.5-0.2,0.8l1.6,2.7
			c0.1,0.1,0.2,0.2,0.4,0.3c0,0,0.1,0,0.2,0c0.1,0,0.2,0,0.3-0.1l2.8-1.6c0.1-0.1,0.2-0.2,0.3-0.4s0-0.3-0.1-0.5L338.5,77.3z"/>
		<path class="st0" d="M345.5,73.3c-0.1-0.2-0.3-0.3-0.5-0.3c-0.1,0-0.2,0-0.3,0.1l-2.8,1.6c-0.3,0.2-0.4,0.5-0.2,0.8l1.6,2.7
			c0.1,0.1,0.2,0.2,0.4,0.3c0,0,0.1,0,0.2,0c0.1,0,0.2,0,0.3-0.1l2.8-1.6c0.1-0.1,0.2-0.2,0.3-0.4s0-0.3-0.1-0.5L345.5,73.3z"/>
		<path class="st0" d="M317.4,89.5c-0.1-0.2-0.3-0.3-0.5-0.3c-0.1,0-0.2,0-0.3,0.1l-2.8,1.6c-0.3,0.2-0.4,0.5-0.2,0.8l1.6,2.7
			c0.1,0.1,0.2,0.2,0.4,0.3c0,0,0.1,0,0.2,0c0.1,0,0.2,0,0.3-0.1l2.8-1.6c0.1-0.1,0.2-0.2,0.3-0.4s0-0.3-0.1-0.5L317.4,89.5z"/>
		<path class="st0" d="M275.7,187.1h-3.2c-0.3,0-0.6,0.3-0.6,0.6v3.2c0,0.3,0.3,0.6,0.6,0.6h3.2c0.3,0,0.6-0.3,0.6-0.6v-3.2
			C276.3,187.4,276.1,187.1,275.7,187.1z"/>
		<path class="st0" d="M275.7,179h-3.2c-0.3,0-0.6,0.3-0.6,0.6v3.2c0,0.3,0.3,0.6,0.6,0.6h3.2c0.3,0,0.6-0.3,0.6-0.6v-3.2
			C276.3,179.3,276.1,179,275.7,179z"/>
		<path class="st0" d="M275.7,195.3h-3.2c-0.3,0-0.6,0.3-0.6,0.6v3.2c0,0.3,0.3,0.6,0.6,0.6h3.2c0.3,0,0.6-0.3,0.6-0.6v-3.2
			C276.3,195.5,276.1,195.3,275.7,195.3z"/>
		<path class="st0" d="M275.7,203.4h-3.2c-0.3,0-0.6,0.3-0.6,0.6v3.2c0,0.3,0.3,0.6,0.6,0.6h3.2c0.3,0,0.6-0.3,0.6-0.6V204
			C276.3,203.6,276.1,203.4,275.7,203.4z"/>
		<path class="st0" d="M275.7,219.6h-3.2c-0.3,0-0.6,0.3-0.6,0.6v3.2c0,0.3,0.3,0.6,0.6,0.6h3.2c0.3,0,0.6-0.3,0.6-0.6v-3.2
			C276.3,219.9,276.1,219.6,275.7,219.6z"/>
		<path class="st0" d="M275.7,211.5h-3.2c-0.3,0-0.6,0.3-0.6,0.6v3.2c0,0.3,0.3,0.6,0.6,0.6h3.2c0.3,0,0.6-0.3,0.6-0.6v-3.2
			C276.3,211.8,276.1,211.5,275.7,211.5z"/>
		<path class="st0" d="M275.7,162.8h-3.2c-0.3,0-0.6,0.3-0.6,0.6v3.2c0,0.3,0.3,0.6,0.6,0.6h3.2c0.3,0,0.6-0.3,0.6-0.6v-3.2
			C276.3,163.1,276.1,162.8,275.7,162.8z"/>
		<path class="st0" d="M275.7,138.4h-3.2c-0.3,0-0.6,0.3-0.6,0.6v3.2c0,0.3,0.3,0.6,0.6,0.6h3.2c0.3,0,0.6-0.3,0.6-0.6V139
			C276.3,138.7,276.1,138.4,275.7,138.4z"/>
		<path class="st0" d="M275.7,130.3h-3.2c-0.3,0-0.6,0.3-0.6,0.6v3.2c0,0.3,0.3,0.6,0.6,0.6h3.2c0.3,0,0.6-0.3,0.6-0.6v-3.2
			C276.3,130.6,276.1,130.3,275.7,130.3z"/>
		<path class="st0" d="M275.7,170.9h-3.2c-0.3,0-0.6,0.3-0.6,0.6v3.2c0,0.3,0.3,0.6,0.6,0.6h3.2c0.3,0,0.6-0.3,0.6-0.6v-3.2
			C276.3,171.2,276.1,170.9,275.7,170.9z"/>
		<path class="st0" d="M275.7,122.2h-3.2c-0.3,0-0.6,0.3-0.6,0.6v3.2c0,0.3,0.3,0.6,0.6,0.6h3.2c0.3,0,0.6-0.3,0.6-0.6v-3.2
			C276.3,122.5,276.1,122.2,275.7,122.2z"/>
		<path class="st0" d="M275.7,154.7h-3.2c-0.3,0-0.6,0.3-0.6,0.6v3.2c0,0.3,0.3,0.6,0.6,0.6h3.2c0.3,0,0.6-0.3,0.6-0.6v-3.2
			C276.3,154.9,276.1,154.7,275.7,154.7z"/>
		<path class="st0" d="M275.7,146.6h-3.2c-0.3,0-0.6,0.3-0.6,0.6v3.2c0,0.3,0.3,0.6,0.6,0.6h3.2c0.3,0,0.6-0.3,0.6-0.6v-3.2
			C276.3,146.8,276.1,146.6,275.7,146.6z"/>
		<path class="st0" d="M337.1,263.7c-0.1-0.1-0.2-0.1-0.3-0.1c-0.2,0-0.4,0.1-0.5,0.3l-1.6,2.7c-0.1,0.1-0.1,0.3-0.1,0.5
			s0.1,0.3,0.3,0.4l2.8,1.6c0.1,0,0.2,0.1,0.3,0.1c0,0,0.1,0,0.2,0c0.2,0,0.3-0.1,0.4-0.3l1.6-2.7c0.2-0.3,0.1-0.7-0.2-0.8
			L337.1,263.7z"/>
		<path class="st0" d="M344.1,267.8c-0.1-0.1-0.2-0.1-0.3-0.1c-0.2,0-0.4,0.1-0.5,0.3l-1.6,2.7c-0.1,0.1-0.1,0.3-0.1,0.5
			s0.1,0.3,0.3,0.4l2.8,1.6c0.1,0,0.2,0.1,0.3,0.1c0,0,0.1,0,0.2,0c0.2,0,0.3-0.1,0.4-0.3l1.6-2.7c0.2-0.3,0.1-0.7-0.2-0.8
			L344.1,267.8z"/>
		<path class="st0" d="M323,255.6c-0.1-0.1-0.2-0.1-0.3-0.1c-0.2,0-0.4,0.1-0.5,0.3l-1.6,2.7c-0.1,0.1-0.1,0.3-0.1,0.5
			s0.1,0.3,0.3,0.4l2.8,1.6c0.1,0,0.2,0.1,0.3,0.1c0,0,0.1,0,0.2,0c0.2,0,0.3-0.1,0.4-0.3l1.6-2.7c0.2-0.3,0.1-0.7-0.2-0.8
			L323,255.6z"/>
		<path class="st0" d="M365.2,280c-0.1-0.1-0.2-0.1-0.3-0.1c-0.2,0-0.4,0.1-0.5,0.3l-1.6,2.7c-0.1,0.1-0.1,0.3-0.1,0.5
			s0.1,0.3,0.3,0.4l2.8,1.6c0.1,0,0.2,0.1,0.3,0.1c0,0,0.1,0,0.2,0c0.1,0,0.3-0.1,0.4-0.3l1.6-2.7c0.2-0.3,0.1-0.7-0.2-0.8
			L365.2,280z"/>
		<path class="st0" d="M351.1,271.8c-0.1-0.1-0.2-0.1-0.3-0.1c-0.2,0-0.4,0.1-0.5,0.3l-1.6,2.7c-0.1,0.1-0.1,0.3-0.1,0.5
			s0.1,0.3,0.3,0.4l2.8,1.6c0.1,0,0.2,0.1,0.3,0.1c0,0,0.1,0,0.2,0c0.2,0,0.3-0.1,0.4-0.3l1.6-2.7c0.2-0.3,0.1-0.7-0.2-0.8
			L351.1,271.8z"/>
		<path class="st0" d="M358.2,275.9c-0.1-0.1-0.2-0.1-0.3-0.1c-0.2,0-0.4,0.1-0.5,0.3l-1.6,2.7c-0.1,0.1-0.1,0.3-0.1,0.5
			s0.1,0.3,0.3,0.4l2.8,1.6c0.1,0,0.2,0.1,0.3,0.1c0,0,0.1,0,0.2,0c0.2,0,0.3-0.1,0.4-0.3l1.6-2.7c0.2-0.3,0.1-0.7-0.2-0.8
			L358.2,275.9z"/>
		<path class="st0" d="M330.1,259.6c-0.1-0.1-0.2-0.1-0.3-0.1c-0.2,0-0.4,0.1-0.5,0.3l-1.6,2.7c-0.1,0.1-0.1,0.3-0.1,0.5
			s0.1,0.3,0.3,0.4l2.8,1.6c0.1,0,0.2,0.1,0.3,0.1c0,0,0.1,0,0.2,0c0.2,0,0.3-0.1,0.4-0.3l1.6-2.7c0.2-0.3,0.1-0.7-0.2-0.8
			L330.1,259.6z"/>
		<path class="st0" d="M287.9,235.3c-0.1-0.1-0.2-0.1-0.3-0.1c-0.2,0-0.4,0.1-0.5,0.3l-1.6,2.7c-0.1,0.1-0.1,0.3-0.1,0.5
			s0.1,0.3,0.3,0.4l2.8,1.6c0.1,0.1,0.2,0.1,0.3,0.1c0,0,0.1,0,0.2,0c0.2,0,0.3-0.1,0.4-0.3l1.6-2.7c0.2-0.3,0.1-0.7-0.2-0.8
			L287.9,235.3z"/>
		<path class="st0" d="M280.9,231.3c-0.1-0.1-0.2-0.1-0.3-0.1c-0.2,0-0.4,0.1-0.5,0.3l-1.6,2.7c-0.1,0.1-0.1,0.3-0.1,0.5
			s0.1,0.3,0.3,0.4l2.8,1.6c0.1,0.1,0.2,0.1,0.3,0.1c0,0,0.1,0,0.2,0c0.2,0,0.3-0.1,0.4-0.3l1.6-2.7c0.2-0.3,0.1-0.7-0.2-0.8
			L280.9,231.3z"/>
		<path class="st0" d="M316,251.5c-0.1-0.1-0.2-0.1-0.3-0.1c-0.2,0-0.4,0.1-0.5,0.3l-1.6,2.7c-0.1,0.1-0.1,0.3-0.1,0.5
			s0.1,0.3,0.3,0.4l2.8,1.6c0.1,0,0.2,0.1,0.3,0.1c0,0,0.1,0,0.2,0c0.2,0,0.3-0.1,0.4-0.3l1.6-2.7c0.2-0.3,0.1-0.7-0.2-0.8
			L316,251.5z"/>
		<path class="st0" d="M294.9,239.4c-0.1-0.1-0.2-0.1-0.3-0.1c-0.2,0-0.4,0.1-0.5,0.3l-1.6,2.7c-0.1,0.1-0.1,0.3-0.1,0.5
			s0.1,0.3,0.3,0.4l2.8,1.6c0.1,0.1,0.2,0.1,0.3,0.1c0,0,0.1,0,0.2,0c0.2,0,0.3-0.1,0.4-0.3l1.6-2.7c0.2-0.3,0.1-0.7-0.2-0.8
			L294.9,239.4z"/>
		<path class="st0" d="M309,247.5c-0.1-0.1-0.2-0.1-0.3-0.1c-0.2,0-0.4,0.1-0.5,0.3l-1.6,2.7c-0.1,0.1-0.1,0.3-0.1,0.5
			s0.1,0.3,0.3,0.4l2.8,1.6c0.1,0.1,0.2,0.1,0.3,0.1c0,0,0.1,0,0.2,0c0.2,0,0.3-0.1,0.4-0.3l1.6-2.7c0.2-0.3,0.1-0.7-0.2-0.8
			L309,247.5z"/>
		<path class="st0" d="M302,243.4c-0.1-0.1-0.2-0.1-0.3-0.1c-0.2,0-0.4,0.1-0.5,0.3l-1.6,2.7c-0.1,0.1-0.1,0.3-0.1,0.5
			s0.1,0.3,0.3,0.4l2.8,1.6c0.1,0.1,0.2,0.1,0.3,0.1c0,0,0.1,0,0.2,0c0.2,0,0.3-0.1,0.4-0.3l1.6-2.7c0.2-0.3,0.1-0.7-0.2-0.8
			L302,243.4z"/>
		<path class="st0" d="M373.6,284.2c-0.1-0.1-0.2-0.2-0.4-0.3c0,0-0.1,0-0.2,0c-0.1,0-0.2,0-0.3,0.1l-0.3,0.2l-0.3-0.2
			c-0.1,0-0.2-0.1-0.3-0.1c0,0-0.1,0-0.2,0c-0.2,0-0.3,0.1-0.4,0.3l-1.6,2.7c-0.2,0.3-0.1,0.7,0.2,0.8l2.1,1.2
			c0.1,0,0.2,0.1,0.3,0.1s0.2,0,0.3-0.1l2.1-1.2c0.3-0.2,0.4-0.5,0.2-0.8L373.6,284.2z"/>
		<path class="st0" d="M443.9,243.6c-0.1-0.1-0.2-0.2-0.4-0.3c0,0-0.1,0-0.2,0c-0.1,0-0.2,0-0.3,0.1l-2.8,1.6
			c-0.1,0.1-0.2,0.2-0.3,0.4c0,0.2,0,0.3,0.1,0.5l1.6,2.7c0.1,0.2,0.3,0.3,0.5,0.3c0.1,0,0.2,0,0.3-0.1l2.8-1.6
			c0.3-0.2,0.4-0.5,0.2-0.8L443.9,243.6z"/>
		<path class="st0" d="M436.9,247.7c-0.1-0.1-0.2-0.2-0.4-0.3c0,0-0.1,0-0.2,0c-0.1,0-0.2,0-0.3,0.1l-2.8,1.6
			c-0.1,0.1-0.2,0.2-0.3,0.4c0,0.2,0,0.3,0.1,0.5l1.6,2.7c0.1,0.2,0.3,0.3,0.5,0.3c0.1,0,0.2,0,0.3-0.1l2.8-1.6
			c0.3-0.2,0.4-0.5,0.2-0.8L436.9,247.7z"/>
		<path class="st0" d="M450.9,239.6c-0.1-0.1-0.2-0.2-0.4-0.3c0,0-0.1,0-0.2,0c-0.1,0-0.2,0-0.3,0.1l-2.8,1.6
			c-0.1,0.1-0.2,0.2-0.3,0.4c0,0.2,0,0.3,0.1,0.5l1.6,2.7c0.1,0.2,0.3,0.3,0.5,0.3c0.1,0,0.2,0,0.3-0.1l2.8-1.6
			c0.3-0.2,0.4-0.5,0.2-0.8L450.9,239.6z"/>
		<path class="st0" d="M457.9,235.5c-0.1-0.1-0.2-0.2-0.4-0.3c0,0-0.1,0-0.2,0c-0.1,0-0.2,0-0.3,0.1l-2.8,1.6
			c-0.1,0.1-0.2,0.2-0.3,0.4c0,0.2,0,0.3,0.1,0.5l1.6,2.7c0.1,0.2,0.3,0.3,0.5,0.3c0.1,0,0.2,0,0.3-0.1l2.8-1.6
			c0.3-0.2,0.4-0.5,0.2-0.8L457.9,235.5z"/>
		<path class="st0" d="M429.8,251.8c-0.1-0.1-0.2-0.2-0.4-0.3c0,0-0.1,0-0.2,0c-0.1,0-0.2,0-0.3,0.1l-2.8,1.6
			c-0.1,0.1-0.2,0.2-0.3,0.4c0,0.2,0,0.3,0.1,0.5l1.6,2.7c0.1,0.2,0.3,0.3,0.5,0.3c0.1,0,0.2,0,0.3-0.1l2.8-1.6
			c0.3-0.2,0.4-0.5,0.2-0.8L429.8,251.8z"/>
		<path class="st0" d="M465,231.5c-0.1-0.1-0.2-0.2-0.4-0.3c0,0-0.1,0-0.2,0c-0.1,0-0.2,0-0.3,0.1l-2.8,1.6
			c-0.1,0.1-0.2,0.2-0.3,0.4c0,0.2,0,0.3,0.1,0.5l1.6,2.7c0.1,0.2,0.3,0.3,0.5,0.3c0.1,0,0.2,0,0.3-0.1l2.8-1.6
			c0.3-0.2,0.4-0.5,0.2-0.8L465,231.5z"/>
		<path class="st0" d="M380.6,280.2c-0.1-0.1-0.2-0.2-0.4-0.3c0,0-0.1,0-0.2,0c-0.1,0-0.2,0-0.3,0.1l-2.8,1.6
			c-0.1,0.1-0.2,0.2-0.3,0.4s0,0.3,0.1,0.5l1.6,2.7c0.1,0.2,0.3,0.3,0.5,0.3c0.1,0,0.2,0,0.3-0.1l2.8-1.6c0.3-0.2,0.4-0.5,0.2-0.8
			L380.6,280.2z"/>
		<path class="st0" d="M394.7,272c-0.1-0.1-0.2-0.2-0.4-0.3c0,0-0.1,0-0.2,0c-0.1,0-0.2,0-0.3,0.1l-2.8,1.6
			c-0.1,0.1-0.2,0.2-0.3,0.4s0,0.3,0.1,0.5l1.6,2.7c0.1,0.2,0.3,0.3,0.5,0.3c0.1,0,0.2,0,0.3-0.1l2.8-1.6c0.3-0.2,0.4-0.5,0.2-0.8
			L394.7,272z"/>
		<path class="st0" d="M387.7,276.1c-0.1-0.1-0.2-0.2-0.4-0.3c0,0-0.1,0-0.2,0c-0.1,0-0.2,0-0.3,0.1l-2.8,1.6
			c-0.1,0.1-0.2,0.2-0.3,0.4s0,0.3,0.1,0.5l1.6,2.7c0.1,0.2,0.3,0.3,0.5,0.3c0.1,0,0.2,0,0.3-0.1l2.8-1.6c0.3-0.2,0.4-0.5,0.2-0.8
			L387.7,276.1z"/>
		<path class="st0" d="M401.7,268c-0.1-0.1-0.2-0.2-0.4-0.3c0,0-0.1,0-0.2,0c-0.1,0-0.2,0-0.3,0.1l-2.8,1.6
			c-0.1,0.1-0.2,0.2-0.3,0.4c0,0.1,0,0.3,0.1,0.5l1.6,2.7c0.1,0.2,0.3,0.3,0.5,0.3c0.1,0,0.2,0,0.3-0.1l2.8-1.6
			c0.3-0.2,0.4-0.5,0.2-0.8L401.7,268z"/>
		<path class="st0" d="M408.7,263.9c-0.1-0.1-0.2-0.2-0.4-0.3c0,0-0.1,0-0.2,0c-0.1,0-0.2,0-0.3,0.1l-2.8,1.6
			c-0.1,0.1-0.2,0.2-0.3,0.4c0,0.1,0,0.3,0.1,0.5l1.6,2.7c0.1,0.2,0.3,0.3,0.5,0.3c0.1,0,0.2,0,0.3-0.1l2.8-1.6
			c0.3-0.2,0.4-0.5,0.2-0.8L408.7,263.9z"/>
		<path class="st0" d="M415.8,259.9c-0.1-0.1-0.2-0.2-0.4-0.3c0,0-0.1,0-0.2,0c-0.1,0-0.2,0-0.3,0.1l-2.8,1.6
			c-0.1,0.1-0.2,0.2-0.3,0.4s0,0.3,0.1,0.5l1.6,2.7c0.1,0.2,0.3,0.3,0.5,0.3c0.1,0,0.2,0,0.3-0.1l2.8-1.6c0.3-0.2,0.4-0.5,0.2-0.8
			L415.8,259.9z"/>
		<path class="st0" d="M422.8,255.8c-0.1-0.1-0.2-0.2-0.4-0.3c0,0-0.1,0-0.2,0c-0.1,0-0.2,0-0.3,0.1l-2.8,1.6
			c-0.1,0.1-0.2,0.2-0.3,0.4s0,0.3,0.1,0.5l1.6,2.7c0.1,0.2,0.3,0.3,0.5,0.3c0.1,0,0.2,0,0.3-0.1l2.8-1.6c0.3-0.2,0.4-0.5,0.2-0.8
			L422.8,255.8z"/>
		<path class="st0" d="M276.3,115.6l-1-1.7c-0.1-0.1-0.2-0.2-0.4-0.3c0,0-0.1,0-0.2,0c-0.1,0-0.2,0-0.3,0.1l-2.2,1.3
			c-0.2,0.1-0.3,0.3-0.3,0.5v2.5c0,0.3,0.3,0.6,0.6,0.6h3.2c0.3,0,0.6-0.3,0.6-0.6v-0.7v-1.3C276.3,115.8,276.3,115.7,276.3,115.6z"
			/>
		<path class="st0" d="M469.3,118.5h3.2c0.3,0,0.6-0.3,0.6-0.6v-2.5c0-0.2-0.1-0.4-0.3-0.5l-2.2-1.3c-0.1-0.1-0.2-0.1-0.3-0.1
			c0,0-0.1,0-0.2,0c-0.2,0-0.3,0.1-0.4,0.3l-1,1.7c0,0.1-0.1,0.2-0.1,0.3v1.3v0.7C468.7,118.2,468.9,118.5,469.3,118.5z"/>
	</g>
</g>
</svg>
