<?xml version="1.0" encoding="utf-8"?>
<!-- Generator: Adobe Illustrator 24.1.2, SVG Export Plug-In . SVG Version: 6.00 Build 0)  -->
<svg version="1.1" id="Layer_1" xmlns="http://www.w3.org/2000/svg" xmlns:xlink="http://www.w3.org/1999/xlink" x="0px" y="0px"
	 viewBox="0 0 1920 325" style="enable-background:new 0 0 1920 325;" xml:space="preserve">
<style type="text/css">
	.st0{fill:url(#SVGID_1_);}
	.st1{fill:url(#SVGID_2_);}
	.st2{enable-background:new    ;}
	.st3{fill:#808285;}
</style>
<g>
	<g>
		
			<linearGradient id="SVGID_1_" gradientUnits="userSpaceOnUse" x1="1560.5225" y1="828.7476" x2="1560.5225" y2="828.7476" gradientTransform="matrix(1 0 0 1 44.6304 -666.2533)">
			<stop  offset="0" style="stop-color:#A32CDF"/>
			<stop  offset="0.1986" style="stop-color:#8B36DD"/>
			<stop  offset="0.6153" style="stop-color:#4E50D7"/>
			<stop  offset="1" style="stop-color:#106AD2"/>
		</linearGradient>
		<path class="st0" d="M1605.2,162.5L1605.2,162.5L1605.2,162.5z"/>
		
			<linearGradient id="SVGID_2_" gradientUnits="userSpaceOnUse" x1="1362.3984" y1="828.7533" x2="1833.2867" y2="828.7533" gradientTransform="matrix(1 0 0 1 44.6304 -666.2533)">
			<stop  offset="0" style="stop-color:#A32CDF"/>
			<stop  offset="0.1986" style="stop-color:#8B36DD"/>
			<stop  offset="0.6153" style="stop-color:#4E50D7"/>
			<stop  offset="1" style="stop-color:#106AD2"/>
		</linearGradient>
		<path class="st1" d="M1844.8,82.6c-21.3-21.3-49.7-33.1-79.9-33.1c-30.2,0-58.6,11.8-79.9,33.1l-79.9,79.9l-42.4,42.8
			c-14.3,14.4-34.6,20.6-55.3,16.5c-7.2-1.4-14-4.2-20.1-8.3c-22.2-14.6-32.3-40.3-26-66.3c1.3-5.3,3.4-10.4,6.2-15.1
			c12.4-20.6,34-31.6,57.1-29.9c9.1,0.7,17.8,3.6,25.6,8.1l-22.2,22.2l0,0c-10,10.2-10,26.6,0.2,36.8c9.8,9.8,25.3,10.3,35.7,1.4
			l0,0.1l0.9-0.9c0.2-0.2,0.4-0.3,0.5-0.5l6-5.9c0.9-0.9,1.9-1.9,2.8-2.9l33.3-33.3c0,0,0.1-0.1,0.1-0.1c0,0,0.1-0.1,0.1-0.1
			l1.4-1.4l0-0.1c8.8-10.3,8.3-25.8-1.5-35.5l-5.9-5.9c-4.3-4.3-8.9-8.2-13.7-11.8l0-0.1l0,0c-19.4-14.3-42.8-22.7-67.1-22.8
			c-31.5-0.2-61,12.5-82.7,35.4c-18.8,19.8-29.8,46.1-30.8,73.4c-1.1,31.7,10.7,61.7,33,84c21.3,21.3,49.7,33.1,79.9,33.1
			c30.2,0,58.6-11.8,79.9-33.1l79.9-79.9l42.4-42.8c14.3-14.3,34.6-20.6,55.3-16.5c7.2,1.4,14,4.2,20.1,8.3
			c22.2,14.6,32.3,40.3,26,66.3c-1.3,5.3-3.4,10.4-6.2,15.1c-12.4,20.6-34,31.6-57.1,29.9c-9.4-0.7-18.3-3.7-26.3-8.5l12.7-15.5
			c1.1-1.4,1.6-3,1.4-4.9c-0.2-1.9-1-3.3-2.4-4.5s-3-1.6-4.8-1.4l-65.3,6.6c-1.8,0.2-3.3,1-4.5,2.4s-1.6,3-1.4,4.9l6.6,65.3
			c0.2,1.9,1,3.3,2.4,4.5s3,1.6,4.8,1.4c1.8-0.2,3.3-1,4.5-2.4l12.7-15.6c18.7,12.8,40.8,20.3,63.7,20.4c31.5,0.2,61-12.5,82.7-35.4
			c18.8-19.8,29.8-46.1,30.8-73.4C1879,134.9,1867.1,104.9,1844.8,82.6z"/>
	</g>
	<g>
		<g class="st2">
			<path class="st3" d="M53.4,188.7h0.8l4.7,1.2l4.6,2c6.8,3.1,12.7,4.6,17.8,4.6c5.9,0,11-1.9,15.4-5.6c4.4-3.7,6.6-8.3,6.6-13.6
				c0-4.6-1.9-8-5.6-10.2c-2.7-1.5-9-3.7-18.6-6.9c-8.1-2.4-14.4-5.3-18.6-8.5c-5.9-4.4-9-11-9-19.6c0-11,4.6-20.3,13.6-28.1
				c9-8,20-11.8,33-11.8c8,0,14.9,1.5,20.8,4.6c5.9,2.9,9,6.4,9,10.7c0,5.9-5.4,11.8-11.3,11.8c-2,0-4.9-0.8-8.5-2.4l-4.4-1.9
				c-3.1-1.3-6.3-2-9.8-2c-4.7,0-9,1.5-12.5,4.4c-3.6,2.7-5.4,5.9-5.4,9.8c0,2.4,1,4.6,3.1,6.8c2,2.2,6.8,4.4,14.1,6.8
				c10.5,3.4,17.9,6.4,22.3,9.1c8,5.1,12,12.9,12,23.2c0,12.4-4.7,23-14.4,31.7c-9.7,8.6-21.3,13-35.2,13c-9.7,0-18.1-1.7-25.2-5.1
				c-6.9-3.4-10.5-7.4-10.5-12C42.1,194.1,47.3,188.7,53.4,188.7z"/>
			<path class="st3" d="M157.9,177.7c0.7,4.6,1.7,8.5,3.1,11.5c2.9,6.3,8.8,9.5,17.8,9.5c6.3,0,12.5-1.9,18.8-5.6
				c4.9-2.9,8.5-4.4,10.7-4.4c5.4,0,8.1,2.5,8.1,7.8c0,3.1-1.7,6.1-4.9,9c-9.8,8.3-21.8,12.4-36.2,12.4c-12.4,0-22.2-3.6-29.5-10.8
				s-11-17.1-11-29.3c0-14.6,4.9-27.3,14.7-37.9c9.8-10.8,21.5-16.2,35.1-16.2c10.8,0,19.8,3.9,26.8,11.5c6.9,7.6,10.5,17.3,10.5,29
				c0,10.2-3.1,13.9-11.9,13.9L157.9,177.7z M159.1,163.3h41.1c0-14.7-6.3-22.2-17.8-22.2C171.3,141.1,163.5,148.6,159.1,163.3z"/>
			<path class="st3" d="M309.3,133.3l2.4-1.7c6.8-5.4,14.9-8.1,24.2-8.1c8.3,0,15.2,2.4,20.5,7.3c5.4,4.7,8.1,11,8.1,18.8L364,155
				l-6.3,51.7c-0.3,2.9-1.7,5.6-4.1,8c-2.2,2-4.9,3.1-8,3.1c-4.9,0-9.6-4.9-9.6-11l5.9-48.9c0-4.6-1.4-8.3-4.2-11.2
				c-2.9-3.2-5.8-4.7-9.8-4.7c-9,0-16.9,6.6-18.3,15.9l-5.8,48.9c-0.3,2.9-1.7,5.6-4.1,8c-2.4,2-5.1,3.1-8.1,3.1
				c-2.5,0-4.7-1-6.8-3.2l-1.5-2.4c-0.9-1.5-1.2-3.4-1.2-5.4l6.1-48.9c0-8.8-6.6-16.3-14.7-16.3c-4.2,0-8.3,1.5-11.9,4.6
				c-3.2,3.1-5.1,6.9-5.8,11.5l-6.1,49.1c-0.7,5.9-5.9,10.8-11.9,10.8c-5.3,0-9.8-4.7-9.8-10.8l8.8-71.8c0.3-2.9,1.7-5.6,4.1-8
				c2.5-2.2,5.3-3.2,8.3-3.2c4.9,0,8.8,3.4,8.8,7.4l-0.5,2.7l3.7-3.6c5.8-4.6,12.7-6.8,20.8-6.8c4.2,0,7.8,0.5,11.9,2.4
				c5.1,2,9.1,5.6,12.2,10.8L309.3,133.3z"/>
			<path class="st3" d="M444.6,131.6c0.7-4.2,5.4-8.1,10.7-8.1s10,4.7,10,11l-9,72.5c-0.7,6.3-5.8,10.7-11.9,10.7
				c-2.5,0-4.7-0.9-6.8-2.5c-1.9-1.9-2.7-3.7-2.7-5.9l0.3-3.6c-4.7,4.7-8.8,8-12.4,9.6c-3.4,1.5-7.6,2.4-12.9,2.4
				c-10.3,0-19-3.7-25.6-11.2c-6.6-7.4-9.8-16.9-9.8-28.6c0-14.7,4.6-27.4,13.9-38.1c9.3-10.8,20.5-16.2,33.2-16.2
				c5.1,0,9,0.7,11.9,2c2.9,1.4,6.4,4.2,10.7,8.8L444.6,131.6z M405.5,150.6c-4.4,4.9-7.3,11.7-8.5,20l-0.2,5.3
				c0,13.6,6.9,22.5,18,22.5c7.5,0,13.5-3.2,18.1-9.6s6.9-14.7,6.9-24.9c0-12.7-6.9-20.8-17.8-20.8C416,143,410.4,145.5,405.5,150.6
				z M427,117.2l-2.2,0.7c-4.9,0-9.5-3.2-9.5-7.3c0-4.9,2.4-8.5,7.1-10.3l24-9.1l2.4-0.3c4.9,0,9.5,3.2,9.5,7.1
				c0,4.9-2.4,8.5-7.1,10.3L427,117.2z"/>
			<path class="st3" d="M502.8,134.3l4.4-4.1c5.9-4.6,13-6.9,21.5-6.9c8.3,0,15.4,2.5,21,7.6c5.8,5.1,8.6,11.5,8.6,19.1l-0.5,6.8
				l-6.1,50.1c-0.7,5.9-5.9,10.8-11.8,10.8c-5.4,0-10-4.7-10-10.8l5.9-47.2c0-9.6-7.3-17.9-15.6-17.9c-10,0-18.3,7.6-19.6,17.8
				l-5.6,47.2c-0.7,5.9-5.9,10.8-11.9,10.8c-5.3,0-9.8-4.7-9.8-10.8l8.8-72.1c0.7-5.9,6.3-11,12.2-11c4.9,0,9,3.6,9,7.8L502.8,134.3
				z"/>
			<path class="st3" d="M581.6,144.2h-5.4c-4.7,0-8.8-3.9-8.8-9.3c0-5.3,4.9-9.8,11.2-9.8h5.3l2-17.3c0.7-6.1,5.9-11,11.8-11
				c4.9,0,9.7,4.9,9.7,11l-2.2,17.3h8c4.9,0,8.6,4.4,8.6,9.6c0,2.5-1,4.7-3.2,6.8c-2.2,1.9-4.7,2.7-8,2.7h-7.8l-7.5,62.3
				c-0.3,2.9-1.7,5.6-4.1,8c-2.2,2-4.9,3.1-7.8,3.1c-4.7,0-9.5-4.9-9.5-10.8L581.6,144.2z"/>
			<path class="st3" d="M639.1,206.6c-0.3,2.9-1.7,5.6-4.1,8c-2.2,2-4.9,3.1-7.8,3.1c-5.4,0-10-4.9-10-10.8l9-72.3
				c0.7-6.1,5.9-10.8,12.2-10.8c5.3,0,9.5,4.9,9.5,11L639.1,206.6z M632.4,92.7c2.7-2.5,5.8-3.9,9.8-3.9c6.1,0,11.7,5.4,11.7,12.7
				s-6.3,13-13.7,13c-3,0-5.9-1.2-8.5-3.6c-2.2-2.5-3.4-4.9-3.4-8.8C628.3,98.6,629.7,95.4,632.4,92.7z"/>
			<path class="st3" d="M712.1,193.9c1.7-0.7,3.4-1,4.9-1c4.2,0,8,3.7,8,8.6c0,4.2-3,8.1-9,11.3c-5.9,3.2-12.9,4.9-21.2,4.9
				c-11.7,0-21-3.6-28.1-10.8c-6.9-7.3-10.5-17.1-10.5-29.3c0-14.9,4.9-27.6,14.7-38.3s21.8-15.9,35.9-15.9c7.5,0,13.5,1.3,18.5,3.9
				c5.1,2.4,7.6,5.4,7.6,9.1c0,5.6-4.9,11.5-10.5,11.5c-1.5,0-3.6-0.5-6.1-1.7c-4.6-1.9-8.3-2.9-11.5-2.9c-7.3,0-13.4,3.1-18.5,9
				c-5.1,5.9-7.6,13.4-7.6,22.4c0,13.6,7.3,22.7,19.3,22.7c2.9,0,6.3-0.7,10-2L712.1,193.9z"/>
			<path class="st3" d="M805.6,131.6c0.7-4.2,5.4-8.1,10.7-8.1s10,4.7,10,11l-9,72.5c-0.7,6.3-5.8,10.7-11.8,10.7
				c-2.5,0-4.7-0.9-6.8-2.5c-1.9-1.9-2.7-3.7-2.7-5.9l0.3-3.6c-4.7,4.7-8.8,8-12.4,9.6c-3.4,1.5-7.6,2.4-12.9,2.4
				c-10.3,0-19-3.7-25.6-11.2c-6.6-7.4-9.8-16.9-9.8-28.6c0-14.7,4.6-27.4,13.9-38.1c9.3-10.8,20.5-16.2,33.2-16.2
				c5.1,0,9,0.7,11.8,2c2.9,1.4,6.4,4.2,10.7,8.8L805.6,131.6z M766.5,150.6c-4.4,4.9-7.3,11.7-8.5,20l-0.2,5.3
				c0,13.6,6.9,22.5,18,22.5c7.5,0,13.5-3.2,18.1-9.6s6.9-14.7,6.9-24.9c0-12.7-6.9-20.8-17.8-20.8C777,143,771.4,145.5,766.5,150.6
				z"/>
			<path class="st3" d="M894.3,216c-7.1,0-10.7-3.2-10.7-9.8v-1.4l12.4-99.6c0.7-6.1,6.6-11.2,12.7-11.2h29.8
				c15.9,0,28.5,4.6,37.6,13.9c9.1,9.1,13.7,21.8,13.7,37.9c0,12-2.7,23.4-8,34c-11.7,24-30.8,36.1-57.4,36.1L894.3,216L894.3,216z
				 M917.4,114.4l-10,81.3h18.8c11.3,0,20.8-4.6,28.5-13.7c7.6-9.1,11.5-20.5,11.5-34.2c0-20.8-11.7-33.4-30.8-33.4
				C935.3,114.4,917.4,114.4,917.4,114.4z"/>
			<path class="st3" d="M1017.8,206.6c-0.3,2.9-1.7,5.6-4.1,8c-2.2,2-4.9,3.1-7.8,3.1c-5.4,0-10-4.9-10-10.8l9-72.3
				c0.7-6.1,5.9-10.8,12.2-10.8c5.3,0,9.5,4.9,9.5,11L1017.8,206.6z M1011,92.7c2.7-2.5,5.8-3.9,9.8-3.9c6.1,0,11.7,5.4,11.7,12.7
				s-6.3,13-13.7,13c-3,0-5.9-1.2-8.5-3.6c-2.2-2.5-3.4-4.9-3.4-8.8C1006.9,98.6,1008.3,95.4,1011,92.7z"/>
			<path class="st3" d="M1082.6,215.8c-3.6,1.5-8,2.4-13.2,2.4c-10.3,0-18.6-3.6-25.1-10.8c-6.3-7.3-9.5-16.8-9.5-28.4
				c0-15.1,4.6-27.9,13.9-38.9c9.3-11,20.3-16.4,33.2-16.4c5.1,0,9,0.8,11.8,2.4c2.9,1.2,6.3,4.2,10.5,9.1l0.3-3.2
				c0-4.2,5.3-8,10.5-8s9.8,4.9,9.8,11l-9,72.8c-1.7,14.1-6.4,24.9-14.2,32.7c-9.3,9-21.5,13.6-36.6,13.6c-9.3,0-17.4-1.7-24.7-5.3
				c-7.1-3.4-10.7-7.4-10.7-12c0-1.9,0.7-3.9,2-5.8c2.4-3.2,5.4-4.9,9-4.9c2,0,2.7,0.2,4.7,1.4l4.7,2.7c5.9,3.2,11.8,4.9,17.9,4.9
				c8.6,0,15.6-3.1,20.5-9.1c3.1-3.9,5.1-10.3,6.3-19.6C1090.2,210.9,1086.2,214.1,1082.6,215.8z M1057.2,171.3l-0.2,4.7
				c0,13.7,6.9,22.4,18.3,22.4c15.1,0,24.6-13.9,24.6-34.9c0-12.2-7.1-20-17.9-20C1069.2,143.5,1059.3,154.8,1057.2,171.3z"/>
			<path class="st3" d="M1154.9,206.6c-0.3,2.9-1.7,5.6-4.1,8c-2.2,2-4.9,3.1-7.8,3.1c-5.4,0-10-4.9-10-10.8l9-72.3
				c0.7-6.1,5.9-10.8,12.2-10.8c5.3,0,9.5,4.9,9.5,11L1154.9,206.6z M1148.2,92.7c2.7-2.5,5.8-3.9,9.8-3.9c6.1,0,11.7,5.4,11.7,12.7
				s-6.3,13-13.7,13c-3.1,0-5.9-1.2-8.5-3.6c-2.2-2.5-3.4-4.9-3.4-8.8C1144.1,98.6,1145.4,95.4,1148.2,92.7z"/>
			<path class="st3" d="M1184.9,144.2h-5.4c-4.7,0-8.8-3.9-8.8-9.3c0-5.3,4.9-9.8,11.2-9.8h5.3l2-17.3c0.7-6.1,5.9-11,11.8-11
				c4.9,0,9.7,4.9,9.7,11l-2.2,17.3h8c4.9,0,8.6,4.4,8.6,9.6c0,2.5-1,4.7-3.2,6.8c-2.2,1.9-4.7,2.7-8,2.7h-7.8l-7.4,62.3
				c-0.3,2.9-1.7,5.6-4.1,8c-2.2,2-4.9,3.1-7.8,3.1c-4.7,0-9.5-4.9-9.5-10.8L1184.9,144.2z"/>
			<path class="st3" d="M1290.7,131.6c0.7-4.2,5.4-8.1,10.7-8.1s10,4.7,10,11l-9,72.5c-0.7,6.3-5.8,10.7-11.8,10.7
				c-2.5,0-4.7-0.9-6.8-2.5c-1.9-1.9-2.7-3.7-2.7-5.9l0.3-3.6c-4.7,4.7-8.8,8-12.4,9.6c-3.4,1.5-7.6,2.4-12.9,2.4
				c-10.3,0-19-3.7-25.6-11.2s-9.8-16.9-9.8-28.6c0-14.7,4.6-27.4,13.9-38.1c9.3-10.8,20.5-16.2,33.2-16.2c5.1,0,9,0.7,11.8,2
				c2.9,1.4,6.4,4.2,10.7,8.8L1290.7,131.6z M1251.6,150.6c-4.4,4.9-7.3,11.7-8.5,20l-0.2,5.3c0,13.6,6.9,22.5,17.9,22.5
				c7.4,0,13.6-3.2,18.1-9.6s6.9-14.7,6.9-24.9c0-12.7-6.9-20.8-17.8-20.8C1262.1,143,1256.5,145.5,1251.6,150.6z"/>
			<path class="st3" d="M1341.2,206.5c-0.3,2.9-1.7,5.6-4.1,8c-2.4,2.2-4.9,3.2-7.8,3.2c-5.3,0-9.8-4.9-9.8-11l13.7-112.1
				c0.7-6.1,6.1-11,12-11c5.4,0,9.7,4.9,9.7,11L1341.2,206.5z"/>
		</g>
	</g>
</g>
</svg>
