<?xml version="1.0" encoding="utf-8"?>
<!-- Generator: Adobe Illustrator 24.1.2, SVG Export Plug-In . SVG Version: 6.00 Build 0)  -->
<svg version="1.1" id="Layer_1" xmlns="http://www.w3.org/2000/svg" xmlns:xlink="http://www.w3.org/1999/xlink" x="0px" y="0px"
	 viewBox="0 0 1235 325" style="enable-background:new 0 0 1235 325;" xml:space="preserve">
<style type="text/css">
	.st0{fill:url(#SVGID_1_);}
	.st1{fill:url(#SVGID_2_);}
	.st2{fill:#2B3176;}
	.st3{font-family:'Nevo-Regular';}
	.st4{font-size:245.9507px;}
	.st5{letter-spacing:3;}
	.st6{fill:#FFFFFF;}
</style>
<rect x="-413" y="888" width="2939" height="1175"/>
<g>
	<g>
		
			<linearGradient id="SVGID_1_" gradientUnits="userSpaceOnUse" x1="1045.6135" y1="449.7543" x2="1045.6138" y2="449.7543" gradientTransform="matrix(1 0 0 1 44.6304 87.7467)">
			<stop  offset="0" style="stop-color:#A32CDF"/>
			<stop  offset="0.1986" style="stop-color:#8B36DD"/>
			<stop  offset="0.6153" style="stop-color:#4E50D7"/>
			<stop  offset="1" style="stop-color:#106AD2"/>
		</linearGradient>
		<polygon class="st0" points="1090.24,537.5 1090.24,537.5 1090.24,537.5 		"/>
		
			<linearGradient id="SVGID_2_" gradientUnits="userSpaceOnUse" x1="847.4828" y1="449.7533" x2="1318.3696" y2="449.7533" gradientTransform="matrix(1 0 0 1 44.6304 87.7467)">
			<stop  offset="0" style="stop-color:#A32CDF"/>
			<stop  offset="0.1986" style="stop-color:#8B36DD"/>
			<stop  offset="0.6153" style="stop-color:#4E50D7"/>
			<stop  offset="1" style="stop-color:#106AD2"/>
		</linearGradient>
		<path class="st1" d="M1329.91,457.61c-21.33-21.34-49.71-33.09-79.88-33.09c-30.18,0-58.55,11.75-79.89,33.09l-79.89,79.89
			l-42.38,42.78c-14.35,14.35-34.63,20.6-55.31,16.47c-7.16-1.43-14.03-4.24-20.13-8.25c-22.17-14.57-32.34-40.33-25.97-66.33
			c1.3-5.29,3.39-10.39,6.2-15.06c12.37-20.58,34.03-31.65,57.09-29.93c9.08,0.68,17.78,3.55,25.57,8.09l-22.22,22.25l0.04,0.04
			c-10.01,10.24-9.97,26.65,0.16,36.84c9.76,9.81,25.35,10.26,35.68,1.38l0.04,0.05l0.87-0.87c0.17-0.16,0.36-0.3,0.52-0.47
			l5.96-5.93c0.94-0.94,1.87-1.9,2.77-2.86l33.3-33.34c0.03-0.03,0.06-0.05,0.09-0.08c0.03-0.03,0.05-0.06,0.08-0.09l1.42-1.42
			l-0.04-0.1c8.75-10.31,8.27-25.77-1.46-35.5l-5.94-5.94c-4.29-4.29-8.88-8.22-13.71-11.8l-0.04-0.1l-0.04,0.04
			c-19.4-14.34-42.78-22.71-67.11-22.83c-31.46-0.16-61,12.45-82.71,35.38c-18.78,19.84-29.81,46.13-30.79,73.44
			c-1.13,31.72,10.7,61.73,33.02,84.04c21.33,21.34,49.71,33.09,79.88,33.09c30.18,0,58.55-11.75,79.89-33.09l79.89-79.89
			l42.38-42.78c14.35-14.35,34.63-20.6,55.31-16.47c7.16,1.43,14.03,4.24,20.13,8.25c22.17,14.57,32.34,40.33,25.97,66.33
			c-1.3,5.29-3.39,10.39-6.2,15.06c-12.37,20.58-34.03,31.65-57.09,29.93c-9.38-0.7-18.34-3.74-26.32-8.53l12.65-15.5
			c1.13-1.39,1.61-3.01,1.42-4.85c-0.19-1.85-0.98-3.34-2.37-4.47c-1.39-1.13-3.01-1.6-4.85-1.42l-65.26,6.62
			c-1.85,0.19-3.34,0.98-4.47,2.37c-1.13,1.39-1.61,3.01-1.42,4.85l6.62,65.26c0.19,1.85,0.98,3.34,2.37,4.47
			c1.39,1.13,3.01,1.6,4.85,1.42c1.84-0.19,3.33-0.97,4.47-2.37l12.69-15.56c18.7,12.84,40.77,20.26,63.68,20.37
			c31.46,0.16,61-12.45,82.71-35.38c18.78-19.84,29.81-46.13,30.79-73.44C1364.06,509.93,1352.22,479.93,1329.91,457.61z"/>
	</g>
	<g>
		
			<text transform="matrix(1 0 0 1 -478.751 590.9668)" class="st6" style="font-family:'VolkswagenSerial-BoldItalic'; font-size:169.3334px;">Semántica Digital</text>
	</g>
</g>
<g>
	<g>
		<path class="st2" d="M1160.5,1283.69c-27.21,0-49.35-22.14-49.35-49.35s22.14-49.35,49.35-49.35s49.35,22.14,49.35,49.35
			S1187.71,1283.69,1160.5,1283.69z"/>
	</g>
	<g>
		<path class="st2" d="M1255.61,1287.75l-0.63-1.1L1162.23,1126l-0.63-1.1l-1.1-1.9l-1.1,1.9l-0.64,1.1l-92.74,160.65l-0.63,1.1
			l-1.1,1.91h2.2h1.27h185.49h1.26h2.2L1255.61,1287.75z M1177.75,1286.65c-58.88,0,26.59,0-34.63,0h-73.63l36.78-63.71
			c23.28-40.32-11.07,19.18,17.38-30.1l36.85-63.84l36.77,63.7c4.84,8.38,7.6,13.17,9.1,15.76c0.02,0.03,0.04,0.08,0.07,0.11
			c0,0.01,0.01,0.01,0.01,0.02v0c0.06,0.11,0.14,0.24,0.23,0.4c-0.01-0.01-0.01-0.03-0.02-0.04c0.54,0.94,0.88,1.53,1.08,1.87
			c-0.13-0.22-0.3-0.51-0.48-0.83c1.15,1.98,3.38,5.85,7.42,12.86l36.83,63.79H1177.75z"/>
	</g>
	<text transform="matrix(1 0 0 1 842.4684 1302.8325)" class="st2 st3 st4">M</text>
	<g>
		<text transform="matrix(1 0 0 1 1276.1832 1306.6108)" class="st2 st3 st4 st5">lecula</text>
	</g>
	<g>
		<path class="st2" d="M1260.43,1215.73h-3.16c-0.33,0-0.6,0.27-0.6,0.6v3.2c0,0.33,0.27,0.6,0.6,0.6h3.16c0.33,0,0.6-0.27,0.6-0.6
			v-3.2C1261.03,1216,1260.76,1215.73,1260.43,1215.73z"/>
		<path class="st2" d="M1260.43,1231.96h-3.16c-0.33,0-0.6,0.27-0.6,0.6v3.2c0,0.33,0.27,0.6,0.6,0.6h3.16c0.33,0,0.6-0.27,0.6-0.6
			v-3.2C1261.03,1232.23,1260.76,1231.96,1260.43,1231.96z"/>
		<path class="st2" d="M1260.43,1207.61h-3.16c-0.33,0-0.6,0.27-0.6,0.6v3.2c0,0.33,0.27,0.6,0.6,0.6h3.16c0.33,0,0.6-0.27,0.6-0.6
			v-3.2C1261.03,1207.88,1260.76,1207.61,1260.43,1207.61z"/>
		<path class="st2" d="M1260.43,1223.84h-3.16c-0.33,0-0.6,0.27-0.6,0.6v3.2c0,0.33,0.27,0.6,0.6,0.6h3.16c0.33,0,0.6-0.27,0.6-0.6
			v-3.2C1261.03,1224.11,1260.76,1223.84,1260.43,1223.84z"/>
		<path class="st2" d="M1260.43,1191.38h-3.16c-0.33,0-0.6,0.27-0.6,0.6v3.2c0,0.33,0.27,0.6,0.6,0.6h3.16c0.33,0,0.6-0.27,0.6-0.6
			v-3.2C1261.03,1191.65,1260.76,1191.38,1260.43,1191.38z"/>
		<path class="st2" d="M1260.43,1183.27h-3.16c-0.33,0-0.6,0.27-0.6,0.6v3.2c0,0.33,0.27,0.6,0.6,0.6h3.16c0.33,0,0.6-0.27,0.6-0.6
			v-3.2C1261.03,1183.54,1260.76,1183.27,1260.43,1183.27z"/>
		<path class="st2" d="M1260.43,1199.5h-3.16c-0.33,0-0.6,0.27-0.6,0.6v3.2c0,0.33,0.27,0.6,0.6,0.6h3.16c0.33,0,0.6-0.27,0.6-0.6
			v-3.2C1261.03,1199.77,1260.76,1199.5,1260.43,1199.5z"/>
		<path class="st2" d="M1260.43,1280.65h-3.16c-0.33,0-0.6,0.27-0.6,0.6v3.2c0,0.33,0.27,0.6,0.6,0.6h3.16c0.33,0,0.6-0.27,0.6-0.6
			v-3.2C1261.03,1280.93,1260.76,1280.65,1260.43,1280.65z"/>
		<path class="st2" d="M1260.43,1272.54h-3.16c-0.33,0-0.6,0.27-0.6,0.6v3.2c0,0.33,0.27,0.6,0.6,0.6h3.16c0.33,0,0.6-0.27,0.6-0.6
			v-3.2C1261.03,1272.81,1260.76,1272.54,1260.43,1272.54z"/>
		<path class="st2" d="M1260.43,1264.42h-3.16c-0.33,0-0.6,0.27-0.6,0.6v3.2c0,0.33,0.27,0.6,0.6,0.6h3.16c0.33,0,0.6-0.27,0.6-0.6
			v-3.2C1261.03,1264.69,1260.76,1264.42,1260.43,1264.42z"/>
		<path class="st2" d="M1260.43,1240.08h-3.16c-0.33,0-0.6,0.27-0.6,0.6v3.2c0,0.33,0.27,0.6,0.6,0.6h3.16c0.33,0,0.6-0.27,0.6-0.6
			v-3.2C1261.03,1240.35,1260.76,1240.08,1260.43,1240.08z"/>
		<path class="st2" d="M1260.43,1256.31h-3.16c-0.33,0-0.6,0.27-0.6,0.6v3.2c0,0.33,0.27,0.6,0.6,0.6h3.16c0.33,0,0.6-0.27,0.6-0.6
			v-3.2C1261.03,1256.58,1260.76,1256.31,1260.43,1256.31z"/>
		<path class="st2" d="M1260.43,1248.19h-3.16c-0.33,0-0.6,0.27-0.6,0.6v3.2c0,0.33,0.27,0.6,0.6,0.6h3.16c0.33,0,0.6-0.27,0.6-0.6
			v-3.2C1261.03,1248.46,1260.76,1248.19,1260.43,1248.19z"/>
		<path class="st2" d="M1195.32,1138.18c-0.09-0.05-0.2-0.08-0.3-0.08c-0.05,0-0.11,0.01-0.16,0.02c-0.16,0.04-0.29,0.14-0.37,0.28
			l-1.57,2.74c-0.17,0.29-0.07,0.66,0.22,0.82l2.77,1.6c0.09,0.05,0.2,0.08,0.3,0.08c0.21,0,0.41-0.11,0.52-0.3l1.58-2.73
			c0.08-0.14,0.1-0.3,0.06-0.46s-0.14-0.29-0.28-0.37L1195.32,1138.18z"/>
		<path class="st2" d="M1188.3,1134.12c-0.09-0.05-0.2-0.08-0.3-0.08c-0.05,0-0.11,0.01-0.16,0.02c-0.16,0.04-0.29,0.14-0.37,0.28
			l-1.57,2.74c-0.17,0.29-0.07,0.66,0.22,0.82l2.76,1.6c0.1,0.06,0.2,0.08,0.3,0.08c0.21,0,0.41-0.11,0.52-0.3l1.58-2.73
			c0.08-0.14,0.1-0.3,0.06-0.46c-0.04-0.16-0.14-0.29-0.28-0.37L1188.3,1134.12z"/>
		<path class="st2" d="M1209.38,1146.29c-0.09-0.05-0.2-0.08-0.3-0.08c-0.05,0-0.11,0.01-0.16,0.02c-0.16,0.04-0.29,0.14-0.37,0.28
			l-1.57,2.74c-0.17,0.29-0.07,0.66,0.22,0.83l2.77,1.6c0.1,0.06,0.2,0.08,0.3,0.08c0.21,0,0.41-0.11,0.52-0.3l1.58-2.73
			c0.08-0.14,0.1-0.3,0.06-0.46c-0.04-0.16-0.14-0.29-0.28-0.37L1209.38,1146.29z"/>
		<path class="st2" d="M1202.35,1142.23c-0.09-0.05-0.2-0.08-0.3-0.08c-0.05,0-0.11,0.01-0.16,0.02c-0.16,0.04-0.29,0.14-0.37,0.28
			l-1.57,2.74c-0.17,0.29-0.07,0.66,0.22,0.82l2.77,1.6c0.1,0.05,0.2,0.08,0.3,0.08c0.21,0,0.41-0.11,0.52-0.3l1.58-2.73
			c0.08-0.14,0.1-0.3,0.06-0.46c-0.04-0.16-0.14-0.29-0.28-0.37L1202.35,1142.23z"/>
		<path class="st2" d="M1181.27,1130.06c-0.09-0.05-0.2-0.08-0.3-0.08c-0.05,0-0.11,0.01-0.16,0.02c-0.16,0.04-0.29,0.14-0.37,0.28
			l-1.57,2.74c-0.17,0.29-0.07,0.66,0.22,0.82l2.76,1.6c0.1,0.06,0.2,0.08,0.3,0.08c0.21,0,0.41-0.11,0.52-0.3l1.58-2.73
			c0.08-0.14,0.1-0.3,0.06-0.46c-0.04-0.16-0.14-0.29-0.28-0.37L1181.27,1130.06z"/>
		<path class="st2" d="M1174.24,1126c-0.09-0.05-0.2-0.08-0.3-0.08c-0.05,0-0.11,0.01-0.16,0.02c-0.16,0.04-0.29,0.14-0.37,0.28
			l-1.57,2.74c-0.17,0.29-0.07,0.66,0.22,0.82l2.76,1.6c0.09,0.06,0.2,0.08,0.3,0.08c0.21,0,0.41-0.11,0.52-0.3l1.58-2.73
			c0.08-0.14,0.1-0.3,0.06-0.46c-0.04-0.16-0.14-0.29-0.28-0.37L1174.24,1126z"/>
		<path class="st2" d="M1167.21,1121.94c-0.09-0.05-0.2-0.08-0.3-0.08c-0.05,0-0.11,0.01-0.16,0.02c-0.15,0.04-0.29,0.14-0.37,0.28
			l-1.57,2.74c-0.17,0.29-0.07,0.66,0.22,0.82l2.77,1.6c0.09,0.06,0.2,0.08,0.3,0.08c0.21,0,0.41-0.11,0.52-0.3l1.58-2.73
			c0.08-0.14,0.1-0.3,0.06-0.46c-0.04-0.16-0.14-0.29-0.28-0.37L1167.21,1121.94z"/>
		<path class="st2" d="M1237.49,1162.52c-0.09-0.05-0.2-0.08-0.3-0.08c-0.05,0-0.11,0.01-0.16,0.02c-0.16,0.04-0.29,0.14-0.37,0.28
			l-1.57,2.74c-0.17,0.29-0.07,0.66,0.22,0.82l2.77,1.6c0.1,0.06,0.2,0.08,0.3,0.08c0.21,0,0.41-0.11,0.52-0.3l1.58-2.73
			c0.08-0.14,0.1-0.3,0.06-0.46c-0.04-0.16-0.14-0.29-0.28-0.37L1237.49,1162.52z"/>
		<path class="st2" d="M1244.52,1166.58c-0.09-0.05-0.2-0.08-0.3-0.08c-0.05,0-0.11,0.01-0.16,0.02c-0.16,0.04-0.29,0.14-0.37,0.28
			l-1.57,2.74c-0.17,0.29-0.07,0.66,0.22,0.82l2.77,1.6c0.1,0.06,0.2,0.08,0.3,0.08c0.21,0,0.41-0.11,0.52-0.3l1.58-2.73
			c0.08-0.14,0.1-0.3,0.06-0.46c-0.04-0.15-0.14-0.29-0.28-0.37L1244.52,1166.58z"/>
		<path class="st2" d="M1251.54,1170.64c-0.09-0.05-0.2-0.08-0.3-0.08c-0.05,0-0.11,0.01-0.16,0.02c-0.16,0.04-0.29,0.14-0.37,0.28
			l-1.57,2.74c-0.17,0.29-0.07,0.66,0.22,0.82l2.77,1.6c0.1,0.06,0.2,0.08,0.3,0.08c0.21,0,0.41-0.11,0.52-0.3l1.58-2.73
			c0.08-0.14,0.1-0.3,0.06-0.46c-0.04-0.16-0.14-0.29-0.28-0.37L1251.54,1170.64z"/>
		<path class="st2" d="M1216.41,1150.35c-0.09-0.05-0.2-0.08-0.3-0.08c-0.05,0-0.11,0.01-0.16,0.02c-0.16,0.04-0.29,0.14-0.37,0.28
			l-1.57,2.74c-0.17,0.29-0.07,0.66,0.22,0.82l2.77,1.6c0.1,0.05,0.2,0.08,0.3,0.08c0.21,0,0.41-0.11,0.52-0.3l1.58-2.73
			c0.08-0.14,0.1-0.3,0.06-0.46c-0.04-0.16-0.14-0.29-0.28-0.37L1216.41,1150.35z"/>
		<path class="st2" d="M1230.46,1158.47c-0.09-0.05-0.2-0.08-0.3-0.08c-0.05,0-0.11,0.01-0.16,0.02c-0.16,0.04-0.29,0.14-0.37,0.28
			l-1.57,2.74c-0.17,0.29-0.07,0.66,0.22,0.82l2.77,1.6c0.1,0.05,0.2,0.08,0.3,0.08c0.21,0,0.41-0.11,0.52-0.3l1.58-2.73
			c0.08-0.14,0.1-0.3,0.06-0.46c-0.04-0.16-0.14-0.29-0.28-0.37L1230.46,1158.47z"/>
		<path class="st2" d="M1223.43,1154.41c-0.09-0.05-0.2-0.08-0.3-0.08c-0.05,0-0.11,0.01-0.16,0.02c-0.16,0.04-0.29,0.14-0.37,0.28
			l-1.57,2.74c-0.17,0.29-0.07,0.66,0.22,0.82l2.77,1.6c0.1,0.05,0.2,0.08,0.3,0.08c0.21,0,0.41-0.11,0.52-0.3l1.58-2.73
			c0.08-0.14,0.1-0.3,0.06-0.46c-0.04-0.16-0.14-0.29-0.28-0.37L1223.43,1154.41z"/>
		<path class="st2" d="M1091.36,1158.69c-0.11-0.19-0.32-0.3-0.52-0.3c-0.1,0-0.21,0.03-0.3,0.08l-2.77,1.6
			c-0.29,0.17-0.39,0.54-0.22,0.82l1.57,2.74c0.08,0.14,0.21,0.24,0.37,0.28c0.05,0.01,0.1,0.02,0.16,0.02
			c0.11,0,0.21-0.03,0.3-0.08l2.78-1.6c0.14-0.08,0.24-0.21,0.28-0.37c0.04-0.15,0.02-0.32-0.06-0.46L1091.36,1158.69z"/>
		<path class="st2" d="M1070.27,1170.86c-0.11-0.19-0.32-0.3-0.52-0.3c-0.1,0-0.21,0.03-0.3,0.08l-2.77,1.6
			c-0.29,0.17-0.39,0.54-0.22,0.82l1.57,2.74c0.08,0.14,0.21,0.24,0.37,0.28c0.05,0.01,0.1,0.02,0.16,0.02
			c0.11,0,0.21-0.03,0.3-0.08l2.78-1.6c0.14-0.08,0.24-0.21,0.28-0.37c0.04-0.16,0.02-0.32-0.06-0.46L1070.27,1170.86z"/>
		<path class="st2" d="M1098.39,1154.63c-0.11-0.19-0.32-0.3-0.52-0.3c-0.1,0-0.21,0.03-0.3,0.08l-2.77,1.6
			c-0.29,0.17-0.39,0.54-0.22,0.82l1.57,2.74c0.08,0.14,0.21,0.24,0.37,0.28c0.05,0.01,0.1,0.02,0.16,0.02
			c0.11,0,0.21-0.03,0.3-0.08l2.78-1.6c0.14-0.08,0.24-0.21,0.28-0.37c0.04-0.16,0.02-0.32-0.06-0.46L1098.39,1154.63z"/>
		<path class="st2" d="M1084.33,1162.75c-0.11-0.19-0.32-0.3-0.52-0.3c-0.1,0-0.21,0.03-0.3,0.08l-2.77,1.6
			c-0.29,0.17-0.39,0.54-0.22,0.82l1.57,2.74c0.08,0.14,0.21,0.24,0.37,0.28c0.05,0.01,0.1,0.02,0.16,0.02
			c0.11,0,0.21-0.03,0.3-0.08l2.78-1.6c0.14-0.08,0.24-0.21,0.28-0.37c0.04-0.16,0.02-0.32-0.06-0.46L1084.33,1162.75z"/>
		<path class="st2" d="M1112.44,1146.52c-0.11-0.19-0.32-0.3-0.52-0.3c-0.1,0-0.21,0.03-0.3,0.08l-2.77,1.6
			c-0.29,0.17-0.39,0.54-0.22,0.83l1.57,2.74c0.08,0.14,0.21,0.24,0.37,0.28c0.05,0.01,0.1,0.02,0.16,0.02
			c0.11,0,0.21-0.03,0.3-0.08l2.78-1.6c0.14-0.08,0.24-0.21,0.28-0.37c0.04-0.16,0.02-0.32-0.06-0.46L1112.44,1146.52z"/>
		<path class="st2" d="M1077.3,1166.8c-0.11-0.19-0.32-0.3-0.52-0.3c-0.1,0-0.21,0.03-0.3,0.08l-2.77,1.6
			c-0.29,0.17-0.39,0.54-0.22,0.82l1.57,2.74c0.08,0.14,0.21,0.24,0.37,0.28c0.05,0.01,0.1,0.02,0.16,0.02
			c0.11,0,0.21-0.03,0.3-0.08l2.78-1.6c0.14-0.08,0.24-0.21,0.28-0.37c0.04-0.16,0.02-0.32-0.06-0.46L1077.3,1166.8z"/>
		<path class="st2" d="M1147.58,1126.22c-0.11-0.19-0.32-0.3-0.52-0.3c-0.1,0-0.21,0.03-0.3,0.08l-2.76,1.6
			c-0.29,0.17-0.39,0.54-0.22,0.82l1.57,2.74c0.08,0.14,0.21,0.24,0.37,0.28c0.05,0.01,0.1,0.02,0.16,0.02
			c0.11,0,0.21-0.03,0.3-0.08l2.78-1.6c0.14-0.08,0.24-0.21,0.28-0.37c0.04-0.16,0.02-0.32-0.06-0.46L1147.58,1126.22z"/>
		<path class="st2" d="M1154.61,1122.17c-0.11-0.19-0.32-0.3-0.52-0.3c-0.1,0-0.21,0.03-0.3,0.08l-2.76,1.6
			c-0.29,0.17-0.39,0.54-0.22,0.82l1.57,2.74c0.08,0.14,0.21,0.24,0.37,0.28c0.05,0.01,0.1,0.02,0.16,0.02
			c0.11,0,0.21-0.03,0.3-0.08l2.78-1.6c0.14-0.08,0.24-0.21,0.28-0.37c0.04-0.16,0.02-0.32-0.06-0.46L1154.61,1122.17z"/>
		<path class="st2" d="M1119.47,1142.46c-0.11-0.19-0.32-0.3-0.52-0.3c-0.1,0-0.21,0.03-0.3,0.08l-2.76,1.6
			c-0.29,0.17-0.39,0.54-0.22,0.82l1.57,2.74c0.08,0.14,0.21,0.24,0.37,0.28c0.05,0.01,0.1,0.02,0.16,0.02
			c0.11,0,0.21-0.03,0.3-0.08l2.78-1.6c0.14-0.08,0.24-0.21,0.28-0.37c0.04-0.16,0.02-0.32-0.06-0.46L1119.47,1142.46z"/>
		<path class="st2" d="M1140.55,1130.28c-0.11-0.19-0.32-0.3-0.52-0.3c-0.1,0-0.21,0.03-0.3,0.08l-2.77,1.6
			c-0.29,0.17-0.39,0.54-0.22,0.82l1.57,2.74c0.08,0.14,0.21,0.24,0.37,0.28c0.05,0.01,0.1,0.02,0.16,0.02
			c0.11,0,0.21-0.03,0.3-0.08l2.78-1.6c0.14-0.08,0.24-0.21,0.28-0.37c0.04-0.16,0.02-0.32-0.06-0.46L1140.55,1130.28z"/>
		<path class="st2" d="M1126.5,1138.4c-0.11-0.19-0.32-0.3-0.52-0.3c-0.1,0-0.21,0.03-0.3,0.08l-2.77,1.6
			c-0.29,0.17-0.39,0.54-0.22,0.82l1.57,2.74c0.08,0.14,0.21,0.24,0.37,0.28c0.05,0.01,0.1,0.02,0.16,0.02
			c0.11,0,0.21-0.03,0.3-0.08l2.78-1.6c0.14-0.08,0.24-0.21,0.28-0.37c0.04-0.16,0.02-0.32-0.06-0.46L1126.5,1138.4z"/>
		<path class="st2" d="M1133.53,1134.34c-0.11-0.19-0.32-0.3-0.52-0.3c-0.1,0-0.21,0.03-0.3,0.08l-2.76,1.6
			c-0.29,0.17-0.39,0.54-0.22,0.82l1.57,2.74c0.08,0.14,0.21,0.24,0.37,0.28c0.05,0.01,0.1,0.02,0.16,0.02
			c0.11,0,0.21-0.03,0.3-0.08l2.78-1.6c0.14-0.08,0.24-0.21,0.28-0.37c0.04-0.16,0.02-0.32-0.06-0.46L1133.53,1134.34z"/>
		<path class="st2" d="M1105.41,1150.57c-0.11-0.19-0.32-0.3-0.52-0.3c-0.1,0-0.21,0.03-0.3,0.08l-2.76,1.6
			c-0.29,0.17-0.39,0.54-0.22,0.82l1.57,2.74c0.08,0.14,0.21,0.24,0.37,0.28c0.05,0.01,0.1,0.02,0.16,0.02
			c0.11,0,0.21-0.03,0.3-0.08l2.78-1.6c0.14-0.08,0.24-0.21,0.28-0.37c0.04-0.16,0.02-0.32-0.06-0.46L1105.41,1150.57z"/>
		<path class="st2" d="M1063.73,1248.19h-3.16c-0.33,0-0.6,0.27-0.6,0.6v3.2c0,0.33,0.27,0.6,0.6,0.6h3.16c0.33,0,0.6-0.27,0.6-0.6
			v-3.2C1064.33,1248.46,1064.06,1248.19,1063.73,1248.19z"/>
		<path class="st2" d="M1063.73,1240.08h-3.16c-0.33,0-0.6,0.27-0.6,0.6v3.2c0,0.33,0.27,0.6,0.6,0.6h3.16c0.33,0,0.6-0.27,0.6-0.6
			v-3.2C1064.33,1240.35,1064.06,1240.08,1063.73,1240.08z"/>
		<path class="st2" d="M1063.73,1256.31h-3.16c-0.33,0-0.6,0.27-0.6,0.6v3.2c0,0.33,0.27,0.6,0.6,0.6h3.16c0.33,0,0.6-0.27,0.6-0.6
			v-3.2C1064.33,1256.58,1064.06,1256.31,1063.73,1256.31z"/>
		<path class="st2" d="M1063.73,1264.42h-3.16c-0.33,0-0.6,0.27-0.6,0.6v3.2c0,0.33,0.27,0.6,0.6,0.6h3.16c0.33,0,0.6-0.27,0.6-0.6
			v-3.2C1064.33,1264.69,1064.06,1264.42,1063.73,1264.42z"/>
		<path class="st2" d="M1063.73,1280.65h-3.16c-0.33,0-0.6,0.27-0.6,0.6v3.2c0,0.33,0.27,0.6,0.6,0.6h3.16c0.33,0,0.6-0.27,0.6-0.6
			v-3.2C1064.33,1280.93,1064.06,1280.65,1063.73,1280.65z"/>
		<path class="st2" d="M1063.73,1272.54h-3.16c-0.33,0-0.6,0.27-0.6,0.6v3.2c0,0.33,0.27,0.6,0.6,0.6h3.16c0.33,0,0.6-0.27,0.6-0.6
			v-3.2C1064.33,1272.81,1064.06,1272.54,1063.73,1272.54z"/>
		<path class="st2" d="M1063.73,1223.84h-3.16c-0.33,0-0.6,0.27-0.6,0.6v3.2c0,0.33,0.27,0.6,0.6,0.6h3.16c0.33,0,0.6-0.27,0.6-0.6
			v-3.2C1064.33,1224.11,1064.06,1223.84,1063.73,1223.84z"/>
		<path class="st2" d="M1063.73,1199.5h-3.16c-0.33,0-0.6,0.27-0.6,0.6v3.2c0,0.33,0.27,0.6,0.6,0.6h3.16c0.33,0,0.6-0.27,0.6-0.6
			v-3.2C1064.33,1199.77,1064.06,1199.5,1063.73,1199.5z"/>
		<path class="st2" d="M1063.73,1191.38h-3.16c-0.33,0-0.6,0.27-0.6,0.6v3.2c0,0.33,0.27,0.6,0.6,0.6h3.16c0.33,0,0.6-0.27,0.6-0.6
			v-3.2C1064.33,1191.65,1064.06,1191.38,1063.73,1191.38z"/>
		<path class="st2" d="M1063.73,1231.96h-3.16c-0.33,0-0.6,0.27-0.6,0.6v3.2c0,0.33,0.27,0.6,0.6,0.6h3.16c0.33,0,0.6-0.27,0.6-0.6
			v-3.2C1064.33,1232.23,1064.06,1231.96,1063.73,1231.96z"/>
		<path class="st2" d="M1063.73,1183.27h-3.16c-0.33,0-0.6,0.27-0.6,0.6v3.2c0,0.33,0.27,0.6,0.6,0.6h3.16c0.33,0,0.6-0.27,0.6-0.6
			v-3.2C1064.33,1183.54,1064.06,1183.27,1063.73,1183.27z"/>
		<path class="st2" d="M1063.73,1215.73h-3.16c-0.33,0-0.6,0.27-0.6,0.6v3.2c0,0.33,0.27,0.6,0.6,0.6h3.16c0.33,0,0.6-0.27,0.6-0.6
			v-3.2C1064.33,1216,1064.06,1215.73,1063.73,1215.73z"/>
		<path class="st2" d="M1063.73,1207.61h-3.16c-0.33,0-0.6,0.27-0.6,0.6v3.2c0,0.33,0.27,0.6,0.6,0.6h3.16c0.33,0,0.6-0.27,0.6-0.6
			v-3.2C1064.33,1207.88,1064.06,1207.61,1063.73,1207.61z"/>
		<path class="st2" d="M1125.09,1324.77c-0.09-0.06-0.2-0.08-0.3-0.08c-0.21,0-0.41,0.11-0.52,0.3l-1.58,2.73
			c-0.08,0.14-0.1,0.3-0.06,0.46c0.04,0.16,0.14,0.29,0.28,0.37l2.78,1.6c0.09,0.05,0.2,0.08,0.3,0.08c0.05,0,0.11-0.01,0.16-0.02
			c0.16-0.04,0.29-0.14,0.37-0.28l1.57-2.74c0.17-0.29,0.07-0.66-0.22-0.82L1125.09,1324.77z"/>
		<path class="st2" d="M1132.12,1328.83c-0.1-0.06-0.2-0.08-0.3-0.08c-0.21,0-0.41,0.11-0.52,0.3l-1.58,2.73
			c-0.08,0.14-0.1,0.3-0.06,0.46c0.04,0.16,0.14,0.29,0.28,0.37l2.78,1.6c0.09,0.05,0.2,0.08,0.3,0.08c0.05,0,0.11-0.01,0.16-0.02
			c0.16-0.04,0.29-0.14,0.37-0.28l1.57-2.74c0.17-0.29,0.07-0.66-0.22-0.82L1132.12,1328.83z"/>
		<path class="st2" d="M1111.03,1316.66c-0.1-0.06-0.2-0.08-0.3-0.08c-0.21,0-0.41,0.11-0.52,0.3l-1.58,2.73
			c-0.08,0.14-0.1,0.3-0.06,0.46c0.04,0.16,0.14,0.29,0.28,0.37l2.78,1.6c0.09,0.05,0.2,0.08,0.3,0.08c0.05,0,0.11-0.01,0.16-0.02
			c0.16-0.04,0.29-0.14,0.37-0.28l1.57-2.74c0.17-0.29,0.07-0.66-0.22-0.82L1111.03,1316.66z"/>
		<path class="st2" d="M1153.2,1341c-0.1-0.06-0.2-0.08-0.3-0.08c-0.21,0-0.41,0.11-0.52,0.3l-1.58,2.73
			c-0.08,0.14-0.1,0.3-0.06,0.46c0.04,0.16,0.14,0.29,0.28,0.37l2.78,1.6c0.09,0.05,0.2,0.08,0.3,0.08c0.05,0,0.11-0.01,0.16-0.02
			c0.15-0.04,0.29-0.14,0.37-0.28l1.57-2.74c0.17-0.29,0.07-0.66-0.22-0.82L1153.2,1341z"/>
		<path class="st2" d="M1139.14,1332.89c-0.1-0.06-0.2-0.08-0.3-0.08c-0.21,0-0.41,0.11-0.52,0.3l-1.58,2.73
			c-0.08,0.14-0.1,0.3-0.06,0.46c0.04,0.15,0.14,0.29,0.28,0.37l2.78,1.6c0.09,0.05,0.2,0.08,0.3,0.08c0.05,0,0.11-0.01,0.16-0.02
			c0.16-0.04,0.29-0.14,0.37-0.28l1.57-2.74c0.17-0.29,0.07-0.66-0.22-0.82L1139.14,1332.89z"/>
		<path class="st2" d="M1146.17,1336.95c-0.1-0.06-0.2-0.08-0.3-0.08c-0.21,0-0.41,0.11-0.52,0.3l-1.58,2.73
			c-0.08,0.14-0.1,0.3-0.06,0.46c0.04,0.15,0.14,0.29,0.28,0.37l2.78,1.6c0.09,0.05,0.2,0.08,0.3,0.08c0.05,0,0.11-0.01,0.16-0.02
			c0.16-0.04,0.29-0.14,0.37-0.28l1.57-2.74c0.17-0.29,0.07-0.66-0.22-0.82L1146.17,1336.95z"/>
		<path class="st2" d="M1118.06,1320.71c-0.1-0.06-0.2-0.08-0.3-0.08c-0.21,0-0.41,0.11-0.52,0.3l-1.58,2.73
			c-0.08,0.14-0.1,0.3-0.06,0.46c0.04,0.16,0.14,0.29,0.28,0.37l2.78,1.6c0.09,0.05,0.2,0.08,0.3,0.08c0.05,0,0.11-0.01,0.16-0.02
			c0.16-0.04,0.29-0.14,0.37-0.28l1.57-2.74c0.17-0.29,0.07-0.66-0.22-0.82L1118.06,1320.71z"/>
		<path class="st2" d="M1075.89,1296.37c-0.1-0.06-0.2-0.08-0.3-0.08c-0.21,0-0.41,0.11-0.52,0.3l-1.58,2.73
			c-0.08,0.14-0.1,0.3-0.06,0.46c0.04,0.16,0.14,0.29,0.28,0.37l2.78,1.6c0.09,0.05,0.2,0.08,0.3,0.08c0.05,0,0.11-0.01,0.16-0.02
			c0.16-0.04,0.29-0.14,0.37-0.28l1.57-2.74c0.17-0.29,0.07-0.66-0.22-0.82L1075.89,1296.37z"/>
		<path class="st2" d="M1068.86,1292.31c-0.1-0.06-0.2-0.08-0.3-0.08c-0.21,0-0.41,0.11-0.52,0.3l-1.58,2.73
			c-0.08,0.14-0.1,0.3-0.06,0.46c0.04,0.16,0.14,0.29,0.28,0.37l2.78,1.6c0.09,0.05,0.2,0.08,0.3,0.08c0.05,0,0.11-0.01,0.16-0.02
			c0.16-0.04,0.29-0.14,0.37-0.28l1.57-2.74c0.17-0.29,0.07-0.66-0.22-0.82L1068.86,1292.31z"/>
		<path class="st2" d="M1104,1312.6c-0.09-0.06-0.2-0.08-0.3-0.08c-0.21,0-0.41,0.11-0.52,0.3l-1.58,2.73
			c-0.08,0.14-0.1,0.3-0.06,0.46c0.04,0.16,0.14,0.29,0.28,0.37l2.78,1.6c0.09,0.05,0.2,0.08,0.3,0.08c0.05,0,0.11-0.01,0.16-0.02
			c0.16-0.04,0.29-0.14,0.37-0.28l1.57-2.74c0.17-0.29,0.07-0.66-0.22-0.82L1104,1312.6z"/>
		<path class="st2" d="M1082.92,1300.43c-0.1-0.06-0.2-0.08-0.3-0.08c-0.21,0-0.41,0.11-0.52,0.3l-1.58,2.73
			c-0.08,0.14-0.1,0.3-0.06,0.46c0.04,0.16,0.14,0.29,0.28,0.37l2.78,1.6c0.09,0.05,0.2,0.08,0.3,0.08c0.05,0,0.11-0.01,0.16-0.02
			c0.16-0.04,0.29-0.14,0.37-0.28l1.57-2.74c0.17-0.29,0.07-0.66-0.22-0.82L1082.92,1300.43z"/>
		<path class="st2" d="M1096.98,1308.54c-0.1-0.06-0.2-0.08-0.3-0.08c-0.21,0-0.41,0.11-0.52,0.3l-1.58,2.73
			c-0.08,0.14-0.1,0.3-0.06,0.46c0.04,0.16,0.14,0.29,0.28,0.37l2.78,1.6c0.09,0.05,0.2,0.08,0.3,0.08c0.05,0,0.11-0.01,0.16-0.02
			c0.16-0.04,0.29-0.14,0.37-0.28l1.57-2.74c0.17-0.29,0.07-0.66-0.22-0.82L1096.98,1308.54z"/>
		<path class="st2" d="M1089.95,1304.48c-0.09-0.06-0.2-0.08-0.3-0.08c-0.21,0-0.41,0.11-0.52,0.3l-1.58,2.73
			c-0.08,0.14-0.1,0.3-0.06,0.46c0.04,0.16,0.14,0.29,0.28,0.37l2.78,1.6c0.09,0.05,0.2,0.08,0.3,0.08c0.05,0,0.11-0.01,0.16-0.02
			c0.16-0.04,0.29-0.14,0.37-0.28l1.57-2.74c0.17-0.29,0.07-0.66-0.22-0.82L1089.95,1304.48z"/>
		<path class="st2" d="M1161.6,1345.28c-0.08-0.14-0.21-0.24-0.37-0.28c-0.05-0.01-0.1-0.02-0.16-0.02c-0.11,0-0.21,0.03-0.3,0.08
			l-0.28,0.16l-0.28-0.16c-0.09-0.05-0.2-0.08-0.3-0.08c-0.05,0-0.11,0.01-0.16,0.02c-0.16,0.04-0.29,0.14-0.37,0.28l-1.57,2.74
			c-0.17,0.29-0.07,0.66,0.22,0.82l2.15,1.24c0.09,0.05,0.2,0.08,0.3,0.08c0.1,0,0.21-0.03,0.3-0.08l2.15-1.24
			c0.29-0.17,0.39-0.54,0.22-0.82L1161.6,1345.28z"/>
		<path class="st2" d="M1231.88,1304.7c-0.08-0.14-0.21-0.24-0.37-0.28c-0.05-0.01-0.1-0.02-0.16-0.02c-0.11,0-0.21,0.03-0.3,0.08
			l-2.78,1.6c-0.14,0.08-0.24,0.21-0.28,0.37c-0.04,0.16-0.02,0.32,0.06,0.46l1.58,2.73c0.11,0.19,0.32,0.3,0.52,0.3
			c0.1,0,0.21-0.03,0.3-0.08l2.77-1.6c0.29-0.17,0.39-0.54,0.22-0.82L1231.88,1304.7z"/>
		<path class="st2" d="M1224.85,1308.76c-0.08-0.14-0.21-0.24-0.37-0.28c-0.05-0.01-0.1-0.02-0.16-0.02c-0.11,0-0.21,0.03-0.3,0.08
			l-2.78,1.6c-0.14,0.08-0.24,0.21-0.28,0.37c-0.04,0.16-0.02,0.32,0.06,0.46l1.58,2.73c0.11,0.19,0.32,0.3,0.52,0.3
			c0.1,0,0.21-0.03,0.3-0.08l2.77-1.6c0.29-0.17,0.39-0.54,0.22-0.82L1224.85,1308.76z"/>
		<path class="st2" d="M1238.91,1300.65c-0.08-0.14-0.21-0.24-0.37-0.28c-0.05-0.01-0.1-0.02-0.16-0.02c-0.11,0-0.21,0.03-0.3,0.08
			l-2.78,1.6c-0.14,0.08-0.24,0.21-0.28,0.37c-0.04,0.16-0.02,0.32,0.06,0.46l1.58,2.73c0.11,0.19,0.32,0.3,0.52,0.3
			c0.1,0,0.21-0.03,0.3-0.08l2.76-1.6c0.29-0.17,0.39-0.54,0.22-0.82L1238.91,1300.65z"/>
		<path class="st2" d="M1245.94,1296.59c-0.08-0.14-0.21-0.24-0.37-0.28c-0.05-0.01-0.1-0.02-0.16-0.02c-0.11,0-0.21,0.03-0.3,0.08
			l-2.78,1.6c-0.14,0.08-0.24,0.21-0.28,0.37c-0.04,0.16-0.02,0.32,0.06,0.46l1.58,2.73c0.11,0.19,0.32,0.3,0.52,0.3
			c0.1,0,0.21-0.03,0.3-0.08l2.77-1.6c0.29-0.17,0.39-0.54,0.22-0.82L1245.94,1296.59z"/>
		<path class="st2" d="M1217.83,1312.82c-0.08-0.14-0.21-0.24-0.37-0.28c-0.05-0.01-0.1-0.02-0.16-0.02c-0.11,0-0.21,0.03-0.3,0.08
			l-2.78,1.6c-0.14,0.08-0.24,0.21-0.28,0.37c-0.04,0.16-0.02,0.32,0.06,0.46l1.58,2.73c0.11,0.19,0.32,0.3,0.52,0.3
			c0.1,0,0.21-0.03,0.3-0.08l2.77-1.6c0.29-0.17,0.39-0.54,0.22-0.82L1217.83,1312.82z"/>
		<path class="st2" d="M1252.97,1292.53c-0.08-0.14-0.21-0.24-0.37-0.28c-0.05-0.01-0.1-0.02-0.16-0.02c-0.11,0-0.21,0.03-0.3,0.08
			l-2.78,1.6c-0.14,0.08-0.24,0.21-0.28,0.37c-0.04,0.16-0.02,0.32,0.06,0.46l1.58,2.73c0.11,0.19,0.32,0.3,0.52,0.3
			c0.1,0,0.21-0.03,0.3-0.08l2.77-1.6c0.29-0.17,0.39-0.54,0.22-0.82L1252.97,1292.53z"/>
		<path class="st2" d="M1168.63,1341.22c-0.08-0.14-0.21-0.24-0.37-0.28c-0.05-0.01-0.1-0.02-0.16-0.02c-0.11,0-0.21,0.03-0.3,0.08
			l-2.78,1.6c-0.14,0.08-0.24,0.21-0.28,0.37c-0.04,0.15-0.02,0.32,0.06,0.46l1.58,2.73c0.11,0.19,0.32,0.3,0.52,0.3
			c0.1,0,0.21-0.03,0.3-0.08l2.77-1.6c0.29-0.17,0.39-0.54,0.22-0.82L1168.63,1341.22z"/>
		<path class="st2" d="M1182.69,1333.11c-0.08-0.14-0.21-0.24-0.37-0.28c-0.05-0.01-0.1-0.02-0.16-0.02c-0.11,0-0.21,0.03-0.3,0.08
			l-2.78,1.6c-0.14,0.08-0.24,0.21-0.28,0.37c-0.04,0.16-0.02,0.32,0.06,0.46l1.58,2.73c0.11,0.19,0.32,0.3,0.52,0.3
			c0.1,0,0.21-0.03,0.3-0.08l2.76-1.6c0.29-0.17,0.39-0.54,0.22-0.82L1182.69,1333.11z"/>
		<path class="st2" d="M1175.66,1337.16c-0.08-0.14-0.21-0.24-0.37-0.28c-0.05-0.01-0.1-0.02-0.16-0.02c-0.11,0-0.21,0.03-0.3,0.08
			l-2.78,1.6c-0.14,0.08-0.24,0.21-0.28,0.37c-0.04,0.16-0.02,0.32,0.06,0.46l1.58,2.73c0.11,0.19,0.32,0.3,0.52,0.3
			c0.1,0,0.21-0.03,0.3-0.08l2.77-1.6c0.29-0.17,0.39-0.54,0.22-0.82L1175.66,1337.16z"/>
		<path class="st2" d="M1189.72,1329.05c-0.08-0.14-0.21-0.24-0.37-0.28c-0.05-0.01-0.1-0.02-0.16-0.02c-0.11,0-0.21,0.03-0.3,0.08
			l-2.78,1.6c-0.14,0.08-0.24,0.21-0.28,0.37c-0.04,0.16-0.02,0.32,0.06,0.46l1.58,2.73c0.11,0.19,0.32,0.3,0.52,0.3
			c0.1,0,0.21-0.03,0.3-0.08l2.76-1.6c0.29-0.17,0.39-0.54,0.22-0.82L1189.72,1329.05z"/>
		<path class="st2" d="M1196.74,1324.99c-0.08-0.14-0.21-0.24-0.37-0.28c-0.05-0.01-0.1-0.02-0.16-0.02c-0.11,0-0.21,0.03-0.3,0.08
			l-2.78,1.6c-0.14,0.08-0.24,0.21-0.28,0.37c-0.04,0.16-0.02,0.32,0.06,0.46l1.58,2.73c0.11,0.19,0.32,0.3,0.52,0.3
			c0.1,0,0.21-0.03,0.3-0.08l2.77-1.6c0.29-0.17,0.39-0.54,0.22-0.82L1196.74,1324.99z"/>
		<path class="st2" d="M1203.77,1320.93c-0.08-0.14-0.21-0.24-0.37-0.28c-0.05-0.01-0.1-0.02-0.16-0.02c-0.11,0-0.21,0.03-0.3,0.08
			l-2.78,1.6c-0.14,0.08-0.24,0.21-0.28,0.37c-0.04,0.16-0.02,0.32,0.06,0.46l1.58,2.73c0.11,0.19,0.32,0.3,0.52,0.3
			c0.1,0,0.21-0.03,0.3-0.08l2.76-1.6c0.29-0.17,0.39-0.54,0.22-0.82L1203.77,1320.93z"/>
		<path class="st2" d="M1210.8,1316.88c-0.08-0.14-0.21-0.24-0.37-0.28c-0.05-0.01-0.1-0.02-0.16-0.02c-0.11,0-0.21,0.03-0.3,0.08
			l-2.78,1.6c-0.14,0.08-0.24,0.21-0.28,0.37c-0.04,0.16-0.02,0.32,0.06,0.46l1.58,2.73c0.11,0.19,0.32,0.3,0.52,0.3
			c0.1,0,0.21-0.03,0.3-0.08l2.76-1.6c0.29-0.17,0.39-0.54,0.22-0.82L1210.8,1316.88z"/>
		<path class="st2" d="M1064.25,1176.65l-0.99-1.73c-0.08-0.14-0.21-0.24-0.37-0.28c-0.05-0.01-0.1-0.02-0.16-0.02
			c-0.11,0-0.21,0.03-0.3,0.08l-2.16,1.25c-0.19,0.11-0.3,0.31-0.3,0.52v2.49c0,0.33,0.27,0.6,0.6,0.6h3.16c0.33,0,0.6-0.27,0.6-0.6
			v-0.67l0-1.34C1064.33,1176.85,1064.3,1176.74,1064.25,1176.65z"/>
		<path class="st2" d="M1257.27,1179.56h3.16c0.33,0,0.6-0.27,0.6-0.6v-2.49c0-0.22-0.12-0.42-0.3-0.52l-2.16-1.25
			c-0.09-0.05-0.2-0.08-0.3-0.08c-0.05,0-0.11,0.01-0.16,0.02c-0.16,0.04-0.29,0.14-0.37,0.28l-0.99,1.73
			c-0.05,0.09-0.08,0.2-0.08,0.3l0,1.34v0.67C1256.67,1179.29,1256.94,1179.56,1257.27,1179.56z"/>
	</g>
</g>
<g>
	<g>
		<path class="st2" d="M372.5,222.63c-27.21,0-49.35-22.14-49.35-49.35s22.14-49.35,49.35-49.35c27.21,0,49.35,22.14,49.35,49.35
			S399.71,222.63,372.5,222.63z"/>
	</g>
	<g>
		<path class="st2" d="M467.61,226.69l-0.63-1.1L374.23,64.94l-0.63-1.1l-1.1-1.9l-1.1,1.9l-0.64,1.1l-92.74,160.65l-0.63,1.1
			l-1.1,1.91h2.2h1.27h185.49h1.26h2.2L467.61,226.69z M389.75,225.59c-58.88,0,26.59,0-34.63,0h-73.63l36.78-63.71
			c23.28-40.32-11.07,19.18,17.38-30.1l36.85-63.84l36.77,63.7c4.84,8.38,7.6,13.17,9.1,15.76c0.02,0.03,0.04,0.08,0.07,0.11
			c0,0.01,0.01,0.01,0.01,0.02v0c0.06,0.11,0.14,0.24,0.23,0.4c-0.01-0.01-0.01-0.03-0.02-0.04c0.54,0.94,0.88,1.53,1.08,1.87
			c-0.13-0.22-0.3-0.51-0.48-0.83c1.15,1.99,3.38,5.85,7.42,12.86l36.83,63.79H389.75z"/>
	</g>
	<text transform="matrix(1 0 0 1 54.4684 241.773)" class="st2 st3 st4">M</text>
	<g>
		<text transform="matrix(1 0 0 1 488.1832 245.5513)" class="st2 st3 st4 st5">lecula</text>
	</g>
	<g>
		<path class="st2" d="M472.43,154.67h-3.16c-0.33,0-0.6,0.27-0.6,0.6v3.2c0,0.33,0.27,0.6,0.6,0.6h3.16c0.33,0,0.6-0.27,0.6-0.6
			v-3.2C473.03,154.94,472.76,154.67,472.43,154.67z"/>
		<path class="st2" d="M472.43,170.9h-3.16c-0.33,0-0.6,0.27-0.6,0.6v3.2c0,0.33,0.27,0.6,0.6,0.6h3.16c0.33,0,0.6-0.27,0.6-0.6
			v-3.2C473.03,171.17,472.76,170.9,472.43,170.9z"/>
		<path class="st2" d="M472.43,146.55h-3.16c-0.33,0-0.6,0.27-0.6,0.6v3.2c0,0.33,0.27,0.6,0.6,0.6h3.16c0.33,0,0.6-0.27,0.6-0.6
			v-3.2C473.03,146.82,472.76,146.55,472.43,146.55z"/>
		<path class="st2" d="M472.43,162.78h-3.16c-0.33,0-0.6,0.27-0.6,0.6v3.2c0,0.33,0.27,0.6,0.6,0.6h3.16c0.33,0,0.6-0.27,0.6-0.6
			v-3.2C473.03,163.05,472.76,162.78,472.43,162.78z"/>
		<path class="st2" d="M472.43,130.32h-3.16c-0.33,0-0.6,0.27-0.6,0.6v3.2c0,0.33,0.27,0.6,0.6,0.6h3.16c0.33,0,0.6-0.27,0.6-0.6
			v-3.2C473.03,130.59,472.76,130.32,472.43,130.32z"/>
		<path class="st2" d="M472.43,122.21h-3.16c-0.33,0-0.6,0.27-0.6,0.6v3.2c0,0.33,0.27,0.6,0.6,0.6h3.16c0.33,0,0.6-0.27,0.6-0.6
			v-3.2C473.03,122.48,472.76,122.21,472.43,122.21z"/>
		<path class="st2" d="M472.43,138.44h-3.16c-0.33,0-0.6,0.27-0.6,0.6v3.2c0,0.33,0.27,0.6,0.6,0.6h3.16c0.33,0,0.6-0.27,0.6-0.6
			v-3.2C473.03,138.71,472.76,138.44,472.43,138.44z"/>
		<path class="st2" d="M472.43,219.6h-3.16c-0.33,0-0.6,0.27-0.6,0.6v3.2c0,0.33,0.27,0.6,0.6,0.6h3.16c0.33,0,0.6-0.27,0.6-0.6
			v-3.2C473.03,219.87,472.76,219.6,472.43,219.6z"/>
		<path class="st2" d="M472.43,211.48h-3.16c-0.33,0-0.6,0.27-0.6,0.6v3.2c0,0.33,0.27,0.6,0.6,0.6h3.16c0.33,0,0.6-0.27,0.6-0.6
			v-3.2C473.03,211.75,472.76,211.48,472.43,211.48z"/>
		<path class="st2" d="M472.43,203.36h-3.16c-0.33,0-0.6,0.27-0.6,0.6v3.2c0,0.33,0.27,0.6,0.6,0.6h3.16c0.33,0,0.6-0.27,0.6-0.6
			v-3.2C473.03,203.63,472.76,203.36,472.43,203.36z"/>
		<path class="st2" d="M472.43,179.02h-3.16c-0.33,0-0.6,0.27-0.6,0.6v3.2c0,0.33,0.27,0.6,0.6,0.6h3.16c0.33,0,0.6-0.27,0.6-0.6
			v-3.2C473.03,179.29,472.76,179.02,472.43,179.02z"/>
		<path class="st2" d="M472.43,195.25h-3.16c-0.33,0-0.6,0.27-0.6,0.6v3.2c0,0.33,0.27,0.6,0.6,0.6h3.16c0.33,0,0.6-0.27,0.6-0.6
			v-3.2C473.03,195.52,472.76,195.25,472.43,195.25z"/>
		<path class="st2" d="M472.43,187.13h-3.16c-0.33,0-0.6,0.27-0.6,0.6v3.2c0,0.33,0.27,0.6,0.6,0.6h3.16c0.33,0,0.6-0.27,0.6-0.6
			v-3.2C473.03,187.4,472.76,187.13,472.43,187.13z"/>
		<path class="st2" d="M407.32,77.12c-0.09-0.05-0.2-0.08-0.3-0.08c-0.05,0-0.11,0.01-0.16,0.02c-0.16,0.04-0.29,0.14-0.37,0.28
			l-1.57,2.74c-0.17,0.29-0.07,0.66,0.22,0.82l2.77,1.6c0.1,0.05,0.2,0.08,0.3,0.08c0.21,0,0.41-0.11,0.52-0.3l1.58-2.73
			c0.08-0.14,0.1-0.3,0.06-0.46c-0.04-0.16-0.14-0.29-0.28-0.37L407.32,77.12z"/>
		<path class="st2" d="M400.3,73.06c-0.09-0.05-0.2-0.08-0.3-0.08c-0.05,0-0.11,0.01-0.16,0.02c-0.16,0.04-0.29,0.14-0.37,0.28
			l-1.57,2.74c-0.17,0.29-0.07,0.66,0.22,0.82l2.76,1.6c0.1,0.06,0.2,0.08,0.3,0.08c0.21,0,0.41-0.11,0.52-0.3l1.58-2.73
			c0.08-0.14,0.1-0.3,0.06-0.46c-0.04-0.16-0.14-0.29-0.28-0.37L400.3,73.06z"/>
		<path class="st2" d="M421.38,85.23c-0.09-0.05-0.2-0.08-0.3-0.08c-0.05,0-0.11,0.01-0.16,0.02c-0.16,0.04-0.29,0.14-0.37,0.28
			l-1.57,2.74c-0.17,0.29-0.07,0.66,0.22,0.82l2.77,1.6c0.1,0.06,0.2,0.08,0.3,0.08c0.21,0,0.41-0.11,0.52-0.3l1.58-2.73
			c0.08-0.14,0.1-0.3,0.06-0.46c-0.04-0.16-0.14-0.29-0.28-0.37L421.38,85.23z"/>
		<path class="st2" d="M414.35,81.17c-0.09-0.05-0.2-0.08-0.3-0.08c-0.05,0-0.11,0.01-0.16,0.02c-0.16,0.04-0.29,0.14-0.37,0.28
			l-1.57,2.74c-0.17,0.29-0.07,0.66,0.22,0.82l2.77,1.6c0.1,0.05,0.2,0.08,0.3,0.08c0.21,0,0.41-0.11,0.52-0.3l1.58-2.73
			c0.08-0.14,0.1-0.3,0.06-0.46c-0.04-0.16-0.14-0.29-0.28-0.37L414.35,81.17z"/>
		<path class="st2" d="M393.27,69c-0.09-0.05-0.2-0.08-0.3-0.08c-0.05,0-0.11,0.01-0.16,0.02c-0.16,0.04-0.29,0.14-0.37,0.28
			l-1.57,2.74c-0.17,0.29-0.07,0.66,0.22,0.82l2.76,1.6c0.1,0.06,0.2,0.08,0.3,0.08c0.21,0,0.41-0.11,0.52-0.3l1.58-2.73
			c0.08-0.14,0.1-0.3,0.06-0.46c-0.04-0.16-0.14-0.29-0.28-0.37L393.27,69z"/>
		<path class="st2" d="M386.24,64.94c-0.09-0.05-0.2-0.08-0.3-0.08c-0.05,0-0.11,0.01-0.16,0.02c-0.16,0.04-0.29,0.14-0.37,0.28
			l-1.57,2.74c-0.17,0.29-0.07,0.66,0.22,0.82l2.76,1.6c0.1,0.06,0.2,0.08,0.3,0.08c0.21,0,0.41-0.11,0.52-0.3l1.58-2.73
			c0.08-0.14,0.1-0.3,0.06-0.46c-0.04-0.16-0.14-0.29-0.28-0.37L386.24,64.94z"/>
		<path class="st2" d="M379.21,60.89c-0.09-0.05-0.2-0.08-0.3-0.08c-0.05,0-0.11,0.01-0.16,0.02c-0.15,0.04-0.29,0.14-0.37,0.28
			l-1.57,2.74c-0.17,0.29-0.07,0.66,0.22,0.82l2.77,1.6c0.1,0.06,0.2,0.08,0.3,0.08c0.21,0,0.41-0.11,0.52-0.3l1.58-2.73
			c0.08-0.14,0.1-0.3,0.06-0.46c-0.04-0.16-0.14-0.29-0.28-0.37L379.21,60.89z"/>
		<path class="st2" d="M449.49,101.46c-0.09-0.05-0.2-0.08-0.3-0.08c-0.05,0-0.11,0.01-0.16,0.02c-0.16,0.04-0.29,0.14-0.37,0.28
			l-1.57,2.74c-0.17,0.29-0.07,0.66,0.22,0.82l2.77,1.6c0.1,0.06,0.2,0.08,0.3,0.08c0.21,0,0.41-0.11,0.52-0.3l1.58-2.73
			c0.08-0.14,0.1-0.3,0.06-0.46c-0.04-0.16-0.14-0.29-0.28-0.37L449.49,101.46z"/>
		<path class="st2" d="M456.52,105.52c-0.09-0.05-0.2-0.08-0.3-0.08c-0.05,0-0.11,0.01-0.16,0.02c-0.16,0.04-0.29,0.14-0.37,0.28
			l-1.57,2.74c-0.17,0.29-0.07,0.66,0.22,0.82l2.77,1.6c0.1,0.06,0.2,0.08,0.3,0.08c0.21,0,0.41-0.11,0.52-0.3l1.58-2.73
			c0.08-0.14,0.1-0.3,0.06-0.46c-0.04-0.16-0.14-0.29-0.28-0.37L456.52,105.52z"/>
		<path class="st2" d="M463.54,109.58c-0.09-0.05-0.2-0.08-0.3-0.08c-0.05,0-0.11,0.01-0.16,0.02c-0.16,0.04-0.29,0.14-0.37,0.28
			l-1.57,2.74c-0.17,0.29-0.07,0.66,0.22,0.82l2.77,1.6c0.1,0.06,0.2,0.08,0.3,0.08c0.21,0,0.41-0.11,0.52-0.3l1.58-2.73
			c0.08-0.14,0.1-0.3,0.06-0.46c-0.04-0.16-0.14-0.29-0.28-0.37L463.54,109.58z"/>
		<path class="st2" d="M428.41,89.29c-0.09-0.05-0.2-0.08-0.3-0.08c-0.05,0-0.11,0.01-0.16,0.02c-0.16,0.04-0.29,0.14-0.37,0.28
			l-1.57,2.74c-0.17,0.29-0.07,0.66,0.22,0.82l2.77,1.6c0.1,0.05,0.2,0.08,0.3,0.08c0.21,0,0.41-0.11,0.52-0.3l1.58-2.73
			c0.08-0.14,0.1-0.3,0.06-0.46c-0.04-0.16-0.14-0.29-0.28-0.37L428.41,89.29z"/>
		<path class="st2" d="M442.46,97.41c-0.09-0.05-0.2-0.08-0.3-0.08c-0.05,0-0.11,0.01-0.16,0.02c-0.16,0.04-0.29,0.14-0.37,0.28
			l-1.57,2.74c-0.17,0.29-0.07,0.66,0.22,0.82l2.77,1.6c0.1,0.05,0.2,0.08,0.3,0.08c0.21,0,0.41-0.11,0.52-0.3l1.58-2.73
			c0.08-0.14,0.1-0.3,0.06-0.46c-0.04-0.16-0.14-0.29-0.28-0.37L442.46,97.41z"/>
		<path class="st2" d="M435.43,93.35c-0.09-0.05-0.2-0.08-0.3-0.08c-0.05,0-0.11,0.01-0.16,0.02c-0.16,0.04-0.29,0.14-0.37,0.28
			l-1.57,2.74c-0.17,0.29-0.07,0.66,0.22,0.82l2.77,1.6c0.1,0.05,0.2,0.08,0.3,0.08c0.21,0,0.41-0.11,0.52-0.3l1.58-2.73
			c0.08-0.14,0.1-0.3,0.06-0.46c-0.04-0.16-0.14-0.29-0.28-0.37L435.43,93.35z"/>
		<path class="st2" d="M303.36,97.63c-0.11-0.19-0.32-0.3-0.52-0.3c-0.1,0-0.21,0.03-0.3,0.08l-2.77,1.6
			c-0.29,0.17-0.39,0.54-0.22,0.82l1.57,2.74c0.08,0.14,0.21,0.24,0.37,0.28c0.05,0.01,0.1,0.02,0.16,0.02
			c0.11,0,0.21-0.03,0.3-0.08l2.78-1.6c0.14-0.08,0.24-0.21,0.28-0.37c0.04-0.16,0.02-0.32-0.06-0.46L303.36,97.63z"/>
		<path class="st2" d="M282.27,109.8c-0.11-0.19-0.32-0.3-0.52-0.3c-0.1,0-0.21,0.03-0.3,0.08l-2.77,1.6
			c-0.29,0.17-0.39,0.54-0.22,0.82l1.57,2.74c0.08,0.14,0.21,0.24,0.37,0.28c0.05,0.01,0.1,0.02,0.16,0.02
			c0.11,0,0.21-0.03,0.3-0.08l2.78-1.6c0.14-0.08,0.24-0.21,0.28-0.37c0.04-0.16,0.02-0.32-0.06-0.46L282.27,109.8z"/>
		<path class="st2" d="M310.39,93.57c-0.11-0.19-0.32-0.3-0.52-0.3c-0.1,0-0.21,0.03-0.3,0.08l-2.77,1.6
			c-0.29,0.17-0.39,0.54-0.22,0.82l1.57,2.74c0.08,0.14,0.21,0.24,0.37,0.28c0.05,0.01,0.1,0.02,0.16,0.02
			c0.11,0,0.21-0.03,0.3-0.08l2.78-1.6c0.14-0.08,0.24-0.21,0.28-0.37c0.04-0.16,0.02-0.32-0.06-0.46L310.39,93.57z"/>
		<path class="st2" d="M296.33,101.69c-0.11-0.19-0.32-0.3-0.52-0.3c-0.1,0-0.21,0.03-0.3,0.08l-2.77,1.6
			c-0.29,0.17-0.39,0.54-0.22,0.82l1.57,2.74c0.08,0.14,0.21,0.24,0.37,0.28c0.05,0.01,0.1,0.02,0.16,0.02
			c0.11,0,0.21-0.03,0.3-0.08l2.78-1.6c0.14-0.08,0.24-0.21,0.28-0.37c0.04-0.16,0.02-0.32-0.06-0.46L296.33,101.69z"/>
		<path class="st2" d="M324.44,85.46c-0.11-0.19-0.32-0.3-0.52-0.3c-0.1,0-0.21,0.03-0.3,0.08l-2.77,1.6
			c-0.29,0.17-0.39,0.54-0.22,0.82l1.57,2.74c0.08,0.14,0.21,0.24,0.37,0.28c0.05,0.01,0.1,0.02,0.16,0.02
			c0.11,0,0.21-0.03,0.3-0.08l2.78-1.6c0.14-0.08,0.24-0.21,0.28-0.37c0.04-0.16,0.02-0.32-0.06-0.46L324.44,85.46z"/>
		<path class="st2" d="M289.3,105.74c-0.11-0.19-0.32-0.3-0.52-0.3c-0.1,0-0.21,0.03-0.3,0.08l-2.77,1.6
			c-0.29,0.17-0.39,0.54-0.22,0.82l1.57,2.74c0.08,0.14,0.21,0.24,0.37,0.28c0.05,0.01,0.1,0.02,0.16,0.02
			c0.11,0,0.21-0.03,0.3-0.08l2.78-1.6c0.14-0.08,0.24-0.21,0.28-0.37c0.04-0.16,0.02-0.32-0.06-0.46L289.3,105.74z"/>
		<path class="st2" d="M359.58,65.16c-0.11-0.19-0.32-0.3-0.52-0.3c-0.1,0-0.21,0.03-0.3,0.08l-2.76,1.6
			c-0.29,0.17-0.39,0.54-0.22,0.82l1.57,2.74c0.08,0.14,0.21,0.24,0.37,0.28c0.05,0.01,0.1,0.02,0.16,0.02
			c0.11,0,0.21-0.03,0.3-0.08l2.78-1.6c0.14-0.08,0.24-0.21,0.28-0.37c0.04-0.16,0.02-0.32-0.06-0.46L359.58,65.16z"/>
		<path class="st2" d="M366.61,61.11c-0.11-0.19-0.32-0.3-0.52-0.3c-0.1,0-0.21,0.03-0.3,0.08l-2.76,1.6
			c-0.29,0.17-0.39,0.54-0.22,0.82l1.57,2.74c0.08,0.14,0.21,0.24,0.37,0.28c0.05,0.01,0.1,0.02,0.16,0.02
			c0.11,0,0.21-0.03,0.3-0.08l2.78-1.6c0.14-0.08,0.24-0.21,0.28-0.37c0.04-0.16,0.02-0.32-0.06-0.46L366.61,61.11z"/>
		<path class="st2" d="M331.47,81.4c-0.11-0.19-0.32-0.3-0.52-0.3c-0.1,0-0.21,0.03-0.3,0.08l-2.76,1.6
			c-0.29,0.17-0.39,0.54-0.22,0.82l1.57,2.74c0.08,0.14,0.21,0.24,0.37,0.28c0.05,0.01,0.1,0.02,0.16,0.02
			c0.11,0,0.21-0.03,0.3-0.08l2.78-1.6c0.14-0.08,0.24-0.21,0.28-0.37c0.04-0.16,0.02-0.32-0.06-0.46L331.47,81.4z"/>
		<path class="st2" d="M352.55,69.22c-0.11-0.19-0.32-0.3-0.52-0.3c-0.1,0-0.21,0.03-0.3,0.08l-2.77,1.6
			c-0.29,0.17-0.39,0.54-0.22,0.82l1.57,2.74c0.08,0.14,0.21,0.24,0.37,0.28c0.05,0.01,0.1,0.02,0.16,0.02
			c0.11,0,0.21-0.03,0.3-0.08l2.78-1.6c0.14-0.08,0.24-0.21,0.28-0.37c0.04-0.16,0.02-0.32-0.06-0.46L352.55,69.22z"/>
		<path class="st2" d="M338.5,77.34c-0.11-0.19-0.32-0.3-0.52-0.3c-0.1,0-0.21,0.03-0.3,0.08l-2.77,1.6
			c-0.29,0.17-0.39,0.54-0.22,0.82l1.57,2.74c0.08,0.14,0.21,0.24,0.37,0.28c0.05,0.01,0.1,0.02,0.16,0.02
			c0.11,0,0.21-0.03,0.3-0.08l2.78-1.6c0.14-0.08,0.24-0.21,0.28-0.37c0.04-0.16,0.02-0.32-0.06-0.46L338.5,77.34z"/>
		<path class="st2" d="M345.53,73.28c-0.11-0.19-0.32-0.3-0.52-0.3c-0.1,0-0.21,0.03-0.3,0.08l-2.76,1.6
			c-0.29,0.17-0.39,0.54-0.22,0.82l1.57,2.74c0.08,0.14,0.21,0.24,0.37,0.28c0.05,0.01,0.1,0.02,0.16,0.02
			c0.11,0,0.21-0.03,0.3-0.08l2.78-1.6c0.14-0.08,0.24-0.21,0.28-0.37c0.04-0.16,0.02-0.32-0.06-0.46L345.53,73.28z"/>
		<path class="st2" d="M317.41,89.51c-0.11-0.19-0.32-0.3-0.52-0.3c-0.1,0-0.21,0.03-0.3,0.08l-2.76,1.6
			c-0.29,0.17-0.39,0.54-0.22,0.82l1.57,2.74c0.08,0.14,0.21,0.24,0.37,0.28c0.05,0.01,0.1,0.02,0.16,0.02
			c0.11,0,0.21-0.03,0.3-0.08l2.78-1.6c0.14-0.08,0.24-0.21,0.28-0.37c0.04-0.16,0.02-0.32-0.06-0.46L317.41,89.51z"/>
		<path class="st2" d="M275.73,187.13h-3.16c-0.33,0-0.6,0.27-0.6,0.6v3.2c0,0.33,0.27,0.6,0.6,0.6h3.16c0.33,0,0.6-0.27,0.6-0.6
			v-3.2C276.33,187.4,276.06,187.13,275.73,187.13z"/>
		<path class="st2" d="M275.73,179.02h-3.16c-0.33,0-0.6,0.27-0.6,0.6v3.2c0,0.33,0.27,0.6,0.6,0.6h3.16c0.33,0,0.6-0.27,0.6-0.6
			v-3.2C276.33,179.29,276.06,179.02,275.73,179.02z"/>
		<path class="st2" d="M275.73,195.25h-3.16c-0.33,0-0.6,0.27-0.6,0.6v3.2c0,0.33,0.27,0.6,0.6,0.6h3.16c0.33,0,0.6-0.27,0.6-0.6
			v-3.2C276.33,195.52,276.06,195.25,275.73,195.25z"/>
		<path class="st2" d="M275.73,203.36h-3.16c-0.33,0-0.6,0.27-0.6,0.6v3.2c0,0.33,0.27,0.6,0.6,0.6h3.16c0.33,0,0.6-0.27,0.6-0.6
			v-3.2C276.33,203.63,276.06,203.36,275.73,203.36z"/>
		<path class="st2" d="M275.73,219.6h-3.16c-0.33,0-0.6,0.27-0.6,0.6v3.2c0,0.33,0.27,0.6,0.6,0.6h3.16c0.33,0,0.6-0.27,0.6-0.6
			v-3.2C276.33,219.87,276.06,219.6,275.73,219.6z"/>
		<path class="st2" d="M275.73,211.48h-3.16c-0.33,0-0.6,0.27-0.6,0.6v3.2c0,0.33,0.27,0.6,0.6,0.6h3.16c0.33,0,0.6-0.27,0.6-0.6
			v-3.2C276.33,211.75,276.06,211.48,275.73,211.48z"/>
		<path class="st2" d="M275.73,162.78h-3.16c-0.33,0-0.6,0.27-0.6,0.6v3.2c0,0.33,0.27,0.6,0.6,0.6h3.16c0.33,0,0.6-0.27,0.6-0.6
			v-3.2C276.33,163.05,276.06,162.78,275.73,162.78z"/>
		<path class="st2" d="M275.73,138.44h-3.16c-0.33,0-0.6,0.27-0.6,0.6v3.2c0,0.33,0.27,0.6,0.6,0.6h3.16c0.33,0,0.6-0.27,0.6-0.6
			v-3.2C276.33,138.71,276.06,138.44,275.73,138.44z"/>
		<path class="st2" d="M275.73,130.32h-3.16c-0.33,0-0.6,0.27-0.6,0.6v3.2c0,0.33,0.27,0.6,0.6,0.6h3.16c0.33,0,0.6-0.27,0.6-0.6
			v-3.2C276.33,130.59,276.06,130.32,275.73,130.32z"/>
		<path class="st2" d="M275.73,170.9h-3.16c-0.33,0-0.6,0.27-0.6,0.6v3.2c0,0.33,0.27,0.6,0.6,0.6h3.16c0.33,0,0.6-0.27,0.6-0.6
			v-3.2C276.33,171.17,276.06,170.9,275.73,170.9z"/>
		<path class="st2" d="M275.73,122.21h-3.16c-0.33,0-0.6,0.27-0.6,0.6v3.2c0,0.33,0.27,0.6,0.6,0.6h3.16c0.33,0,0.6-0.27,0.6-0.6
			v-3.2C276.33,122.48,276.06,122.21,275.73,122.21z"/>
		<path class="st2" d="M275.73,154.67h-3.16c-0.33,0-0.6,0.27-0.6,0.6v3.2c0,0.33,0.27,0.6,0.6,0.6h3.16c0.33,0,0.6-0.27,0.6-0.6
			v-3.2C276.33,154.94,276.06,154.67,275.73,154.67z"/>
		<path class="st2" d="M275.73,146.55h-3.16c-0.33,0-0.6,0.27-0.6,0.6v3.2c0,0.33,0.27,0.6,0.6,0.6h3.16c0.33,0,0.6-0.27,0.6-0.6
			v-3.2C276.33,146.82,276.06,146.55,275.73,146.55z"/>
		<path class="st2" d="M337.09,263.71c-0.1-0.06-0.2-0.08-0.3-0.08c-0.21,0-0.41,0.11-0.52,0.3l-1.58,2.73
			c-0.08,0.14-0.1,0.3-0.06,0.46c0.04,0.16,0.14,0.29,0.28,0.37l2.78,1.6c0.09,0.05,0.2,0.08,0.3,0.08c0.05,0,0.11-0.01,0.16-0.02
			c0.16-0.04,0.29-0.14,0.37-0.28l1.57-2.74c0.17-0.29,0.07-0.66-0.22-0.82L337.09,263.71z"/>
		<path class="st2" d="M344.12,267.77c-0.1-0.06-0.2-0.08-0.3-0.08c-0.21,0-0.41,0.11-0.52,0.3l-1.58,2.73
			c-0.08,0.14-0.1,0.3-0.06,0.46c0.04,0.16,0.14,0.29,0.28,0.37l2.78,1.6c0.09,0.05,0.2,0.08,0.3,0.08c0.05,0,0.11-0.01,0.16-0.02
			c0.16-0.04,0.29-0.14,0.37-0.28l1.57-2.74c0.17-0.29,0.07-0.66-0.22-0.82L344.12,267.77z"/>
		<path class="st2" d="M323.03,255.6c-0.1-0.06-0.2-0.08-0.3-0.08c-0.21,0-0.41,0.11-0.52,0.3l-1.58,2.73
			c-0.08,0.14-0.1,0.3-0.06,0.46c0.04,0.16,0.14,0.29,0.28,0.37l2.78,1.6c0.09,0.05,0.2,0.08,0.3,0.08c0.05,0,0.11-0.01,0.16-0.02
			c0.16-0.04,0.29-0.14,0.37-0.28l1.57-2.74c0.17-0.29,0.07-0.66-0.22-0.82L323.03,255.6z"/>
		<path class="st2" d="M365.2,279.95c-0.1-0.06-0.2-0.08-0.3-0.08c-0.21,0-0.41,0.11-0.52,0.3l-1.58,2.73
			c-0.08,0.14-0.1,0.3-0.06,0.46c0.04,0.16,0.14,0.29,0.28,0.37l2.78,1.6c0.09,0.05,0.2,0.08,0.3,0.08c0.05,0,0.11-0.01,0.16-0.02
			c0.15-0.04,0.29-0.14,0.37-0.28l1.57-2.74c0.17-0.29,0.07-0.66-0.22-0.82L365.2,279.95z"/>
		<path class="st2" d="M351.14,271.83c-0.1-0.06-0.2-0.08-0.3-0.08c-0.21,0-0.41,0.11-0.52,0.3l-1.58,2.73
			c-0.08,0.14-0.1,0.3-0.06,0.46c0.04,0.16,0.14,0.29,0.28,0.37l2.78,1.6c0.09,0.05,0.2,0.08,0.3,0.08c0.05,0,0.11-0.01,0.16-0.02
			c0.16-0.04,0.29-0.14,0.37-0.28l1.57-2.74c0.17-0.29,0.07-0.66-0.22-0.82L351.14,271.83z"/>
		<path class="st2" d="M358.17,275.89c-0.1-0.06-0.2-0.08-0.3-0.08c-0.21,0-0.41,0.11-0.52,0.3l-1.58,2.73
			c-0.08,0.14-0.1,0.3-0.06,0.46c0.04,0.16,0.14,0.29,0.28,0.37l2.78,1.6c0.09,0.05,0.2,0.08,0.3,0.08c0.05,0,0.11-0.01,0.16-0.02
			c0.16-0.04,0.29-0.14,0.37-0.28l1.57-2.74c0.17-0.29,0.07-0.66-0.22-0.82L358.17,275.89z"/>
		<path class="st2" d="M330.06,259.65c-0.1-0.06-0.2-0.08-0.3-0.08c-0.21,0-0.41,0.11-0.52,0.3l-1.58,2.73
			c-0.08,0.14-0.1,0.3-0.06,0.46c0.04,0.16,0.14,0.29,0.28,0.37l2.78,1.6c0.09,0.05,0.2,0.08,0.3,0.08c0.05,0,0.11-0.01,0.16-0.02
			c0.16-0.04,0.29-0.14,0.37-0.28l1.57-2.74c0.17-0.29,0.07-0.66-0.22-0.82L330.06,259.65z"/>
		<path class="st2" d="M287.89,235.31c-0.1-0.06-0.2-0.08-0.3-0.08c-0.21,0-0.41,0.11-0.52,0.3l-1.58,2.73
			c-0.08,0.14-0.1,0.3-0.06,0.46c0.04,0.16,0.14,0.29,0.28,0.37l2.78,1.6c0.09,0.05,0.2,0.08,0.3,0.08c0.05,0,0.11-0.01,0.16-0.02
			c0.16-0.04,0.29-0.14,0.37-0.28l1.57-2.74c0.17-0.29,0.07-0.66-0.22-0.82L287.89,235.31z"/>
		<path class="st2" d="M280.86,231.25c-0.1-0.06-0.2-0.08-0.3-0.08c-0.21,0-0.41,0.11-0.52,0.3l-1.58,2.73
			c-0.08,0.14-0.1,0.3-0.06,0.46c0.04,0.16,0.14,0.29,0.28,0.37l2.78,1.6c0.09,0.05,0.2,0.08,0.3,0.08c0.05,0,0.11-0.01,0.16-0.02
			c0.16-0.04,0.29-0.14,0.37-0.28l1.57-2.74c0.17-0.29,0.07-0.66-0.22-0.82L280.86,231.25z"/>
		<path class="st2" d="M316,251.54c-0.1-0.06-0.2-0.08-0.3-0.08c-0.21,0-0.41,0.11-0.52,0.3l-1.58,2.73
			c-0.08,0.14-0.1,0.3-0.06,0.46c0.04,0.16,0.14,0.29,0.28,0.37l2.78,1.6c0.09,0.05,0.2,0.08,0.3,0.08c0.05,0,0.11-0.01,0.16-0.02
			c0.16-0.04,0.29-0.14,0.37-0.28l1.57-2.74c0.17-0.29,0.07-0.66-0.22-0.82L316,251.54z"/>
		<path class="st2" d="M294.92,239.37c-0.1-0.06-0.2-0.08-0.3-0.08c-0.21,0-0.41,0.11-0.52,0.3l-1.58,2.73
			c-0.08,0.14-0.1,0.3-0.06,0.46c0.04,0.16,0.14,0.29,0.28,0.37l2.78,1.6c0.09,0.05,0.2,0.08,0.3,0.08c0.05,0,0.11-0.01,0.16-0.02
			c0.16-0.04,0.29-0.14,0.37-0.28l1.57-2.74c0.17-0.29,0.07-0.66-0.22-0.82L294.92,239.37z"/>
		<path class="st2" d="M308.98,247.48c-0.1-0.06-0.2-0.08-0.3-0.08c-0.21,0-0.41,0.11-0.52,0.3l-1.58,2.73
			c-0.08,0.14-0.1,0.3-0.06,0.46c0.04,0.16,0.14,0.29,0.28,0.37l2.78,1.6c0.09,0.05,0.2,0.08,0.3,0.08c0.05,0,0.11-0.01,0.16-0.02
			c0.16-0.04,0.29-0.14,0.37-0.28l1.57-2.74c0.17-0.29,0.07-0.66-0.22-0.82L308.98,247.48z"/>
		<path class="st2" d="M301.95,243.42c-0.1-0.06-0.2-0.08-0.3-0.08c-0.21,0-0.41,0.11-0.52,0.3l-1.58,2.73
			c-0.08,0.14-0.1,0.3-0.06,0.46c0.04,0.16,0.14,0.29,0.28,0.37l2.78,1.6c0.09,0.05,0.2,0.08,0.3,0.08c0.05,0,0.11-0.01,0.16-0.02
			c0.16-0.04,0.29-0.14,0.37-0.28l1.57-2.74c0.17-0.29,0.07-0.66-0.22-0.82L301.95,243.42z"/>
		<path class="st2" d="M373.6,284.22c-0.08-0.14-0.21-0.24-0.37-0.28c-0.05-0.01-0.1-0.02-0.16-0.02c-0.11,0-0.21,0.03-0.3,0.08
			l-0.28,0.16l-0.28-0.16c-0.09-0.05-0.2-0.08-0.3-0.08c-0.05,0-0.11,0.01-0.16,0.02c-0.16,0.04-0.29,0.14-0.37,0.28l-1.57,2.74
			c-0.17,0.29-0.07,0.66,0.22,0.82l2.15,1.24c0.09,0.05,0.2,0.08,0.3,0.08s0.21-0.03,0.3-0.08l2.15-1.24
			c0.29-0.17,0.39-0.54,0.22-0.82L373.6,284.22z"/>
		<path class="st2" d="M443.88,243.64c-0.08-0.14-0.21-0.24-0.37-0.28c-0.05-0.01-0.1-0.02-0.16-0.02c-0.11,0-0.21,0.03-0.3,0.08
			l-2.78,1.6c-0.14,0.08-0.24,0.21-0.28,0.37c-0.04,0.16-0.02,0.32,0.06,0.46l1.58,2.73c0.11,0.19,0.32,0.3,0.52,0.3
			c0.1,0,0.21-0.03,0.3-0.08l2.77-1.6c0.29-0.17,0.39-0.54,0.22-0.82L443.88,243.64z"/>
		<path class="st2" d="M436.85,247.7c-0.08-0.14-0.21-0.24-0.37-0.28c-0.05-0.01-0.1-0.02-0.16-0.02c-0.11,0-0.21,0.03-0.3,0.08
			l-2.78,1.6c-0.14,0.08-0.24,0.21-0.28,0.37c-0.04,0.16-0.02,0.32,0.06,0.46l1.58,2.73c0.11,0.19,0.32,0.3,0.52,0.3
			c0.1,0,0.21-0.03,0.3-0.08l2.77-1.6c0.29-0.17,0.39-0.54,0.22-0.82L436.85,247.7z"/>
		<path class="st2" d="M450.91,239.59c-0.08-0.14-0.21-0.24-0.37-0.28c-0.05-0.01-0.1-0.02-0.16-0.02c-0.11,0-0.21,0.03-0.3,0.08
			l-2.78,1.6c-0.14,0.08-0.24,0.21-0.28,0.37c-0.04,0.16-0.02,0.32,0.06,0.46l1.58,2.73c0.11,0.19,0.32,0.3,0.52,0.3
			c0.1,0,0.21-0.03,0.3-0.08l2.76-1.6c0.29-0.17,0.39-0.54,0.22-0.82L450.91,239.59z"/>
		<path class="st2" d="M457.94,235.53c-0.08-0.14-0.21-0.24-0.37-0.28c-0.05-0.01-0.1-0.02-0.16-0.02c-0.11,0-0.21,0.03-0.3,0.08
			l-2.78,1.6c-0.14,0.08-0.24,0.21-0.28,0.37c-0.04,0.16-0.02,0.32,0.06,0.46l1.58,2.73c0.11,0.19,0.32,0.3,0.52,0.3
			c0.1,0,0.21-0.03,0.3-0.08l2.77-1.6c0.29-0.17,0.39-0.54,0.22-0.82L457.94,235.53z"/>
		<path class="st2" d="M429.83,251.76c-0.08-0.14-0.21-0.24-0.37-0.28c-0.05-0.01-0.1-0.02-0.16-0.02c-0.11,0-0.21,0.03-0.3,0.08
			l-2.78,1.6c-0.14,0.08-0.24,0.21-0.28,0.37c-0.04,0.16-0.02,0.32,0.06,0.46l1.58,2.73c0.11,0.19,0.32,0.3,0.52,0.3
			c0.1,0,0.21-0.03,0.3-0.08l2.77-1.6c0.29-0.17,0.39-0.54,0.22-0.82L429.83,251.76z"/>
		<path class="st2" d="M464.97,231.47c-0.08-0.14-0.21-0.24-0.37-0.28c-0.05-0.01-0.1-0.02-0.16-0.02c-0.11,0-0.21,0.03-0.3,0.08
			l-2.78,1.6c-0.14,0.08-0.24,0.21-0.28,0.37c-0.04,0.16-0.02,0.32,0.06,0.46l1.58,2.73c0.11,0.19,0.32,0.3,0.52,0.3
			c0.1,0,0.21-0.03,0.3-0.08l2.77-1.6c0.29-0.17,0.39-0.54,0.22-0.82L464.97,231.47z"/>
		<path class="st2" d="M380.63,280.16c-0.08-0.14-0.21-0.24-0.37-0.28c-0.05-0.01-0.1-0.02-0.16-0.02c-0.11,0-0.21,0.03-0.3,0.08
			l-2.78,1.6c-0.14,0.08-0.24,0.21-0.28,0.37c-0.04,0.16-0.02,0.32,0.06,0.46l1.58,2.73c0.11,0.19,0.32,0.3,0.52,0.3
			c0.1,0,0.21-0.03,0.3-0.08l2.77-1.6c0.29-0.17,0.39-0.54,0.22-0.82L380.63,280.16z"/>
		<path class="st2" d="M394.69,272.05c-0.08-0.14-0.21-0.24-0.37-0.28c-0.05-0.01-0.1-0.02-0.16-0.02c-0.11,0-0.21,0.03-0.3,0.08
			l-2.78,1.6c-0.14,0.08-0.24,0.21-0.28,0.37c-0.04,0.16-0.02,0.32,0.06,0.46l1.58,2.73c0.11,0.19,0.32,0.3,0.52,0.3
			c0.1,0,0.21-0.03,0.3-0.08l2.76-1.6c0.29-0.17,0.39-0.54,0.22-0.82L394.69,272.05z"/>
		<path class="st2" d="M387.66,276.1c-0.08-0.14-0.21-0.24-0.37-0.28c-0.05-0.01-0.1-0.02-0.16-0.02c-0.11,0-0.21,0.03-0.3,0.08
			l-2.78,1.6c-0.14,0.08-0.24,0.21-0.28,0.37c-0.04,0.16-0.02,0.32,0.06,0.46l1.58,2.73c0.11,0.19,0.32,0.3,0.52,0.3
			c0.1,0,0.21-0.03,0.3-0.08l2.77-1.6c0.29-0.17,0.39-0.54,0.22-0.82L387.66,276.1z"/>
		<path class="st2" d="M401.72,267.99c-0.08-0.14-0.21-0.24-0.37-0.28c-0.05-0.01-0.1-0.02-0.16-0.02c-0.11,0-0.21,0.03-0.3,0.08
			l-2.78,1.6c-0.14,0.08-0.24,0.21-0.28,0.37c-0.04,0.15-0.02,0.32,0.06,0.46l1.58,2.73c0.11,0.19,0.32,0.3,0.52,0.3
			c0.1,0,0.21-0.03,0.3-0.08l2.76-1.6c0.29-0.17,0.39-0.54,0.22-0.82L401.72,267.99z"/>
		<path class="st2" d="M408.74,263.93c-0.08-0.14-0.21-0.24-0.37-0.28c-0.05-0.01-0.1-0.02-0.16-0.02c-0.11,0-0.21,0.03-0.3,0.08
			l-2.78,1.6c-0.14,0.08-0.24,0.21-0.28,0.37c-0.04,0.15-0.02,0.32,0.06,0.46l1.58,2.73c0.11,0.19,0.32,0.3,0.52,0.3
			c0.1,0,0.21-0.03,0.3-0.08l2.77-1.6c0.29-0.17,0.39-0.54,0.22-0.82L408.74,263.93z"/>
		<path class="st2" d="M415.77,259.87c-0.08-0.14-0.21-0.24-0.37-0.28c-0.05-0.01-0.1-0.02-0.16-0.02c-0.11,0-0.21,0.03-0.3,0.08
			l-2.78,1.6c-0.14,0.08-0.24,0.21-0.28,0.37c-0.04,0.16-0.02,0.32,0.06,0.46l1.58,2.73c0.11,0.19,0.32,0.3,0.52,0.3
			c0.1,0,0.21-0.03,0.3-0.08l2.76-1.6c0.29-0.17,0.39-0.54,0.22-0.82L415.77,259.87z"/>
		<path class="st2" d="M422.8,255.82c-0.08-0.14-0.21-0.24-0.37-0.28c-0.05-0.01-0.1-0.02-0.16-0.02c-0.11,0-0.21,0.03-0.3,0.08
			l-2.78,1.6c-0.14,0.08-0.24,0.21-0.28,0.37c-0.04,0.16-0.02,0.32,0.06,0.46l1.58,2.73c0.11,0.19,0.32,0.3,0.52,0.3
			c0.1,0,0.21-0.03,0.3-0.08l2.76-1.6c0.29-0.17,0.39-0.54,0.22-0.82L422.8,255.82z"/>
		<path class="st2" d="M276.25,115.59l-0.99-1.73c-0.08-0.14-0.21-0.24-0.37-0.28c-0.05-0.01-0.1-0.02-0.16-0.02
			c-0.11,0-0.21,0.03-0.3,0.08l-2.16,1.25c-0.19,0.11-0.3,0.31-0.3,0.52v2.49c0,0.33,0.27,0.6,0.6,0.6h3.16c0.33,0,0.6-0.27,0.6-0.6
			v-0.67l0-1.34C276.33,115.79,276.3,115.68,276.25,115.59z"/>
		<path class="st2" d="M469.27,118.5h3.16c0.33,0,0.6-0.27,0.6-0.6v-2.49c0-0.22-0.12-0.42-0.3-0.52l-2.16-1.25
			c-0.09-0.05-0.2-0.08-0.3-0.08c-0.05,0-0.11,0.01-0.16,0.02c-0.16,0.04-0.29,0.14-0.37,0.28l-0.99,1.73
			c-0.05,0.09-0.08,0.2-0.08,0.3l0,1.34v0.67C468.67,118.23,468.94,118.5,469.27,118.5z"/>
	</g>
</g>
<g>
	<g>
		<path class="st6" d="M1181.61,845c-27.21,0-49.35-22.14-49.35-49.35c0-27.21,22.14-49.35,49.35-49.35
			c27.21,0,49.35,22.14,49.35,49.35C1230.96,822.87,1208.82,845,1181.61,845z"/>
	</g>
	<g>
		<path class="st6" d="M1276.72,849.07l-0.63-1.1l-92.74-160.65l-0.63-1.1l-1.1-1.9l-1.1,1.9l-0.64,1.1l-92.74,160.65l-0.63,1.1
			l-1.1,1.91h2.2h1.27h185.49h1.26h2.2L1276.72,849.07z M1198.87,847.97c-58.88,0,26.59,0-34.63,0h-73.63l36.78-63.71
			c23.28-40.32-11.07,19.18,17.38-30.1l36.85-63.84l36.77,63.7c4.84,8.38,7.6,13.17,9.1,15.76c0.02,0.03,0.04,0.08,0.07,0.11
			c0,0.01,0.01,0.01,0.01,0.02v0c0.06,0.11,0.14,0.24,0.23,0.4c-0.01-0.01-0.01-0.03-0.02-0.04c0.54,0.94,0.88,1.53,1.08,1.87
			c-0.13-0.22-0.3-0.51-0.48-0.83c1.15,1.99,3.38,5.85,7.42,12.86l36.83,63.79H1198.87z"/>
	</g>
	<text transform="matrix(1 0 0 1 863.5798 864.1486)" class="st6 st3 st4">M</text>
	<g>
		<text transform="matrix(1 0 0 1 1297.2947 867.9269)" class="st6 st3 st4 st5">lecula</text>
	</g>
	<g>
		<path class="st6" d="M1281.54,777.04h-3.16c-0.33,0-0.6,0.27-0.6,0.6v3.2c0,0.33,0.27,0.6,0.6,0.6h3.16c0.33,0,0.6-0.27,0.6-0.6
			v-3.2C1282.14,777.32,1281.87,777.04,1281.54,777.04z"/>
		<path class="st6" d="M1281.54,793.28h-3.16c-0.33,0-0.6,0.27-0.6,0.6v3.2c0,0.33,0.27,0.6,0.6,0.6h3.16c0.33,0,0.6-0.27,0.6-0.6
			v-3.2C1282.14,793.55,1281.87,793.28,1281.54,793.28z"/>
		<path class="st6" d="M1281.54,768.93h-3.16c-0.33,0-0.6,0.27-0.6,0.6v3.2c0,0.33,0.27,0.6,0.6,0.6h3.16c0.33,0,0.6-0.27,0.6-0.6
			v-3.2C1282.14,769.2,1281.87,768.93,1281.54,768.93z"/>
		<path class="st6" d="M1281.54,785.16h-3.16c-0.33,0-0.6,0.27-0.6,0.6v3.2c0,0.33,0.27,0.6,0.6,0.6h3.16c0.33,0,0.6-0.27,0.6-0.6
			v-3.2C1282.14,785.43,1281.87,785.16,1281.54,785.16z"/>
		<path class="st6" d="M1281.54,752.7h-3.16c-0.33,0-0.6,0.27-0.6,0.6v3.2c0,0.33,0.27,0.6,0.6,0.6h3.16c0.33,0,0.6-0.27,0.6-0.6
			v-3.2C1282.14,752.97,1281.87,752.7,1281.54,752.7z"/>
		<path class="st6" d="M1281.54,744.58h-3.16c-0.33,0-0.6,0.27-0.6,0.6v3.2c0,0.33,0.27,0.6,0.6,0.6h3.16c0.33,0,0.6-0.27,0.6-0.6
			v-3.2C1282.14,744.85,1281.87,744.58,1281.54,744.58z"/>
		<path class="st6" d="M1281.54,760.81h-3.16c-0.33,0-0.6,0.27-0.6,0.6v3.2c0,0.33,0.27,0.6,0.6,0.6h3.16c0.33,0,0.6-0.27,0.6-0.6
			v-3.2C1282.14,761.08,1281.87,760.81,1281.54,760.81z"/>
		<path class="st6" d="M1281.54,841.97h-3.16c-0.33,0-0.6,0.27-0.6,0.6v3.2c0,0.33,0.27,0.6,0.6,0.6h3.16c0.33,0,0.6-0.27,0.6-0.6
			v-3.2C1282.14,842.24,1281.87,841.97,1281.54,841.97z"/>
		<path class="st6" d="M1281.54,833.86h-3.16c-0.33,0-0.6,0.27-0.6,0.6v3.2c0,0.33,0.27,0.6,0.6,0.6h3.16c0.33,0,0.6-0.27,0.6-0.6
			v-3.2C1282.14,834.13,1281.87,833.86,1281.54,833.86z"/>
		<path class="st6" d="M1281.54,825.74h-3.16c-0.33,0-0.6,0.27-0.6,0.6v3.2c0,0.33,0.27,0.6,0.6,0.6h3.16c0.33,0,0.6-0.27,0.6-0.6
			v-3.2C1282.14,826.01,1281.87,825.74,1281.54,825.74z"/>
		<path class="st6" d="M1281.54,801.39h-3.16c-0.33,0-0.6,0.27-0.6,0.6v3.2c0,0.33,0.27,0.6,0.6,0.6h3.16c0.33,0,0.6-0.27,0.6-0.6
			V802C1282.14,801.66,1281.87,801.39,1281.54,801.39z"/>
		<path class="st6" d="M1281.54,817.62h-3.16c-0.33,0-0.6,0.27-0.6,0.6v3.2c0,0.33,0.27,0.6,0.6,0.6h3.16c0.33,0,0.6-0.27,0.6-0.6
			v-3.2C1282.14,817.89,1281.87,817.62,1281.54,817.62z"/>
		<path class="st6" d="M1281.54,809.51h-3.16c-0.33,0-0.6,0.27-0.6,0.6v3.2c0,0.33,0.27,0.6,0.6,0.6h3.16c0.33,0,0.6-0.27,0.6-0.6
			v-3.2C1282.14,809.78,1281.87,809.51,1281.54,809.51z"/>
		<path class="st6" d="M1216.44,699.49c-0.09-0.05-0.2-0.08-0.3-0.08c-0.05,0-0.11,0.01-0.16,0.02c-0.16,0.04-0.29,0.14-0.37,0.28
			l-1.57,2.74c-0.17,0.29-0.07,0.66,0.22,0.82l2.77,1.6c0.1,0.05,0.2,0.08,0.3,0.08c0.21,0,0.41-0.11,0.52-0.3l1.58-2.73
			c0.08-0.14,0.1-0.3,0.06-0.46c-0.04-0.16-0.14-0.29-0.28-0.37L1216.44,699.49z"/>
		<path class="st6" d="M1209.41,695.43c-0.09-0.05-0.2-0.08-0.3-0.08c-0.05,0-0.11,0.01-0.16,0.02c-0.16,0.04-0.29,0.14-0.37,0.28
			l-1.57,2.74c-0.17,0.29-0.07,0.66,0.22,0.82l2.76,1.6c0.1,0.06,0.2,0.08,0.3,0.08c0.21,0,0.41-0.11,0.52-0.3l1.58-2.73
			c0.08-0.14,0.1-0.3,0.06-0.46c-0.04-0.16-0.14-0.29-0.28-0.37L1209.41,695.43z"/>
		<path class="st6" d="M1230.49,707.61c-0.09-0.05-0.2-0.08-0.3-0.08c-0.05,0-0.11,0.01-0.16,0.02c-0.16,0.04-0.29,0.14-0.37,0.28
			l-1.57,2.74c-0.17,0.29-0.07,0.66,0.22,0.83l2.77,1.6c0.1,0.06,0.2,0.08,0.3,0.08c0.21,0,0.41-0.11,0.52-0.3l1.58-2.73
			c0.08-0.14,0.1-0.3,0.06-0.46c-0.04-0.16-0.14-0.29-0.28-0.37L1230.49,707.61z"/>
		<path class="st6" d="M1223.46,703.55c-0.09-0.05-0.2-0.08-0.3-0.08c-0.05,0-0.11,0.01-0.16,0.02c-0.16,0.04-0.29,0.14-0.37,0.28
			l-1.57,2.74c-0.17,0.29-0.07,0.66,0.22,0.82l2.77,1.6c0.1,0.05,0.2,0.08,0.3,0.08c0.21,0,0.41-0.11,0.52-0.3l1.58-2.73
			c0.08-0.14,0.1-0.3,0.06-0.46c-0.04-0.16-0.14-0.29-0.28-0.37L1223.46,703.55z"/>
		<path class="st6" d="M1202.38,691.38c-0.09-0.05-0.2-0.08-0.3-0.08c-0.05,0-0.11,0.01-0.16,0.02c-0.16,0.04-0.29,0.14-0.37,0.28
			l-1.57,2.74c-0.17,0.29-0.07,0.66,0.22,0.82l2.76,1.6c0.1,0.06,0.2,0.08,0.3,0.08c0.21,0,0.41-0.11,0.52-0.3l1.58-2.73
			c0.08-0.14,0.1-0.3,0.06-0.46c-0.04-0.16-0.14-0.29-0.28-0.37L1202.38,691.38z"/>
		<path class="st6" d="M1195.35,687.32c-0.09-0.05-0.2-0.08-0.3-0.08c-0.05,0-0.11,0.01-0.16,0.02c-0.16,0.04-0.29,0.14-0.37,0.28
			l-1.57,2.74c-0.17,0.29-0.07,0.66,0.22,0.82l2.76,1.6c0.1,0.06,0.2,0.08,0.3,0.08c0.21,0,0.41-0.11,0.52-0.3l1.58-2.73
			c0.08-0.14,0.1-0.3,0.06-0.46c-0.04-0.16-0.14-0.29-0.28-0.37L1195.35,687.32z"/>
		<path class="st6" d="M1188.32,683.26c-0.09-0.05-0.2-0.08-0.3-0.08c-0.05,0-0.11,0.01-0.16,0.02c-0.15,0.04-0.29,0.14-0.37,0.28
			l-1.57,2.74c-0.17,0.29-0.07,0.66,0.22,0.82l2.77,1.6c0.1,0.06,0.2,0.08,0.3,0.08c0.21,0,0.41-0.11,0.52-0.3l1.58-2.73
			c0.08-0.14,0.1-0.3,0.06-0.46c-0.04-0.16-0.14-0.29-0.28-0.37L1188.32,683.26z"/>
		<path class="st6" d="M1258.6,723.84c-0.09-0.05-0.2-0.08-0.3-0.08c-0.05,0-0.11,0.01-0.16,0.02c-0.16,0.04-0.29,0.14-0.37,0.28
			l-1.57,2.74c-0.17,0.29-0.07,0.66,0.22,0.82l2.77,1.6c0.1,0.06,0.2,0.08,0.3,0.08c0.21,0,0.41-0.11,0.52-0.3l1.58-2.73
			c0.08-0.14,0.1-0.3,0.06-0.46c-0.04-0.16-0.14-0.29-0.28-0.37L1258.6,723.84z"/>
		<path class="st6" d="M1265.63,727.9c-0.09-0.05-0.2-0.08-0.3-0.08c-0.05,0-0.11,0.01-0.16,0.02c-0.16,0.04-0.29,0.14-0.37,0.28
			l-1.57,2.74c-0.17,0.29-0.07,0.66,0.22,0.82l2.77,1.6c0.09,0.06,0.2,0.08,0.3,0.08c0.21,0,0.41-0.11,0.52-0.3l1.58-2.73
			c0.08-0.14,0.1-0.3,0.06-0.46c-0.04-0.16-0.14-0.29-0.28-0.37L1265.63,727.9z"/>
		<path class="st6" d="M1272.66,731.95c-0.09-0.05-0.2-0.08-0.3-0.08c-0.05,0-0.11,0.01-0.16,0.02c-0.16,0.04-0.29,0.14-0.37,0.28
			l-1.57,2.74c-0.17,0.29-0.07,0.66,0.22,0.82l2.77,1.6c0.1,0.06,0.2,0.08,0.3,0.08c0.21,0,0.41-0.11,0.52-0.3l1.58-2.73
			c0.08-0.14,0.1-0.3,0.06-0.46c-0.04-0.16-0.14-0.29-0.28-0.37L1272.66,731.95z"/>
		<path class="st6" d="M1237.52,711.66c-0.09-0.05-0.2-0.08-0.3-0.08c-0.05,0-0.11,0.01-0.16,0.02c-0.16,0.04-0.29,0.14-0.37,0.28
			l-1.57,2.74c-0.17,0.29-0.07,0.66,0.22,0.82l2.77,1.6c0.1,0.05,0.2,0.08,0.3,0.08c0.21,0,0.41-0.11,0.52-0.3l1.58-2.73
			c0.08-0.14,0.1-0.3,0.06-0.46c-0.04-0.16-0.14-0.29-0.28-0.37L1237.52,711.66z"/>
		<path class="st6" d="M1251.57,719.78c-0.09-0.05-0.2-0.08-0.3-0.08c-0.05,0-0.11,0.01-0.16,0.02c-0.16,0.04-0.29,0.14-0.37,0.28
			l-1.57,2.74c-0.17,0.29-0.07,0.66,0.22,0.82l2.77,1.6c0.1,0.05,0.2,0.08,0.3,0.08c0.21,0,0.41-0.11,0.52-0.3l1.58-2.73
			c0.08-0.14,0.1-0.3,0.06-0.46s-0.14-0.29-0.28-0.37L1251.57,719.78z"/>
		<path class="st6" d="M1244.54,715.72c-0.09-0.05-0.2-0.08-0.3-0.08c-0.05,0-0.11,0.01-0.16,0.02c-0.16,0.04-0.29,0.14-0.37,0.28
			l-1.57,2.74c-0.17,0.29-0.07,0.66,0.22,0.82l2.77,1.6c0.1,0.05,0.2,0.08,0.3,0.08c0.21,0,0.41-0.11,0.52-0.3l1.58-2.73
			c0.08-0.14,0.1-0.3,0.06-0.46c-0.04-0.16-0.14-0.29-0.28-0.37L1244.54,715.72z"/>
		<path class="st6" d="M1112.47,720.01c-0.11-0.19-0.32-0.3-0.52-0.3c-0.1,0-0.21,0.03-0.3,0.08l-2.77,1.6
			c-0.29,0.17-0.39,0.54-0.22,0.82l1.57,2.74c0.08,0.14,0.21,0.24,0.37,0.28c0.05,0.01,0.1,0.02,0.16,0.02
			c0.11,0,0.21-0.03,0.3-0.08l2.78-1.6c0.14-0.08,0.24-0.21,0.28-0.37c0.04-0.16,0.02-0.32-0.06-0.46L1112.47,720.01z"/>
		<path class="st6" d="M1091.39,732.18c-0.11-0.19-0.32-0.3-0.52-0.3c-0.1,0-0.21,0.03-0.3,0.08l-2.77,1.6
			c-0.29,0.17-0.39,0.54-0.22,0.82l1.57,2.74c0.08,0.14,0.21,0.24,0.37,0.28c0.05,0.01,0.1,0.02,0.16,0.02
			c0.11,0,0.21-0.03,0.3-0.08l2.78-1.6c0.14-0.08,0.24-0.21,0.28-0.37c0.04-0.16,0.02-0.32-0.06-0.46L1091.39,732.18z"/>
		<path class="st6" d="M1119.5,715.95c-0.11-0.19-0.32-0.3-0.52-0.3c-0.1,0-0.21,0.03-0.3,0.08l-2.77,1.6
			c-0.29,0.17-0.39,0.54-0.22,0.82l1.57,2.74c0.08,0.14,0.21,0.24,0.37,0.28c0.05,0.01,0.1,0.02,0.16,0.02
			c0.11,0,0.21-0.03,0.3-0.08l2.78-1.6c0.14-0.08,0.24-0.21,0.28-0.37c0.04-0.16,0.02-0.32-0.06-0.46L1119.5,715.95z"/>
		<path class="st6" d="M1105.44,724.06c-0.11-0.19-0.32-0.3-0.52-0.3c-0.1,0-0.21,0.03-0.3,0.08l-2.77,1.6
			c-0.29,0.17-0.39,0.54-0.22,0.82l1.57,2.74c0.08,0.14,0.21,0.24,0.37,0.28c0.05,0.01,0.1,0.02,0.16,0.02
			c0.11,0,0.21-0.03,0.3-0.08l2.78-1.6c0.14-0.08,0.24-0.21,0.28-0.37c0.04-0.15,0.02-0.32-0.06-0.46L1105.44,724.06z"/>
		<path class="st6" d="M1133.55,707.83c-0.11-0.19-0.32-0.3-0.52-0.3c-0.1,0-0.21,0.03-0.3,0.08l-2.77,1.6
			c-0.29,0.17-0.39,0.54-0.22,0.82l1.57,2.74c0.08,0.14,0.21,0.24,0.37,0.28c0.05,0.01,0.1,0.02,0.16,0.02
			c0.11,0,0.21-0.03,0.3-0.08l2.78-1.6c0.14-0.08,0.24-0.21,0.28-0.37c0.04-0.16,0.02-0.32-0.06-0.46L1133.55,707.83z"/>
		<path class="st6" d="M1098.41,728.12c-0.11-0.19-0.32-0.3-0.52-0.3c-0.1,0-0.21,0.03-0.3,0.08l-2.77,1.6
			c-0.29,0.17-0.39,0.54-0.22,0.82l1.57,2.74c0.08,0.14,0.21,0.24,0.37,0.28c0.05,0.01,0.1,0.02,0.16,0.02
			c0.11,0,0.21-0.03,0.3-0.08l2.78-1.6c0.14-0.08,0.24-0.21,0.28-0.37c0.04-0.16,0.02-0.32-0.06-0.46L1098.41,728.12z"/>
		<path class="st6" d="M1168.69,687.54c-0.11-0.19-0.32-0.3-0.52-0.3c-0.1,0-0.21,0.03-0.3,0.08l-2.76,1.6
			c-0.29,0.17-0.39,0.54-0.22,0.82l1.57,2.74c0.08,0.14,0.21,0.24,0.37,0.28c0.05,0.01,0.1,0.02,0.16,0.02
			c0.11,0,0.21-0.03,0.3-0.08l2.78-1.6c0.14-0.08,0.24-0.21,0.28-0.37s0.02-0.32-0.06-0.46L1168.69,687.54z"/>
		<path class="st6" d="M1175.72,683.48c-0.11-0.19-0.32-0.3-0.52-0.3c-0.1,0-0.21,0.03-0.3,0.08l-2.76,1.6
			c-0.29,0.17-0.39,0.54-0.22,0.82l1.57,2.74c0.08,0.14,0.21,0.24,0.37,0.28c0.05,0.01,0.1,0.02,0.16,0.02
			c0.11,0,0.21-0.03,0.3-0.08l2.78-1.6c0.14-0.08,0.24-0.21,0.28-0.37c0.04-0.16,0.02-0.32-0.06-0.46L1175.72,683.48z"/>
		<path class="st6" d="M1140.58,703.77c-0.11-0.19-0.32-0.3-0.52-0.3c-0.1,0-0.21,0.03-0.3,0.08l-2.76,1.6
			c-0.29,0.17-0.39,0.54-0.22,0.82l1.57,2.74c0.08,0.14,0.21,0.24,0.37,0.28c0.05,0.01,0.1,0.02,0.16,0.02
			c0.11,0,0.21-0.03,0.3-0.08l2.78-1.6c0.14-0.08,0.24-0.21,0.28-0.37c0.04-0.16,0.02-0.32-0.06-0.46L1140.58,703.77z"/>
		<path class="st6" d="M1161.67,691.6c-0.11-0.19-0.32-0.3-0.52-0.3c-0.1,0-0.21,0.03-0.3,0.08l-2.77,1.6
			c-0.29,0.17-0.39,0.54-0.22,0.82l1.57,2.74c0.08,0.14,0.21,0.24,0.37,0.28c0.05,0.01,0.1,0.02,0.16,0.02
			c0.11,0,0.21-0.03,0.3-0.08l2.78-1.6c0.14-0.08,0.24-0.21,0.28-0.37c0.04-0.16,0.02-0.32-0.06-0.46L1161.67,691.6z"/>
		<path class="st6" d="M1147.61,699.71c-0.11-0.19-0.32-0.3-0.52-0.3c-0.1,0-0.21,0.03-0.3,0.08l-2.77,1.6
			c-0.29,0.17-0.39,0.54-0.22,0.82l1.57,2.74c0.08,0.14,0.21,0.24,0.37,0.28c0.05,0.01,0.1,0.02,0.16,0.02
			c0.11,0,0.21-0.03,0.3-0.08l2.78-1.6c0.14-0.08,0.24-0.21,0.28-0.37c0.04-0.16,0.02-0.32-0.06-0.46L1147.61,699.71z"/>
		<path class="st6" d="M1154.64,695.66c-0.11-0.19-0.32-0.3-0.52-0.3c-0.1,0-0.21,0.03-0.3,0.08l-2.76,1.6
			c-0.29,0.17-0.39,0.54-0.22,0.82l1.57,2.74c0.08,0.14,0.21,0.24,0.37,0.28c0.05,0.01,0.1,0.02,0.16,0.02
			c0.11,0,0.21-0.03,0.3-0.08l2.78-1.6c0.14-0.08,0.24-0.21,0.28-0.37c0.04-0.16,0.02-0.32-0.06-0.46L1154.64,695.66z"/>
		<path class="st6" d="M1126.53,711.89c-0.11-0.19-0.32-0.3-0.52-0.3c-0.1,0-0.21,0.03-0.3,0.08l-2.76,1.6
			c-0.29,0.17-0.39,0.54-0.22,0.82l1.57,2.74c0.08,0.14,0.21,0.24,0.37,0.28c0.05,0.01,0.1,0.02,0.16,0.02
			c0.11,0,0.21-0.03,0.3-0.08l2.78-1.6c0.14-0.08,0.24-0.21,0.28-0.37c0.04-0.16,0.02-0.32-0.06-0.46L1126.53,711.89z"/>
		<path class="st6" d="M1084.84,809.51h-3.16c-0.33,0-0.6,0.27-0.6,0.6v3.2c0,0.33,0.27,0.6,0.6,0.6h3.16c0.33,0,0.6-0.27,0.6-0.6
			v-3.2C1085.44,809.78,1085.17,809.51,1084.84,809.51z"/>
		<path class="st6" d="M1084.84,801.39h-3.16c-0.33,0-0.6,0.27-0.6,0.6v3.2c0,0.33,0.27,0.6,0.6,0.6h3.16c0.33,0,0.6-0.27,0.6-0.6
			V802C1085.44,801.66,1085.17,801.39,1084.84,801.39z"/>
		<path class="st6" d="M1084.84,817.62h-3.16c-0.33,0-0.6,0.27-0.6,0.6v3.2c0,0.33,0.27,0.6,0.6,0.6h3.16c0.33,0,0.6-0.27,0.6-0.6
			v-3.2C1085.44,817.89,1085.17,817.62,1084.84,817.62z"/>
		<path class="st6" d="M1084.84,825.74h-3.16c-0.33,0-0.6,0.27-0.6,0.6v3.2c0,0.33,0.27,0.6,0.6,0.6h3.16c0.33,0,0.6-0.27,0.6-0.6
			v-3.2C1085.44,826.01,1085.17,825.74,1084.84,825.74z"/>
		<path class="st6" d="M1084.84,841.97h-3.16c-0.33,0-0.6,0.27-0.6,0.6v3.2c0,0.33,0.27,0.6,0.6,0.6h3.16c0.33,0,0.6-0.27,0.6-0.6
			v-3.2C1085.44,842.24,1085.17,841.97,1084.84,841.97z"/>
		<path class="st6" d="M1084.84,833.86h-3.16c-0.33,0-0.6,0.27-0.6,0.6v3.2c0,0.33,0.27,0.6,0.6,0.6h3.16c0.33,0,0.6-0.27,0.6-0.6
			v-3.2C1085.44,834.13,1085.17,833.86,1084.84,833.86z"/>
		<path class="st6" d="M1084.84,785.16h-3.16c-0.33,0-0.6,0.27-0.6,0.6v3.2c0,0.33,0.27,0.6,0.6,0.6h3.16c0.33,0,0.6-0.27,0.6-0.6
			v-3.2C1085.44,785.43,1085.17,785.16,1084.84,785.16z"/>
		<path class="st6" d="M1084.84,760.81h-3.16c-0.33,0-0.6,0.27-0.6,0.6v3.2c0,0.33,0.27,0.6,0.6,0.6h3.16c0.33,0,0.6-0.27,0.6-0.6
			v-3.2C1085.44,761.08,1085.17,760.81,1084.84,760.81z"/>
		<path class="st6" d="M1084.84,752.7h-3.16c-0.33,0-0.6,0.27-0.6,0.6v3.2c0,0.33,0.27,0.6,0.6,0.6h3.16c0.33,0,0.6-0.27,0.6-0.6
			v-3.2C1085.44,752.97,1085.17,752.7,1084.84,752.7z"/>
		<path class="st6" d="M1084.84,793.28h-3.16c-0.33,0-0.6,0.27-0.6,0.6v3.2c0,0.33,0.27,0.6,0.6,0.6h3.16c0.33,0,0.6-0.27,0.6-0.6
			v-3.2C1085.44,793.55,1085.17,793.28,1084.84,793.28z"/>
		<path class="st6" d="M1084.84,744.58h-3.16c-0.33,0-0.6,0.27-0.6,0.6v3.2c0,0.33,0.27,0.6,0.6,0.6h3.16c0.33,0,0.6-0.27,0.6-0.6
			v-3.2C1085.44,744.85,1085.17,744.58,1084.84,744.58z"/>
		<path class="st6" d="M1084.84,777.04h-3.16c-0.33,0-0.6,0.27-0.6,0.6v3.2c0,0.33,0.27,0.6,0.6,0.6h3.16c0.33,0,0.6-0.27,0.6-0.6
			v-3.2C1085.44,777.32,1085.17,777.04,1084.84,777.04z"/>
		<path class="st6" d="M1084.84,768.93h-3.16c-0.33,0-0.6,0.27-0.6,0.6v3.2c0,0.33,0.27,0.6,0.6,0.6h3.16c0.33,0,0.6-0.27,0.6-0.6
			v-3.2C1085.44,769.2,1085.17,768.93,1084.84,768.93z"/>
		<path class="st6" d="M1146.2,886.09c-0.1-0.06-0.2-0.08-0.3-0.08c-0.21,0-0.41,0.11-0.52,0.3l-1.58,2.73
			c-0.08,0.14-0.1,0.3-0.06,0.46c0.04,0.16,0.14,0.29,0.28,0.37l2.78,1.6c0.09,0.05,0.2,0.08,0.3,0.08c0.05,0,0.11-0.01,0.16-0.02
			c0.16-0.04,0.29-0.14,0.37-0.28l1.57-2.74c0.17-0.29,0.07-0.66-0.22-0.82L1146.2,886.09z"/>
		<path class="st6" d="M1153.23,890.15c-0.1-0.06-0.2-0.08-0.3-0.08c-0.21,0-0.41,0.11-0.52,0.3l-1.58,2.73
			c-0.08,0.14-0.1,0.3-0.06,0.46c0.04,0.16,0.14,0.29,0.28,0.37l2.78,1.6c0.09,0.05,0.2,0.08,0.3,0.08c0.05,0,0.11-0.01,0.16-0.02
			c0.16-0.04,0.29-0.14,0.37-0.28l1.57-2.74c0.17-0.29,0.07-0.66-0.22-0.82L1153.23,890.15z"/>
		<path class="st6" d="M1132.15,877.97c-0.1-0.06-0.2-0.08-0.3-0.08c-0.21,0-0.41,0.11-0.52,0.3l-1.58,2.73
			c-0.08,0.14-0.1,0.3-0.06,0.46c0.04,0.16,0.14,0.29,0.28,0.37l2.78,1.6c0.09,0.05,0.2,0.08,0.3,0.08c0.05,0,0.11-0.01,0.16-0.02
			c0.16-0.04,0.29-0.14,0.37-0.28l1.57-2.74c0.17-0.29,0.07-0.66-0.22-0.82L1132.15,877.97z"/>
		<path class="st6" d="M1174.31,902.32c-0.1-0.06-0.2-0.08-0.3-0.08c-0.21,0-0.41,0.11-0.52,0.3l-1.58,2.73
			c-0.08,0.14-0.1,0.3-0.06,0.46c0.04,0.16,0.14,0.29,0.28,0.37l2.78,1.6c0.09,0.05,0.2,0.08,0.3,0.08c0.05,0,0.11-0.01,0.16-0.02
			c0.15-0.04,0.29-0.14,0.37-0.28l1.57-2.74c0.17-0.29,0.07-0.66-0.22-0.82L1174.31,902.32z"/>
		<path class="st6" d="M1160.25,894.2c-0.1-0.06-0.2-0.08-0.3-0.08c-0.21,0-0.41,0.11-0.52,0.3l-1.58,2.73
			c-0.08,0.14-0.1,0.3-0.06,0.46c0.04,0.16,0.14,0.29,0.28,0.37l2.78,1.6c0.09,0.05,0.2,0.08,0.3,0.08c0.05,0,0.11-0.01,0.16-0.02
			c0.16-0.04,0.29-0.14,0.37-0.28l1.57-2.74c0.17-0.29,0.07-0.66-0.22-0.82L1160.25,894.2z"/>
		<path class="st6" d="M1167.28,898.26c-0.09-0.06-0.2-0.08-0.3-0.08c-0.21,0-0.41,0.11-0.52,0.3l-1.58,2.73
			c-0.08,0.14-0.1,0.3-0.06,0.46c0.04,0.16,0.14,0.29,0.28,0.37l2.78,1.6c0.09,0.05,0.2,0.08,0.3,0.08c0.05,0,0.11-0.01,0.16-0.02
			c0.16-0.04,0.29-0.14,0.37-0.28l1.57-2.74c0.17-0.29,0.07-0.66-0.22-0.82L1167.28,898.26z"/>
		<path class="st6" d="M1139.17,882.03c-0.1-0.06-0.2-0.08-0.3-0.08c-0.21,0-0.41,0.11-0.52,0.3l-1.58,2.73
			c-0.08,0.14-0.1,0.3-0.06,0.46c0.04,0.16,0.14,0.29,0.28,0.37l2.78,1.6c0.09,0.05,0.2,0.08,0.3,0.08c0.05,0,0.11-0.01,0.16-0.02
			c0.16-0.04,0.29-0.14,0.37-0.28l1.57-2.74c0.17-0.29,0.07-0.66-0.22-0.82L1139.17,882.03z"/>
		<path class="st6" d="M1097,857.68c-0.09-0.06-0.2-0.08-0.3-0.08c-0.21,0-0.41,0.11-0.52,0.3l-1.58,2.73
			c-0.08,0.14-0.1,0.3-0.06,0.46c0.04,0.16,0.14,0.29,0.28,0.37l2.78,1.6c0.09,0.05,0.2,0.08,0.3,0.08c0.05,0,0.11-0.01,0.16-0.02
			c0.16-0.04,0.29-0.14,0.37-0.28l1.57-2.74c0.17-0.29,0.07-0.66-0.22-0.82L1097,857.68z"/>
		<path class="st6" d="M1089.98,853.63c-0.1-0.06-0.2-0.08-0.3-0.08c-0.21,0-0.41,0.11-0.52,0.3l-1.58,2.73
			c-0.08,0.14-0.1,0.3-0.06,0.46c0.04,0.16,0.14,0.29,0.28,0.37l2.78,1.6c0.09,0.05,0.2,0.08,0.3,0.08c0.05,0,0.11-0.01,0.16-0.02
			c0.16-0.04,0.29-0.14,0.37-0.28l1.57-2.74c0.17-0.29,0.07-0.66-0.22-0.82L1089.98,853.63z"/>
		<path class="st6" d="M1125.12,873.91c-0.1-0.06-0.2-0.08-0.3-0.08c-0.21,0-0.41,0.11-0.52,0.3l-1.58,2.73
			c-0.08,0.14-0.1,0.3-0.06,0.46c0.04,0.16,0.14,0.29,0.28,0.37l2.78,1.6c0.09,0.05,0.2,0.08,0.3,0.08c0.05,0,0.11-0.01,0.16-0.02
			c0.16-0.04,0.29-0.14,0.37-0.28l1.57-2.74c0.17-0.29,0.07-0.66-0.22-0.82L1125.12,873.91z"/>
		<path class="st6" d="M1104.03,861.74c-0.1-0.06-0.2-0.08-0.3-0.08c-0.21,0-0.41,0.11-0.52,0.3l-1.58,2.73
			c-0.08,0.14-0.1,0.3-0.06,0.46c0.04,0.16,0.14,0.29,0.28,0.37l2.78,1.6c0.09,0.05,0.2,0.08,0.3,0.08c0.05,0,0.11-0.01,0.16-0.02
			c0.16-0.04,0.29-0.14,0.37-0.28l1.57-2.74c0.17-0.29,0.07-0.66-0.22-0.82L1104.03,861.74z"/>
		<path class="st6" d="M1118.09,869.86c-0.1-0.06-0.2-0.08-0.3-0.08c-0.21,0-0.41,0.11-0.52,0.3l-1.58,2.73
			c-0.08,0.14-0.1,0.3-0.06,0.46c0.04,0.15,0.14,0.29,0.28,0.37l2.78,1.6c0.09,0.05,0.2,0.08,0.3,0.08c0.05,0,0.11-0.01,0.16-0.02
			c0.16-0.04,0.29-0.14,0.37-0.28l1.57-2.74c0.17-0.29,0.07-0.66-0.22-0.82L1118.09,869.86z"/>
		<path class="st6" d="M1111.06,865.8c-0.1-0.06-0.2-0.08-0.3-0.08c-0.21,0-0.41,0.11-0.52,0.3l-1.58,2.73
			c-0.08,0.14-0.1,0.3-0.06,0.46c0.04,0.16,0.14,0.29,0.28,0.37l2.78,1.6c0.09,0.05,0.2,0.08,0.3,0.08c0.05,0,0.11-0.01,0.16-0.02
			c0.16-0.04,0.29-0.14,0.37-0.28l1.57-2.74c0.17-0.29,0.07-0.66-0.22-0.82L1111.06,865.8z"/>
		<path class="st6" d="M1182.72,906.6c-0.08-0.14-0.21-0.24-0.37-0.28c-0.05-0.01-0.1-0.02-0.16-0.02c-0.11,0-0.21,0.03-0.3,0.08
			l-0.28,0.16l-0.28-0.16c-0.09-0.05-0.2-0.08-0.3-0.08c-0.05,0-0.11,0.01-0.16,0.02c-0.16,0.04-0.29,0.14-0.37,0.28l-1.57,2.74
			c-0.17,0.29-0.07,0.66,0.22,0.82l2.15,1.24c0.09,0.05,0.2,0.08,0.3,0.08s0.21-0.03,0.3-0.08l2.15-1.24
			c0.29-0.17,0.39-0.54,0.22-0.82L1182.72,906.6z"/>
		<path class="st6" d="M1252.99,866.02c-0.08-0.14-0.21-0.24-0.37-0.28c-0.05-0.01-0.1-0.02-0.16-0.02c-0.11,0-0.21,0.03-0.3,0.08
			l-2.78,1.6c-0.14,0.08-0.24,0.21-0.28,0.37c-0.04,0.16-0.02,0.32,0.06,0.46l1.58,2.73c0.11,0.19,0.32,0.3,0.52,0.3
			c0.1,0,0.21-0.03,0.3-0.08l2.77-1.6c0.29-0.17,0.39-0.54,0.22-0.82L1252.99,866.02z"/>
		<path class="st6" d="M1245.97,870.08c-0.08-0.14-0.21-0.24-0.37-0.28c-0.05-0.01-0.1-0.02-0.16-0.02c-0.11,0-0.21,0.03-0.3,0.08
			l-2.78,1.6c-0.14,0.08-0.24,0.21-0.28,0.37c-0.04,0.15-0.02,0.32,0.06,0.46l1.58,2.73c0.11,0.19,0.32,0.3,0.52,0.3
			c0.1,0,0.21-0.03,0.3-0.08l2.77-1.6c0.29-0.17,0.39-0.54,0.22-0.82L1245.97,870.08z"/>
		<path class="st6" d="M1260.02,861.96c-0.08-0.14-0.21-0.24-0.37-0.28c-0.05-0.01-0.1-0.02-0.16-0.02c-0.11,0-0.21,0.03-0.3,0.08
			l-2.78,1.6c-0.14,0.08-0.24,0.21-0.28,0.37c-0.04,0.16-0.02,0.32,0.06,0.46l1.58,2.73c0.11,0.19,0.32,0.3,0.52,0.3
			c0.1,0,0.21-0.03,0.3-0.08l2.76-1.6c0.29-0.17,0.39-0.54,0.22-0.82L1260.02,861.96z"/>
		<path class="st6" d="M1267.05,857.9c-0.08-0.14-0.21-0.24-0.37-0.28c-0.05-0.01-0.1-0.02-0.16-0.02c-0.11,0-0.21,0.03-0.3,0.08
			l-2.78,1.6c-0.14,0.08-0.24,0.21-0.28,0.37c-0.04,0.16-0.02,0.32,0.06,0.46l1.58,2.73c0.11,0.19,0.32,0.3,0.52,0.3
			c0.1,0,0.21-0.03,0.3-0.08l2.77-1.6c0.29-0.17,0.39-0.54,0.22-0.82L1267.05,857.9z"/>
		<path class="st6" d="M1238.94,874.14c-0.08-0.14-0.21-0.24-0.37-0.28c-0.05-0.01-0.1-0.02-0.16-0.02c-0.11,0-0.21,0.03-0.3,0.08
			l-2.78,1.6c-0.14,0.08-0.24,0.21-0.28,0.37c-0.04,0.16-0.02,0.32,0.06,0.46l1.58,2.73c0.11,0.19,0.32,0.3,0.52,0.3
			c0.1,0,0.21-0.03,0.3-0.08l2.77-1.6c0.29-0.17,0.39-0.54,0.22-0.82L1238.94,874.14z"/>
		<path class="st6" d="M1274.08,853.84c-0.08-0.14-0.21-0.24-0.37-0.28c-0.05-0.01-0.1-0.02-0.16-0.02c-0.11,0-0.21,0.03-0.3,0.08
			l-2.78,1.6c-0.14,0.08-0.24,0.21-0.28,0.37c-0.04,0.16-0.02,0.32,0.06,0.46l1.58,2.73c0.11,0.19,0.32,0.3,0.52,0.3
			c0.1,0,0.21-0.03,0.3-0.08l2.77-1.6c0.29-0.17,0.39-0.54,0.22-0.82L1274.08,853.84z"/>
		<path class="st6" d="M1189.74,902.54c-0.08-0.14-0.21-0.24-0.37-0.28c-0.05-0.01-0.1-0.02-0.16-0.02c-0.11,0-0.21,0.03-0.3,0.08
			l-2.78,1.6c-0.14,0.08-0.24,0.21-0.28,0.37c-0.04,0.16-0.02,0.32,0.06,0.46l1.58,2.73c0.11,0.19,0.32,0.3,0.52,0.3
			c0.1,0,0.21-0.03,0.3-0.08l2.77-1.6c0.29-0.17,0.39-0.54,0.22-0.82L1189.74,902.54z"/>
		<path class="st6" d="M1203.8,894.42c-0.08-0.14-0.21-0.24-0.37-0.28c-0.05-0.01-0.1-0.02-0.16-0.02c-0.11,0-0.21,0.03-0.3,0.08
			l-2.78,1.6c-0.14,0.08-0.24,0.21-0.28,0.37c-0.04,0.16-0.02,0.32,0.06,0.46l1.58,2.73c0.11,0.19,0.32,0.3,0.52,0.3
			c0.1,0,0.21-0.03,0.3-0.08l2.76-1.6c0.29-0.17,0.39-0.54,0.22-0.82L1203.8,894.42z"/>
		<path class="st6" d="M1196.77,898.48c-0.08-0.14-0.21-0.24-0.37-0.28c-0.05-0.01-0.1-0.02-0.16-0.02c-0.11,0-0.21,0.03-0.3,0.08
			l-2.78,1.6c-0.14,0.08-0.24,0.21-0.28,0.37c-0.04,0.16-0.02,0.32,0.06,0.46l1.58,2.73c0.11,0.19,0.32,0.3,0.52,0.3
			c0.1,0,0.21-0.03,0.3-0.08l2.77-1.6c0.29-0.17,0.39-0.54,0.22-0.82L1196.77,898.48z"/>
		<path class="st6" d="M1210.83,890.37c-0.08-0.14-0.21-0.24-0.37-0.28c-0.05-0.01-0.1-0.02-0.16-0.02c-0.11,0-0.21,0.03-0.3,0.08
			l-2.78,1.6c-0.14,0.08-0.24,0.21-0.28,0.37c-0.04,0.15-0.02,0.32,0.06,0.46l1.58,2.73c0.11,0.19,0.32,0.3,0.52,0.3
			c0.1,0,0.21-0.03,0.3-0.08l2.76-1.6c0.29-0.17,0.39-0.54,0.22-0.82L1210.83,890.37z"/>
		<path class="st6" d="M1217.85,886.31c-0.08-0.14-0.21-0.24-0.37-0.28c-0.05-0.01-0.1-0.02-0.16-0.02c-0.11,0-0.21,0.03-0.3,0.08
			l-2.78,1.6c-0.14,0.08-0.24,0.21-0.28,0.37c-0.04,0.16-0.02,0.32,0.06,0.46l1.58,2.73c0.11,0.19,0.32,0.3,0.52,0.3
			c0.1,0,0.21-0.03,0.3-0.08l2.77-1.6c0.29-0.17,0.39-0.54,0.22-0.83L1217.85,886.31z"/>
		<path class="st6" d="M1224.88,882.25c-0.08-0.14-0.21-0.24-0.37-0.28c-0.05-0.01-0.1-0.02-0.16-0.02c-0.11,0-0.21,0.03-0.3,0.08
			l-2.78,1.6c-0.14,0.08-0.24,0.21-0.28,0.37c-0.04,0.16-0.02,0.32,0.06,0.46l1.58,2.73c0.11,0.19,0.32,0.3,0.52,0.3
			c0.1,0,0.21-0.03,0.3-0.08l2.76-1.6c0.29-0.17,0.39-0.54,0.22-0.82L1224.88,882.25z"/>
		<path class="st6" d="M1231.91,878.19c-0.08-0.14-0.21-0.24-0.37-0.28c-0.05-0.01-0.1-0.02-0.16-0.02c-0.11,0-0.21,0.03-0.3,0.08
			l-2.78,1.6c-0.14,0.08-0.24,0.21-0.28,0.37c-0.04,0.15-0.02,0.32,0.06,0.46l1.58,2.73c0.11,0.19,0.32,0.3,0.52,0.3
			c0.1,0,0.21-0.03,0.3-0.08l2.76-1.6c0.29-0.17,0.39-0.54,0.22-0.82L1231.91,878.19z"/>
		<path class="st6" d="M1085.36,737.97l-0.99-1.73c-0.08-0.14-0.21-0.24-0.37-0.28c-0.05-0.01-0.1-0.02-0.16-0.02
			c-0.11,0-0.21,0.03-0.3,0.08l-2.16,1.25c-0.19,0.11-0.3,0.31-0.3,0.52v2.49c0,0.33,0.27,0.6,0.6,0.6h3.16c0.33,0,0.6-0.27,0.6-0.6
			v-0.67l0-1.34C1085.44,738.16,1085.41,738.06,1085.36,737.97z"/>
		<path class="st6" d="M1278.38,740.88h3.16c0.33,0,0.6-0.27,0.6-0.6v-2.49c0-0.22-0.12-0.42-0.3-0.52l-2.16-1.25
			c-0.09-0.05-0.2-0.08-0.3-0.08c-0.05,0-0.11,0.01-0.16,0.02c-0.16,0.04-0.29,0.14-0.37,0.28l-0.99,1.73
			c-0.05,0.09-0.08,0.2-0.08,0.3l0,1.34v0.67C1277.78,740.61,1278.05,740.88,1278.38,740.88z"/>
	</g>
</g>
</svg>
