<?xml version="1.0" encoding="utf-8"?>
<!-- Generator: Adobe Illustrator 24.1.2, SVG Export Plug-In . SVG Version: 6.00 Build 0)  -->
<svg version="1.1" id="Layer_1" xmlns="http://www.w3.org/2000/svg" xmlns:xlink="http://www.w3.org/1999/xlink" x="0px" y="0px"
	 viewBox="0 0 1235 325" style="enable-background:new 0 0 1235 325;" xml:space="preserve">
<style type="text/css">
	.st0{fill:#2B3176;}
	.st1{enable-background:new    ;}
</style>
<g>
	<g>
		<path class="st0" d="M372.5,222.63c-27.21,0-49.35-22.14-49.35-49.35s22.14-49.35,49.35-49.35c27.21,0,49.35,22.14,49.35,49.35
			S399.71,222.63,372.5,222.63z"/>
	</g>
	<g>
		<path class="st0" d="M467.61,226.69l-0.63-1.1L374.23,64.94l-0.63-1.1l-1.1-1.9l-1.1,1.9l-0.64,1.1l-92.74,160.65l-0.63,1.1
			l-1.1,1.91h2.2h1.27h185.49h1.26h2.2L467.61,226.69z M389.75,225.59c-58.88,0,26.59,0-34.63,0h-73.63l36.78-63.71
			c23.28-40.32-11.07,19.18,17.38-30.1l36.85-63.84l36.77,63.7c4.84,8.38,7.6,13.17,9.1,15.76c0.02,0.03,0.04,0.08,0.07,0.11
			c0,0.01,0.01,0.01,0.01,0.02l0,0c0.06,0.11,0.14,0.24,0.23,0.4c-0.01-0.01-0.01-0.03-0.02-0.04c0.54,0.94,0.88,1.53,1.08,1.87
			c-0.13-0.22-0.3-0.51-0.48-0.83c1.15,1.99,3.38,5.85,7.42,12.86l36.83,63.79h-73.76V225.59z"/>
	</g>
	<g class="st1">
		<path class="st0" d="M223.19,52.39l-0.25,0.49c8.2,19.02,13.16,40.17,14.88,63.46c1.72,23.28,2.5,65.1,2.34,125.44h-16.72
			c0-37.55-0.12-63.74-0.37-78.58c-0.25-14.84-1.11-30.78-2.58-47.84c-1.48-17.05-3.85-31.32-7.13-42.79
			c-19.18,40.01-35.91,82.31-50.17,126.91h-15.74c-14.27-44.6-30.91-86.98-49.93-127.16c-3.44,11.64-5.9,25.95-7.38,42.92
			c-1.48,16.97-2.34,32.92-2.58,47.84c-0.25,14.92-0.37,41.16-0.37,78.7H70.46c-0.17-60.5,0.61-102.35,2.34-125.56
			c1.72-23.2,6.76-44.39,15.13-63.58l-0.25-0.25h16.97v0.25c17.87,35.09,34.76,76.08,50.67,122.98
			c15.9-46.73,32.87-87.64,50.91-122.73l-0.25-0.49H223.19z"/>
	</g>
	<g>
		<g class="st1">
			<path class="st0" d="M504.91,56.42l16.72-1.48v147.32c0,10.5,2.05,17.71,6.15,21.64c4.1,3.94,10.74,5.9,19.92,5.9
				c3.6,0,6.64-0.49,9.1-1.48v14.76c-2.13,1.64-5.58,2.46-10.33,2.46c-27.71,0-41.57-13.77-41.57-41.32V56.42z"/>
			<path class="st0" d="M633.78,106.1c13.93,0,25.78,3.61,35.54,10.82c9.75,7.22,16.6,16.23,20.54,27.05
				c3.93,10.82,5.41,22.55,4.43,35.17H586.07c0.49,15.09,5.16,27.71,14.02,37.88c8.85,10.17,20.74,15.25,35.66,15.25
				c12.13,0,24.59-3.77,37.38-11.31l8.61,12.54c-14.1,9.51-29.51,14.27-46.24,14.27c-20.83,0-37.02-6.93-48.58-20.78
				c-11.56-13.85-17.34-30.7-17.34-50.54c0-19.68,5.53-36.32,16.6-49.93C597.26,112.9,613.12,106.1,633.78,106.1z M586.81,165.37
				h90.76c-0.49-12.13-4.63-22.5-12.42-31.11c-7.79-8.61-18.32-12.91-31.6-12.91s-23.94,4.1-31.97,12.3
				C593.53,141.84,588.61,152.42,586.81,165.37z"/>
			<path class="st0" d="M813.57,217.76l11.81,10.82c-11.64,12.79-26.89,19.19-45.75,19.19c-13.94,0-26.03-3.4-36.28-10.21
				c-10.25-6.8-17.79-15.5-22.63-26.07c-4.84-10.57-7.26-22.26-7.26-35.05c0-19.51,5.82-36.11,17.46-49.81
				c11.64-13.69,27.87-20.54,48.7-20.54c19.18,0,34.51,6.23,45.99,18.69l-11.81,11.31c-9.35-9.84-20.66-14.76-33.94-14.76
				c-15.25,0-27.47,5.33-36.65,15.99c-9.18,10.66-13.77,23.86-13.77,39.6c0,15.41,4.55,28.45,13.65,39.11
				c9.1,10.66,21.19,15.99,36.28,15.99C792.67,232.02,804.06,227.27,813.57,217.76z"/>
			<path class="st0" d="M955.98,107.82v126.42c-0.98,0.33-2.87,1.07-5.66,2.21c-2.79,1.15-4.76,1.97-5.9,2.46
				c-1.15,0.49-2.99,1.19-5.53,2.09c-2.54,0.9-4.63,1.6-6.27,2.09c-1.64,0.49-3.73,1.07-6.27,1.72c-2.54,0.66-4.92,1.11-7.13,1.35
				c-2.21,0.25-4.72,0.49-7.5,0.74c-2.79,0.25-5.58,0.37-8.36,0.37c-8.2,0-16.27-1.72-24.23-5.17c-7.96-3.44-14.84-8.98-20.66-16.6
				c-5.82-7.63-8.73-16.52-8.73-26.69v-89.53l16.72-1.48v86.82c0,11.31,3.77,20.25,11.31,26.81c7.54,6.56,16.23,9.84,26.07,9.84
				c11.15,0,22.95-2.62,35.42-7.87V109.29L955.98,107.82z"/>
			<path class="st0" d="M990.41,56.42l16.72-1.48v147.32c0,10.5,2.05,17.71,6.15,21.64c4.1,3.94,10.74,5.9,19.92,5.9
				c3.6,0,6.64-0.49,9.1-1.48v14.76c-2.13,1.64-5.58,2.46-10.33,2.46c-27.71,0-41.57-13.77-41.57-41.32V56.42z"/>
			<path class="st0" d="M1118.06,106.1c12.95,0,24.88,4.35,35.79,13.04c10.9,8.69,16.36,20.5,16.36,35.42v80.43
				c-0.82,0.33-2.58,1.07-5.29,2.21c-2.71,1.15-4.55,1.93-5.53,2.34c-0.98,0.41-2.75,1.11-5.29,2.09c-2.54,0.98-4.55,1.68-6.03,2.09
				c-1.48,0.41-3.44,0.95-5.9,1.6c-2.46,0.65-4.76,1.11-6.89,1.35c-2.13,0.25-4.55,0.49-7.26,0.74s-5.45,0.37-8.24,0.37
				c-40.67,0-61-15.74-61-47.22c0-8.69,2.05-16.11,6.15-22.26c4.1-6.15,9.47-10.74,16.11-13.77c6.64-3.03,13.12-5.16,19.43-6.39
				c6.31-1.23,12.75-1.84,19.31-1.84c11.97,0,23.37,2.13,34.19,6.39v-5.17c0-11.31-3.57-20.21-10.7-26.69
				c-7.13-6.47-15.7-9.71-25.7-9.71c-12.3,0-24.02,2.3-35.17,6.89l-5.9-13.04C1089.28,109.05,1103.14,106.1,1118.06,106.1z
				 M1074.77,200.54c0,11.15,3.65,19.31,10.94,24.47c7.29,5.17,18.65,7.75,34.06,7.75c10.98,0,22.38-2.62,34.19-7.87v-46.73
				c-10.99-5.08-22.3-7.62-33.94-7.62C1089.85,170.54,1074.77,180.54,1074.77,200.54z"/>
		</g>
	</g>
	<g>
		<path class="st0" d="M472.43,154.67h-3.16c-0.33,0-0.6,0.27-0.6,0.6v3.2c0,0.33,0.27,0.6,0.6,0.6h3.16c0.33,0,0.6-0.27,0.6-0.6
			v-3.2C473.03,154.94,472.76,154.67,472.43,154.67z"/>
		<path class="st0" d="M472.43,170.9h-3.16c-0.33,0-0.6,0.27-0.6,0.6v3.2c0,0.33,0.27,0.6,0.6,0.6h3.16c0.33,0,0.6-0.27,0.6-0.6
			v-3.2C473.03,171.17,472.76,170.9,472.43,170.9z"/>
		<path class="st0" d="M472.43,146.55h-3.16c-0.33,0-0.6,0.27-0.6,0.6v3.2c0,0.33,0.27,0.6,0.6,0.6h3.16c0.33,0,0.6-0.27,0.6-0.6
			v-3.2C473.03,146.82,472.76,146.55,472.43,146.55z"/>
		<path class="st0" d="M472.43,162.78h-3.16c-0.33,0-0.6,0.27-0.6,0.6v3.2c0,0.33,0.27,0.6,0.6,0.6h3.16c0.33,0,0.6-0.27,0.6-0.6
			v-3.2C473.03,163.05,472.76,162.78,472.43,162.78z"/>
		<path class="st0" d="M472.43,130.32h-3.16c-0.33,0-0.6,0.27-0.6,0.6v3.2c0,0.33,0.27,0.6,0.6,0.6h3.16c0.33,0,0.6-0.27,0.6-0.6
			v-3.2C473.03,130.59,472.76,130.32,472.43,130.32z"/>
		<path class="st0" d="M472.43,122.21h-3.16c-0.33,0-0.6,0.27-0.6,0.6v3.2c0,0.33,0.27,0.6,0.6,0.6h3.16c0.33,0,0.6-0.27,0.6-0.6
			v-3.2C473.03,122.48,472.76,122.21,472.43,122.21z"/>
		<path class="st0" d="M472.43,138.44h-3.16c-0.33,0-0.6,0.27-0.6,0.6v3.2c0,0.33,0.27,0.6,0.6,0.6h3.16c0.33,0,0.6-0.27,0.6-0.6
			v-3.2C473.03,138.71,472.76,138.44,472.43,138.44z"/>
		<path class="st0" d="M472.43,219.6h-3.16c-0.33,0-0.6,0.27-0.6,0.6v3.2c0,0.33,0.27,0.6,0.6,0.6h3.16c0.33,0,0.6-0.27,0.6-0.6
			v-3.2C473.03,219.87,472.76,219.6,472.43,219.6z"/>
		<path class="st0" d="M472.43,211.48h-3.16c-0.33,0-0.6,0.27-0.6,0.6v3.2c0,0.33,0.27,0.6,0.6,0.6h3.16c0.33,0,0.6-0.27,0.6-0.6
			v-3.2C473.03,211.75,472.76,211.48,472.43,211.48z"/>
		<path class="st0" d="M472.43,203.36h-3.16c-0.33,0-0.6,0.27-0.6,0.6v3.2c0,0.33,0.27,0.6,0.6,0.6h3.16c0.33,0,0.6-0.27,0.6-0.6
			v-3.2C473.03,203.63,472.76,203.36,472.43,203.36z"/>
		<path class="st0" d="M472.43,179.02h-3.16c-0.33,0-0.6,0.27-0.6,0.6v3.2c0,0.33,0.27,0.6,0.6,0.6h3.16c0.33,0,0.6-0.27,0.6-0.6
			v-3.2C473.03,179.29,472.76,179.02,472.43,179.02z"/>
		<path class="st0" d="M472.43,195.25h-3.16c-0.33,0-0.6,0.27-0.6,0.6v3.2c0,0.33,0.27,0.6,0.6,0.6h3.16c0.33,0,0.6-0.27,0.6-0.6
			v-3.2C473.03,195.52,472.76,195.25,472.43,195.25z"/>
		<path class="st0" d="M472.43,187.13h-3.16c-0.33,0-0.6,0.27-0.6,0.6v3.2c0,0.33,0.27,0.6,0.6,0.6h3.16c0.33,0,0.6-0.27,0.6-0.6
			v-3.2C473.03,187.4,472.76,187.13,472.43,187.13z"/>
		<path class="st0" d="M407.32,77.12c-0.09-0.05-0.2-0.08-0.3-0.08c-0.05,0-0.11,0.01-0.16,0.02c-0.16,0.04-0.29,0.14-0.37,0.28
			l-1.57,2.74c-0.17,0.29-0.07,0.66,0.22,0.82l2.77,1.6c0.1,0.05,0.2,0.08,0.3,0.08c0.21,0,0.41-0.11,0.52-0.3l1.58-2.73
			c0.08-0.14,0.1-0.3,0.06-0.46c-0.04-0.16-0.14-0.29-0.28-0.37L407.32,77.12z"/>
		<path class="st0" d="M400.3,73.06c-0.09-0.05-0.2-0.08-0.3-0.08c-0.05,0-0.11,0.01-0.16,0.02c-0.16,0.04-0.29,0.14-0.37,0.28
			l-1.57,2.74c-0.17,0.29-0.07,0.66,0.22,0.82l2.76,1.6c0.1,0.06,0.2,0.08,0.3,0.08c0.21,0,0.41-0.11,0.52-0.3l1.58-2.73
			c0.08-0.14,0.1-0.3,0.06-0.46c-0.04-0.16-0.14-0.29-0.28-0.37L400.3,73.06z"/>
		<path class="st0" d="M421.38,85.23c-0.09-0.05-0.2-0.08-0.3-0.08c-0.05,0-0.11,0.01-0.16,0.02c-0.16,0.04-0.29,0.14-0.37,0.28
			l-1.57,2.74c-0.17,0.29-0.07,0.66,0.22,0.82l2.77,1.6c0.1,0.06,0.2,0.08,0.3,0.08c0.21,0,0.41-0.11,0.52-0.3l1.58-2.73
			c0.08-0.14,0.1-0.3,0.06-0.46c-0.04-0.16-0.14-0.29-0.28-0.37L421.38,85.23z"/>
		<path class="st0" d="M414.35,81.17c-0.09-0.05-0.2-0.08-0.3-0.08c-0.05,0-0.11,0.01-0.16,0.02c-0.16,0.04-0.29,0.14-0.37,0.28
			l-1.57,2.74c-0.17,0.29-0.07,0.66,0.22,0.82l2.77,1.6c0.1,0.05,0.2,0.08,0.3,0.08c0.21,0,0.41-0.11,0.52-0.3l1.58-2.73
			c0.08-0.14,0.1-0.3,0.06-0.46c-0.04-0.16-0.14-0.29-0.28-0.37L414.35,81.17z"/>
		<path class="st0" d="M393.27,69c-0.09-0.05-0.2-0.08-0.3-0.08c-0.05,0-0.11,0.01-0.16,0.02c-0.16,0.04-0.29,0.14-0.37,0.28
			l-1.57,2.74c-0.17,0.29-0.07,0.66,0.22,0.82l2.76,1.6c0.1,0.06,0.2,0.08,0.3,0.08c0.21,0,0.41-0.11,0.52-0.3l1.58-2.73
			c0.08-0.14,0.1-0.3,0.06-0.46c-0.04-0.16-0.14-0.29-0.28-0.37L393.27,69z"/>
		<path class="st0" d="M386.24,64.94c-0.09-0.05-0.2-0.08-0.3-0.08c-0.05,0-0.11,0.01-0.16,0.02c-0.16,0.04-0.29,0.14-0.37,0.28
			l-1.57,2.74c-0.17,0.29-0.07,0.66,0.22,0.82l2.76,1.6c0.1,0.06,0.2,0.08,0.3,0.08c0.21,0,0.41-0.11,0.52-0.3l1.58-2.73
			c0.08-0.14,0.1-0.3,0.06-0.46c-0.04-0.16-0.14-0.29-0.28-0.37L386.24,64.94z"/>
		<path class="st0" d="M379.21,60.89c-0.09-0.05-0.2-0.08-0.3-0.08c-0.05,0-0.11,0.01-0.16,0.02c-0.15,0.04-0.29,0.14-0.37,0.28
			l-1.57,2.74c-0.17,0.29-0.07,0.66,0.22,0.82l2.77,1.6c0.1,0.06,0.2,0.08,0.3,0.08c0.21,0,0.41-0.11,0.52-0.3l1.58-2.73
			c0.08-0.14,0.1-0.3,0.06-0.46s-0.14-0.29-0.28-0.37L379.21,60.89z"/>
		<path class="st0" d="M449.49,101.46c-0.09-0.05-0.2-0.08-0.3-0.08c-0.05,0-0.11,0.01-0.16,0.02c-0.16,0.04-0.29,0.14-0.37,0.28
			l-1.57,2.74c-0.17,0.29-0.07,0.66,0.22,0.82l2.77,1.6c0.1,0.06,0.2,0.08,0.3,0.08c0.21,0,0.41-0.11,0.52-0.3l1.58-2.73
			c0.08-0.14,0.1-0.3,0.06-0.46c-0.04-0.16-0.14-0.29-0.28-0.37L449.49,101.46z"/>
		<path class="st0" d="M456.52,105.52c-0.09-0.05-0.2-0.08-0.3-0.08c-0.05,0-0.11,0.01-0.16,0.02c-0.16,0.04-0.29,0.14-0.37,0.28
			l-1.57,2.74c-0.17,0.29-0.07,0.66,0.22,0.82l2.77,1.6c0.1,0.06,0.2,0.08,0.3,0.08c0.21,0,0.41-0.11,0.52-0.3l1.58-2.73
			c0.08-0.14,0.1-0.3,0.06-0.46c-0.04-0.16-0.14-0.29-0.28-0.37L456.52,105.52z"/>
		<path class="st0" d="M463.54,109.58c-0.09-0.05-0.2-0.08-0.3-0.08c-0.05,0-0.11,0.01-0.16,0.02c-0.16,0.04-0.29,0.14-0.37,0.28
			l-1.57,2.74c-0.17,0.29-0.07,0.66,0.22,0.82l2.77,1.6c0.1,0.06,0.2,0.08,0.3,0.08c0.21,0,0.41-0.11,0.52-0.3l1.58-2.73
			c0.08-0.14,0.1-0.3,0.06-0.46c-0.04-0.16-0.14-0.29-0.28-0.37L463.54,109.58z"/>
		<path class="st0" d="M428.41,89.29c-0.09-0.05-0.2-0.08-0.3-0.08c-0.05,0-0.11,0.01-0.16,0.02c-0.16,0.04-0.29,0.14-0.37,0.28
			l-1.57,2.74c-0.17,0.29-0.07,0.66,0.22,0.82l2.77,1.6c0.1,0.05,0.2,0.08,0.3,0.08c0.21,0,0.41-0.11,0.52-0.3l1.58-2.73
			c0.08-0.14,0.1-0.3,0.06-0.46c-0.04-0.16-0.14-0.29-0.28-0.37L428.41,89.29z"/>
		<path class="st0" d="M442.46,97.41c-0.09-0.05-0.2-0.08-0.3-0.08c-0.05,0-0.11,0.01-0.16,0.02c-0.16,0.04-0.29,0.14-0.37,0.28
			l-1.57,2.74c-0.17,0.29-0.07,0.66,0.22,0.82l2.77,1.6c0.1,0.05,0.2,0.08,0.3,0.08c0.21,0,0.41-0.11,0.52-0.3l1.58-2.73
			c0.08-0.14,0.1-0.3,0.06-0.46c-0.04-0.16-0.14-0.29-0.28-0.37L442.46,97.41z"/>
		<path class="st0" d="M435.43,93.35c-0.09-0.05-0.2-0.08-0.3-0.08c-0.05,0-0.11,0.01-0.16,0.02c-0.16,0.04-0.29,0.14-0.37,0.28
			l-1.57,2.74c-0.17,0.29-0.07,0.66,0.22,0.82l2.77,1.6c0.1,0.05,0.2,0.08,0.3,0.08c0.21,0,0.41-0.11,0.52-0.3l1.58-2.73
			c0.08-0.14,0.1-0.3,0.06-0.46c-0.04-0.16-0.14-0.29-0.28-0.37L435.43,93.35z"/>
		<path class="st0" d="M303.36,97.63c-0.11-0.19-0.32-0.3-0.52-0.3c-0.1,0-0.21,0.03-0.3,0.08l-2.77,1.6
			c-0.29,0.17-0.39,0.54-0.22,0.82l1.57,2.74c0.08,0.14,0.21,0.24,0.37,0.28c0.05,0.01,0.1,0.02,0.16,0.02
			c0.11,0,0.21-0.03,0.3-0.08l2.78-1.6c0.14-0.08,0.24-0.21,0.28-0.37s0.02-0.32-0.06-0.46L303.36,97.63z"/>
		<path class="st0" d="M282.27,109.8c-0.11-0.19-0.32-0.3-0.52-0.3c-0.1,0-0.21,0.03-0.3,0.08l-2.77,1.6
			c-0.29,0.17-0.39,0.54-0.22,0.82l1.57,2.74c0.08,0.14,0.21,0.24,0.37,0.28c0.05,0.01,0.1,0.02,0.16,0.02
			c0.11,0,0.21-0.03,0.3-0.08l2.78-1.6c0.14-0.08,0.24-0.21,0.28-0.37s0.02-0.32-0.06-0.46L282.27,109.8z"/>
		<path class="st0" d="M310.39,93.57c-0.11-0.19-0.32-0.3-0.52-0.3c-0.1,0-0.21,0.03-0.3,0.08l-2.77,1.6
			c-0.29,0.17-0.39,0.54-0.22,0.82l1.57,2.74c0.08,0.14,0.21,0.24,0.37,0.28c0.05,0.01,0.1,0.02,0.16,0.02
			c0.11,0,0.21-0.03,0.3-0.08l2.78-1.6c0.14-0.08,0.24-0.21,0.28-0.37s0.02-0.32-0.06-0.46L310.39,93.57z"/>
		<path class="st0" d="M296.33,101.69c-0.11-0.19-0.32-0.3-0.52-0.3c-0.1,0-0.21,0.03-0.3,0.08l-2.77,1.6
			c-0.29,0.17-0.39,0.54-0.22,0.82l1.57,2.74c0.08,0.14,0.21,0.24,0.37,0.28c0.05,0.01,0.1,0.02,0.16,0.02
			c0.11,0,0.21-0.03,0.3-0.08l2.78-1.6c0.14-0.08,0.24-0.21,0.28-0.37s0.02-0.32-0.06-0.46L296.33,101.69z"/>
		<path class="st0" d="M324.44,85.46c-0.11-0.19-0.32-0.3-0.52-0.3c-0.1,0-0.21,0.03-0.3,0.08l-2.77,1.6
			c-0.29,0.17-0.39,0.54-0.22,0.82l1.57,2.74c0.08,0.14,0.21,0.24,0.37,0.28c0.05,0.01,0.1,0.02,0.16,0.02
			c0.11,0,0.21-0.03,0.3-0.08l2.78-1.6c0.14-0.08,0.24-0.21,0.28-0.37s0.02-0.32-0.06-0.46L324.44,85.46z"/>
		<path class="st0" d="M289.3,105.74c-0.11-0.19-0.32-0.3-0.52-0.3c-0.1,0-0.21,0.03-0.3,0.08l-2.77,1.6
			c-0.29,0.17-0.39,0.54-0.22,0.82l1.57,2.74c0.08,0.14,0.21,0.24,0.37,0.28c0.05,0.01,0.1,0.02,0.16,0.02
			c0.11,0,0.21-0.03,0.3-0.08l2.78-1.6c0.14-0.08,0.24-0.21,0.28-0.37s0.02-0.32-0.06-0.46L289.3,105.74z"/>
		<path class="st0" d="M359.58,65.16c-0.11-0.19-0.32-0.3-0.52-0.3c-0.1,0-0.21,0.03-0.3,0.08l-2.76,1.6
			c-0.29,0.17-0.39,0.54-0.22,0.82l1.57,2.74c0.08,0.14,0.21,0.24,0.37,0.28c0.05,0.01,0.1,0.02,0.16,0.02
			c0.11,0,0.21-0.03,0.3-0.08l2.78-1.6c0.14-0.08,0.24-0.21,0.28-0.37s0.02-0.32-0.06-0.46L359.58,65.16z"/>
		<path class="st0" d="M366.61,61.11c-0.11-0.19-0.32-0.3-0.52-0.3c-0.1,0-0.21,0.03-0.3,0.08l-2.76,1.6
			c-0.29,0.17-0.39,0.54-0.22,0.82l1.57,2.74c0.08,0.14,0.21,0.24,0.37,0.28c0.05,0.01,0.1,0.02,0.16,0.02
			c0.11,0,0.21-0.03,0.3-0.08l2.78-1.6c0.14-0.08,0.24-0.21,0.28-0.37s0.02-0.32-0.06-0.46L366.61,61.11z"/>
		<path class="st0" d="M331.47,81.4c-0.11-0.19-0.32-0.3-0.52-0.3c-0.1,0-0.21,0.03-0.3,0.08l-2.76,1.6
			c-0.29,0.17-0.39,0.54-0.22,0.82l1.57,2.74c0.08,0.14,0.21,0.24,0.37,0.28c0.05,0.01,0.1,0.02,0.16,0.02
			c0.11,0,0.21-0.03,0.3-0.08l2.78-1.6c0.14-0.08,0.24-0.21,0.28-0.37s0.02-0.32-0.06-0.46L331.47,81.4z"/>
		<path class="st0" d="M352.55,69.22c-0.11-0.19-0.32-0.3-0.52-0.3c-0.1,0-0.21,0.03-0.3,0.08l-2.77,1.6
			c-0.29,0.17-0.39,0.54-0.22,0.82l1.57,2.74c0.08,0.14,0.21,0.24,0.37,0.28c0.05,0.01,0.1,0.02,0.16,0.02
			c0.11,0,0.21-0.03,0.3-0.08l2.78-1.6c0.14-0.08,0.24-0.21,0.28-0.37s0.02-0.32-0.06-0.46L352.55,69.22z"/>
		<path class="st0" d="M338.5,77.34c-0.11-0.19-0.32-0.3-0.52-0.3c-0.1,0-0.21,0.03-0.3,0.08l-2.77,1.6
			c-0.29,0.17-0.39,0.54-0.22,0.82l1.57,2.74c0.08,0.14,0.21,0.24,0.37,0.28c0.05,0.01,0.1,0.02,0.16,0.02
			c0.11,0,0.21-0.03,0.3-0.08l2.78-1.6c0.14-0.08,0.24-0.21,0.28-0.37s0.02-0.32-0.06-0.46L338.5,77.34z"/>
		<path class="st0" d="M345.53,73.28c-0.11-0.19-0.32-0.3-0.52-0.3c-0.1,0-0.21,0.03-0.3,0.08l-2.76,1.6
			c-0.29,0.17-0.39,0.54-0.22,0.82l1.57,2.74c0.08,0.14,0.21,0.24,0.37,0.28c0.05,0.01,0.1,0.02,0.16,0.02
			c0.11,0,0.21-0.03,0.3-0.08l2.78-1.6c0.14-0.08,0.24-0.21,0.28-0.37s0.02-0.32-0.06-0.46L345.53,73.28z"/>
		<path class="st0" d="M317.41,89.51c-0.11-0.19-0.32-0.3-0.52-0.3c-0.1,0-0.21,0.03-0.3,0.08l-2.76,1.6
			c-0.29,0.17-0.39,0.54-0.22,0.82l1.57,2.74c0.08,0.14,0.21,0.24,0.37,0.28c0.05,0.01,0.1,0.02,0.16,0.02
			c0.11,0,0.21-0.03,0.3-0.08l2.78-1.6c0.14-0.08,0.24-0.21,0.28-0.37s0.02-0.32-0.06-0.46L317.41,89.51z"/>
		<path class="st0" d="M275.73,187.13h-3.16c-0.33,0-0.6,0.27-0.6,0.6v3.2c0,0.33,0.27,0.6,0.6,0.6h3.16c0.33,0,0.6-0.27,0.6-0.6
			v-3.2C276.33,187.4,276.06,187.13,275.73,187.13z"/>
		<path class="st0" d="M275.73,179.02h-3.16c-0.33,0-0.6,0.27-0.6,0.6v3.2c0,0.33,0.27,0.6,0.6,0.6h3.16c0.33,0,0.6-0.27,0.6-0.6
			v-3.2C276.33,179.29,276.06,179.02,275.73,179.02z"/>
		<path class="st0" d="M275.73,195.25h-3.16c-0.33,0-0.6,0.27-0.6,0.6v3.2c0,0.33,0.27,0.6,0.6,0.6h3.16c0.33,0,0.6-0.27,0.6-0.6
			v-3.2C276.33,195.52,276.06,195.25,275.73,195.25z"/>
		<path class="st0" d="M275.73,203.36h-3.16c-0.33,0-0.6,0.27-0.6,0.6v3.2c0,0.33,0.27,0.6,0.6,0.6h3.16c0.33,0,0.6-0.27,0.6-0.6
			v-3.2C276.33,203.63,276.06,203.36,275.73,203.36z"/>
		<path class="st0" d="M275.73,219.6h-3.16c-0.33,0-0.6,0.27-0.6,0.6v3.2c0,0.33,0.27,0.6,0.6,0.6h3.16c0.33,0,0.6-0.27,0.6-0.6
			v-3.2C276.33,219.87,276.06,219.6,275.73,219.6z"/>
		<path class="st0" d="M275.73,211.48h-3.16c-0.33,0-0.6,0.27-0.6,0.6v3.2c0,0.33,0.27,0.6,0.6,0.6h3.16c0.33,0,0.6-0.27,0.6-0.6
			v-3.2C276.33,211.75,276.06,211.48,275.73,211.48z"/>
		<path class="st0" d="M275.73,162.78h-3.16c-0.33,0-0.6,0.27-0.6,0.6v3.2c0,0.33,0.27,0.6,0.6,0.6h3.16c0.33,0,0.6-0.27,0.6-0.6
			v-3.2C276.33,163.05,276.06,162.78,275.73,162.78z"/>
		<path class="st0" d="M275.73,138.44h-3.16c-0.33,0-0.6,0.27-0.6,0.6v3.2c0,0.33,0.27,0.6,0.6,0.6h3.16c0.33,0,0.6-0.27,0.6-0.6
			v-3.2C276.33,138.71,276.06,138.44,275.73,138.44z"/>
		<path class="st0" d="M275.73,130.32h-3.16c-0.33,0-0.6,0.27-0.6,0.6v3.2c0,0.33,0.27,0.6,0.6,0.6h3.16c0.33,0,0.6-0.27,0.6-0.6
			v-3.2C276.33,130.59,276.06,130.32,275.73,130.32z"/>
		<path class="st0" d="M275.73,170.9h-3.16c-0.33,0-0.6,0.27-0.6,0.6v3.2c0,0.33,0.27,0.6,0.6,0.6h3.16c0.33,0,0.6-0.27,0.6-0.6
			v-3.2C276.33,171.17,276.06,170.9,275.73,170.9z"/>
		<path class="st0" d="M275.73,122.21h-3.16c-0.33,0-0.6,0.27-0.6,0.6v3.2c0,0.33,0.27,0.6,0.6,0.6h3.16c0.33,0,0.6-0.27,0.6-0.6
			v-3.2C276.33,122.48,276.06,122.21,275.73,122.21z"/>
		<path class="st0" d="M275.73,154.67h-3.16c-0.33,0-0.6,0.27-0.6,0.6v3.2c0,0.33,0.27,0.6,0.6,0.6h3.16c0.33,0,0.6-0.27,0.6-0.6
			v-3.2C276.33,154.94,276.06,154.67,275.73,154.67z"/>
		<path class="st0" d="M275.73,146.55h-3.16c-0.33,0-0.6,0.27-0.6,0.6v3.2c0,0.33,0.27,0.6,0.6,0.6h3.16c0.33,0,0.6-0.27,0.6-0.6
			v-3.2C276.33,146.82,276.06,146.55,275.73,146.55z"/>
		<path class="st0" d="M337.09,263.71c-0.1-0.06-0.2-0.08-0.3-0.08c-0.21,0-0.41,0.11-0.52,0.3l-1.58,2.73
			c-0.08,0.14-0.1,0.3-0.06,0.46s0.14,0.29,0.28,0.37l2.78,1.6c0.09,0.05,0.2,0.08,0.3,0.08c0.05,0,0.11-0.01,0.16-0.02
			c0.16-0.04,0.29-0.14,0.37-0.28l1.57-2.74c0.17-0.29,0.07-0.66-0.22-0.82L337.09,263.71z"/>
		<path class="st0" d="M344.12,267.77c-0.1-0.06-0.2-0.08-0.3-0.08c-0.21,0-0.41,0.11-0.52,0.3l-1.58,2.73
			c-0.08,0.14-0.1,0.3-0.06,0.46s0.14,0.29,0.28,0.37l2.78,1.6c0.09,0.05,0.2,0.08,0.3,0.08c0.05,0,0.11-0.01,0.16-0.02
			c0.16-0.04,0.29-0.14,0.37-0.28l1.57-2.74c0.17-0.29,0.07-0.66-0.22-0.82L344.12,267.77z"/>
		<path class="st0" d="M323.03,255.6c-0.1-0.06-0.2-0.08-0.3-0.08c-0.21,0-0.41,0.11-0.52,0.3l-1.58,2.73
			c-0.08,0.14-0.1,0.3-0.06,0.46s0.14,0.29,0.28,0.37l2.78,1.6c0.09,0.05,0.2,0.08,0.3,0.08c0.05,0,0.11-0.01,0.16-0.02
			c0.16-0.04,0.29-0.14,0.37-0.28l1.57-2.74c0.17-0.29,0.07-0.66-0.22-0.82L323.03,255.6z"/>
		<path class="st0" d="M365.2,279.95c-0.1-0.06-0.2-0.08-0.3-0.08c-0.21,0-0.41,0.11-0.52,0.3l-1.58,2.73
			c-0.08,0.14-0.1,0.3-0.06,0.46s0.14,0.29,0.28,0.37l2.78,1.6c0.09,0.05,0.2,0.08,0.3,0.08c0.05,0,0.11-0.01,0.16-0.02
			c0.15-0.04,0.29-0.14,0.37-0.28l1.57-2.74c0.17-0.29,0.07-0.66-0.22-0.82L365.2,279.95z"/>
		<path class="st0" d="M351.14,271.83c-0.1-0.06-0.2-0.08-0.3-0.08c-0.21,0-0.41,0.11-0.52,0.3l-1.58,2.73
			c-0.08,0.14-0.1,0.3-0.06,0.46s0.14,0.29,0.28,0.37l2.78,1.6c0.09,0.05,0.2,0.08,0.3,0.08c0.05,0,0.11-0.01,0.16-0.02
			c0.16-0.04,0.29-0.14,0.37-0.28l1.57-2.74c0.17-0.29,0.07-0.66-0.22-0.82L351.14,271.83z"/>
		<path class="st0" d="M358.17,275.89c-0.1-0.06-0.2-0.08-0.3-0.08c-0.21,0-0.41,0.11-0.52,0.3l-1.58,2.73
			c-0.08,0.14-0.1,0.3-0.06,0.46s0.14,0.29,0.28,0.37l2.78,1.6c0.09,0.05,0.2,0.08,0.3,0.08c0.05,0,0.11-0.01,0.16-0.02
			c0.16-0.04,0.29-0.14,0.37-0.28l1.57-2.74c0.17-0.29,0.07-0.66-0.22-0.82L358.17,275.89z"/>
		<path class="st0" d="M330.06,259.65c-0.1-0.06-0.2-0.08-0.3-0.08c-0.21,0-0.41,0.11-0.52,0.3l-1.58,2.73
			c-0.08,0.14-0.1,0.3-0.06,0.46s0.14,0.29,0.28,0.37l2.78,1.6c0.09,0.05,0.2,0.08,0.3,0.08c0.05,0,0.11-0.01,0.16-0.02
			c0.16-0.04,0.29-0.14,0.37-0.28l1.57-2.74c0.17-0.29,0.07-0.66-0.22-0.82L330.06,259.65z"/>
		<path class="st0" d="M287.89,235.31c-0.1-0.06-0.2-0.08-0.3-0.08c-0.21,0-0.41,0.11-0.52,0.3l-1.58,2.73
			c-0.08,0.14-0.1,0.3-0.06,0.46s0.14,0.29,0.28,0.37l2.78,1.6c0.09,0.05,0.2,0.08,0.3,0.08c0.05,0,0.11-0.01,0.16-0.02
			c0.16-0.04,0.29-0.14,0.37-0.28l1.57-2.74c0.17-0.29,0.07-0.66-0.22-0.82L287.89,235.31z"/>
		<path class="st0" d="M280.86,231.25c-0.1-0.06-0.2-0.08-0.3-0.08c-0.21,0-0.41,0.11-0.52,0.3l-1.58,2.73
			c-0.08,0.14-0.1,0.3-0.06,0.46s0.14,0.29,0.28,0.37l2.78,1.6c0.09,0.05,0.2,0.08,0.3,0.08c0.05,0,0.11-0.01,0.16-0.02
			c0.16-0.04,0.29-0.14,0.37-0.28l1.57-2.74c0.17-0.29,0.07-0.66-0.22-0.82L280.86,231.25z"/>
		<path class="st0" d="M316,251.54c-0.1-0.06-0.2-0.08-0.3-0.08c-0.21,0-0.41,0.11-0.52,0.3l-1.58,2.73
			c-0.08,0.14-0.1,0.3-0.06,0.46s0.14,0.29,0.28,0.37l2.78,1.6c0.09,0.05,0.2,0.08,0.3,0.08c0.05,0,0.11-0.01,0.16-0.02
			c0.16-0.04,0.29-0.14,0.37-0.28l1.57-2.74c0.17-0.29,0.07-0.66-0.22-0.82L316,251.54z"/>
		<path class="st0" d="M294.92,239.37c-0.1-0.06-0.2-0.08-0.3-0.08c-0.21,0-0.41,0.11-0.52,0.3l-1.58,2.73
			c-0.08,0.14-0.1,0.3-0.06,0.46s0.14,0.29,0.28,0.37l2.78,1.6c0.09,0.05,0.2,0.08,0.3,0.08c0.05,0,0.11-0.01,0.16-0.02
			c0.16-0.04,0.29-0.14,0.37-0.28l1.57-2.74c0.17-0.29,0.07-0.66-0.22-0.82L294.92,239.37z"/>
		<path class="st0" d="M308.98,247.48c-0.1-0.06-0.2-0.08-0.3-0.08c-0.21,0-0.41,0.11-0.52,0.3l-1.58,2.73
			c-0.08,0.14-0.1,0.3-0.06,0.46s0.14,0.29,0.28,0.37l2.78,1.6c0.09,0.05,0.2,0.08,0.3,0.08c0.05,0,0.11-0.01,0.16-0.02
			c0.16-0.04,0.29-0.14,0.37-0.28l1.57-2.74c0.17-0.29,0.07-0.66-0.22-0.82L308.98,247.48z"/>
		<path class="st0" d="M301.95,243.42c-0.1-0.06-0.2-0.08-0.3-0.08c-0.21,0-0.41,0.11-0.52,0.3l-1.58,2.73
			c-0.08,0.14-0.1,0.3-0.06,0.46s0.14,0.29,0.28,0.37l2.78,1.6c0.09,0.05,0.2,0.08,0.3,0.08c0.05,0,0.11-0.01,0.16-0.02
			c0.16-0.04,0.29-0.14,0.37-0.28l1.57-2.74c0.17-0.29,0.07-0.66-0.22-0.82L301.95,243.42z"/>
		<path class="st0" d="M373.6,284.22c-0.08-0.14-0.21-0.24-0.37-0.28c-0.05-0.01-0.1-0.02-0.16-0.02c-0.11,0-0.21,0.03-0.3,0.08
			l-0.28,0.16l-0.28-0.16c-0.09-0.05-0.2-0.08-0.3-0.08c-0.05,0-0.11,0.01-0.16,0.02c-0.16,0.04-0.29,0.14-0.37,0.28l-1.57,2.74
			c-0.17,0.29-0.07,0.66,0.22,0.82l2.15,1.24c0.09,0.05,0.2,0.08,0.3,0.08s0.21-0.03,0.3-0.08l2.15-1.24
			c0.29-0.17,0.39-0.54,0.22-0.82L373.6,284.22z"/>
		<path class="st0" d="M443.88,243.64c-0.08-0.14-0.21-0.24-0.37-0.28c-0.05-0.01-0.1-0.02-0.16-0.02c-0.11,0-0.21,0.03-0.3,0.08
			l-2.78,1.6c-0.14,0.08-0.24,0.21-0.28,0.37c-0.04,0.16-0.02,0.32,0.06,0.46l1.58,2.73c0.11,0.19,0.32,0.3,0.52,0.3
			c0.1,0,0.21-0.03,0.3-0.08l2.77-1.6c0.29-0.17,0.39-0.54,0.22-0.82L443.88,243.64z"/>
		<path class="st0" d="M436.85,247.7c-0.08-0.14-0.21-0.24-0.37-0.28c-0.05-0.01-0.1-0.02-0.16-0.02c-0.11,0-0.21,0.03-0.3,0.08
			l-2.78,1.6c-0.14,0.08-0.24,0.21-0.28,0.37c-0.04,0.16-0.02,0.32,0.06,0.46l1.58,2.73c0.11,0.19,0.32,0.3,0.52,0.3
			c0.1,0,0.21-0.03,0.3-0.08l2.77-1.6c0.29-0.17,0.39-0.54,0.22-0.82L436.85,247.7z"/>
		<path class="st0" d="M450.91,239.59c-0.08-0.14-0.21-0.24-0.37-0.28c-0.05-0.01-0.1-0.02-0.16-0.02c-0.11,0-0.21,0.03-0.3,0.08
			l-2.78,1.6c-0.14,0.08-0.24,0.21-0.28,0.37c-0.04,0.16-0.02,0.32,0.06,0.46l1.58,2.73c0.11,0.19,0.32,0.3,0.52,0.3
			c0.1,0,0.21-0.03,0.3-0.08l2.76-1.6c0.29-0.17,0.39-0.54,0.22-0.82L450.91,239.59z"/>
		<path class="st0" d="M457.94,235.53c-0.08-0.14-0.21-0.24-0.37-0.28c-0.05-0.01-0.1-0.02-0.16-0.02c-0.11,0-0.21,0.03-0.3,0.08
			l-2.78,1.6c-0.14,0.08-0.24,0.21-0.28,0.37c-0.04,0.16-0.02,0.32,0.06,0.46l1.58,2.73c0.11,0.19,0.32,0.3,0.52,0.3
			c0.1,0,0.21-0.03,0.3-0.08l2.77-1.6c0.29-0.17,0.39-0.54,0.22-0.82L457.94,235.53z"/>
		<path class="st0" d="M429.83,251.76c-0.08-0.14-0.21-0.24-0.37-0.28c-0.05-0.01-0.1-0.02-0.16-0.02c-0.11,0-0.21,0.03-0.3,0.08
			l-2.78,1.6c-0.14,0.08-0.24,0.21-0.28,0.37c-0.04,0.16-0.02,0.32,0.06,0.46l1.58,2.73c0.11,0.19,0.32,0.3,0.52,0.3
			c0.1,0,0.21-0.03,0.3-0.08l2.77-1.6c0.29-0.17,0.39-0.54,0.22-0.82L429.83,251.76z"/>
		<path class="st0" d="M464.97,231.47c-0.08-0.14-0.21-0.24-0.37-0.28c-0.05-0.01-0.1-0.02-0.16-0.02c-0.11,0-0.21,0.03-0.3,0.08
			l-2.78,1.6c-0.14,0.08-0.24,0.21-0.28,0.37c-0.04,0.16-0.02,0.32,0.06,0.46l1.58,2.73c0.11,0.19,0.32,0.3,0.52,0.3
			c0.1,0,0.21-0.03,0.3-0.08l2.77-1.6c0.29-0.17,0.39-0.54,0.22-0.82L464.97,231.47z"/>
		<path class="st0" d="M380.63,280.16c-0.08-0.14-0.21-0.24-0.37-0.28c-0.05-0.01-0.1-0.02-0.16-0.02c-0.11,0-0.21,0.03-0.3,0.08
			l-2.78,1.6c-0.14,0.08-0.24,0.21-0.28,0.37s-0.02,0.32,0.06,0.46l1.58,2.73c0.11,0.19,0.32,0.3,0.52,0.3c0.1,0,0.21-0.03,0.3-0.08
			l2.77-1.6c0.29-0.17,0.39-0.54,0.22-0.82L380.63,280.16z"/>
		<path class="st0" d="M394.69,272.05c-0.08-0.14-0.21-0.24-0.37-0.28c-0.05-0.01-0.1-0.02-0.16-0.02c-0.11,0-0.21,0.03-0.3,0.08
			l-2.78,1.6c-0.14,0.08-0.24,0.21-0.28,0.37s-0.02,0.32,0.06,0.46l1.58,2.73c0.11,0.19,0.32,0.3,0.52,0.3c0.1,0,0.21-0.03,0.3-0.08
			l2.76-1.6c0.29-0.17,0.39-0.54,0.22-0.82L394.69,272.05z"/>
		<path class="st0" d="M387.66,276.1c-0.08-0.14-0.21-0.24-0.37-0.28c-0.05-0.01-0.1-0.02-0.16-0.02c-0.11,0-0.21,0.03-0.3,0.08
			l-2.78,1.6c-0.14,0.08-0.24,0.21-0.28,0.37s-0.02,0.32,0.06,0.46l1.58,2.73c0.11,0.19,0.32,0.3,0.52,0.3c0.1,0,0.21-0.03,0.3-0.08
			l2.77-1.6c0.29-0.17,0.39-0.54,0.22-0.82L387.66,276.1z"/>
		<path class="st0" d="M401.72,267.99c-0.08-0.14-0.21-0.24-0.37-0.28c-0.05-0.01-0.1-0.02-0.16-0.02c-0.11,0-0.21,0.03-0.3,0.08
			l-2.78,1.6c-0.14,0.08-0.24,0.21-0.28,0.37c-0.04,0.15-0.02,0.32,0.06,0.46l1.58,2.73c0.11,0.19,0.32,0.3,0.52,0.3
			c0.1,0,0.21-0.03,0.3-0.08l2.76-1.6c0.29-0.17,0.39-0.54,0.22-0.82L401.72,267.99z"/>
		<path class="st0" d="M408.74,263.93c-0.08-0.14-0.21-0.24-0.37-0.28c-0.05-0.01-0.1-0.02-0.16-0.02c-0.11,0-0.21,0.03-0.3,0.08
			l-2.78,1.6c-0.14,0.08-0.24,0.21-0.28,0.37c-0.04,0.15-0.02,0.32,0.06,0.46l1.58,2.73c0.11,0.19,0.32,0.3,0.52,0.3
			c0.1,0,0.21-0.03,0.3-0.08l2.77-1.6c0.29-0.17,0.39-0.54,0.22-0.82L408.74,263.93z"/>
		<path class="st0" d="M415.77,259.87c-0.08-0.14-0.21-0.24-0.37-0.28c-0.05-0.01-0.1-0.02-0.16-0.02c-0.11,0-0.21,0.03-0.3,0.08
			l-2.78,1.6c-0.14,0.08-0.24,0.21-0.28,0.37s-0.02,0.32,0.06,0.46l1.58,2.73c0.11,0.19,0.32,0.3,0.52,0.3c0.1,0,0.21-0.03,0.3-0.08
			l2.76-1.6c0.29-0.17,0.39-0.54,0.22-0.82L415.77,259.87z"/>
		<path class="st0" d="M422.8,255.82c-0.08-0.14-0.21-0.24-0.37-0.28c-0.05-0.01-0.1-0.02-0.16-0.02c-0.11,0-0.21,0.03-0.3,0.08
			l-2.78,1.6c-0.14,0.08-0.24,0.21-0.28,0.37s-0.02,0.32,0.06,0.46l1.58,2.73c0.11,0.19,0.32,0.3,0.52,0.3c0.1,0,0.21-0.03,0.3-0.08
			l2.76-1.6c0.29-0.17,0.39-0.54,0.22-0.82L422.8,255.82z"/>
		<path class="st0" d="M276.25,115.59l-0.99-1.73c-0.08-0.14-0.21-0.24-0.37-0.28c-0.05-0.01-0.1-0.02-0.16-0.02
			c-0.11,0-0.21,0.03-0.3,0.08l-2.16,1.25c-0.19,0.11-0.3,0.31-0.3,0.52v2.49c0,0.33,0.27,0.6,0.6,0.6h3.16c0.33,0,0.6-0.27,0.6-0.6
			v-0.67v-1.34C276.33,115.79,276.3,115.68,276.25,115.59z"/>
		<path class="st0" d="M469.27,118.5h3.16c0.33,0,0.6-0.27,0.6-0.6v-2.49c0-0.22-0.12-0.42-0.3-0.52l-2.16-1.25
			c-0.09-0.05-0.2-0.08-0.3-0.08c-0.05,0-0.11,0.01-0.16,0.02c-0.16,0.04-0.29,0.14-0.37,0.28l-0.99,1.73
			c-0.05,0.09-0.08,0.2-0.08,0.3v1.34v0.67C468.67,118.23,468.94,118.5,469.27,118.5z"/>
	</g>
</g>
</svg>
