<?xml version="1.0" encoding="utf-8"?>
<!-- Generator: Adobe Illustrator 24.1.2, SVG Export Plug-In . SVG Version: 6.00 Build 0)  -->
<svg version="1.1" id="Layer_1" xmlns="http://www.w3.org/2000/svg" xmlns:xlink="http://www.w3.org/1999/xlink" x="0px" y="0px"
	 viewBox="0 0 1920 325" style="enable-background:new 0 0 1920 325;" xml:space="preserve">
<style type="text/css">
	.st0{fill:url(#SVGID_1_);}
	.st1{fill:url(#SVGID_2_);}
	.st2{fill:#808285;}
	.st3{font-family:'VolkswagenSerial-BoldItalic';}
	.st4{font-size:169.3334px;}
</style>
<rect x="-262" y="815" width="2939" height="1175"/>
<g>
	<g>
		
			<linearGradient id="SVGID_1_" gradientUnits="userSpaceOnUse" x1="1561.6135" y1="74.7543" x2="1561.6138" y2="74.7543" gradientTransform="matrix(1 0 0 1 44.6304 87.7467)">
			<stop  offset="0" style="stop-color:#A32CDF"/>
			<stop  offset="0.1986" style="stop-color:#8B36DD"/>
			<stop  offset="0.6153" style="stop-color:#4E50D7"/>
			<stop  offset="1" style="stop-color:#106AD2"/>
		</linearGradient>
		<polygon class="st0" points="1606.24,162.5 1606.24,162.5 1606.24,162.5 		"/>
		
			<linearGradient id="SVGID_2_" gradientUnits="userSpaceOnUse" x1="1363.4828" y1="74.7533" x2="1834.3696" y2="74.7533" gradientTransform="matrix(1 0 0 1 44.6304 87.7467)">
			<stop  offset="0" style="stop-color:#A32CDF"/>
			<stop  offset="0.1986" style="stop-color:#8B36DD"/>
			<stop  offset="0.6153" style="stop-color:#4E50D7"/>
			<stop  offset="1" style="stop-color:#106AD2"/>
		</linearGradient>
		<path class="st1" d="M1845.91,82.61c-21.33-21.34-49.71-33.09-79.88-33.09c-30.18,0-58.55,11.75-79.89,33.09l-79.89,79.89
			l-42.38,42.78c-14.35,14.35-34.63,20.6-55.31,16.47c-7.16-1.43-14.03-4.24-20.13-8.25c-22.17-14.57-32.34-40.33-25.97-66.33
			c1.3-5.29,3.39-10.39,6.2-15.06c12.37-20.58,34.03-31.65,57.09-29.93c9.08,0.68,17.78,3.55,25.57,8.09l-22.22,22.25l0.04,0.04
			c-10.01,10.24-9.97,26.65,0.16,36.84c9.76,9.81,25.35,10.26,35.68,1.38l0.04,0.05l0.87-0.87c0.17-0.16,0.36-0.3,0.52-0.47
			l5.96-5.93c0.94-0.94,1.87-1.9,2.77-2.86l33.3-33.34c0.03-0.03,0.06-0.05,0.09-0.08c0.03-0.03,0.05-0.06,0.08-0.09l1.42-1.42
			l-0.04-0.1c8.75-10.31,8.27-25.77-1.46-35.5l-5.94-5.94c-4.29-4.29-8.88-8.22-13.71-11.8l-0.04-0.1l-0.04,0.04
			c-19.4-14.34-42.78-22.71-67.11-22.83c-31.46-0.16-61,12.45-82.71,35.38c-18.78,19.84-29.81,46.13-30.79,73.44
			c-1.13,31.72,10.7,61.73,33.02,84.04c21.33,21.34,49.71,33.09,79.88,33.09c30.18,0,58.55-11.75,79.89-33.09l79.89-79.89
			l42.38-42.78c14.35-14.35,34.63-20.6,55.31-16.47c7.16,1.43,14.03,4.24,20.13,8.25c22.17,14.57,32.34,40.33,25.97,66.33
			c-1.3,5.29-3.39,10.39-6.2,15.06c-12.37,20.58-34.03,31.65-57.09,29.93c-9.38-0.7-18.34-3.74-26.32-8.53l12.65-15.5
			c1.13-1.39,1.61-3.01,1.42-4.85c-0.19-1.85-0.98-3.34-2.37-4.47c-1.39-1.13-3.01-1.6-4.85-1.42l-65.26,6.62
			c-1.85,0.19-3.34,0.98-4.47,2.37c-1.13,1.39-1.61,3.01-1.42,4.85l6.62,65.26c0.19,1.85,0.98,3.34,2.37,4.47
			c1.39,1.13,3.01,1.6,4.85,1.42c1.84-0.19,3.33-0.97,4.47-2.37l12.69-15.56c18.7,12.84,40.77,20.26,63.68,20.37
			c31.46,0.16,61-12.45,82.71-35.38c18.78-19.84,29.81-46.13,30.79-73.44C1880.06,134.93,1868.22,104.93,1845.91,82.61z"/>
	</g>
	<g>
		<text transform="matrix(1 0 0 1 37.249 215.9668)" class="st2 st3 st4">Semántica Digital</text>
	</g>
</g>
</svg>
