<?xml version="1.0" encoding="utf-8"?>
<!-- Generator: Adobe Illustrator 24.1.2, SVG Export Plug-In . SVG Version: 6.00 Build 0)  -->
<svg version="1.1" id="Layer_1" xmlns="http://www.w3.org/2000/svg" xmlns:xlink="http://www.w3.org/1999/xlink" x="0px" y="0px"
	 viewBox="0 0 1920 325" style="enable-background:new 0 0 1920 325;" xml:space="preserve">
<style type="text/css">
	.st0{fill:url(#SVGID_1_);}
	.st1{fill:url(#SVGID_2_);}
	.st2{enable-background:new    ;}
	.st3{fill:#808285;}
</style>
<g>
	<g>
		
			<linearGradient id="SVGID_1_" gradientUnits="userSpaceOnUse" x1="1561.6096" y1="251.2467" x2="1561.6096" y2="251.2467" gradientTransform="matrix(1 0 0 -1 44.6304 413.7467)">
			<stop  offset="0" style="stop-color:#A32CDF"/>
			<stop  offset="0.1986" style="stop-color:#8B36DD"/>
			<stop  offset="0.6153" style="stop-color:#4E50D7"/>
			<stop  offset="1" style="stop-color:#106AD2"/>
		</linearGradient>
		<path class="st0" d="M1606.24,162.5L1606.24,162.5L1606.24,162.5z"/>
		
			<linearGradient id="SVGID_2_" gradientUnits="userSpaceOnUse" x1="1363.4856" y1="251.2409" x2="1834.3739" y2="251.2409" gradientTransform="matrix(1 0 0 -1 44.6304 413.7467)">
			<stop  offset="0" style="stop-color:#A32CDF"/>
			<stop  offset="0.1986" style="stop-color:#8B36DD"/>
			<stop  offset="0.6153" style="stop-color:#4E50D7"/>
			<stop  offset="1" style="stop-color:#106AD2"/>
		</linearGradient>
		<path class="st1" d="M1845.91,82.61c-21.33-21.34-49.71-33.09-79.88-33.09c-30.18,0-58.55,11.75-79.89,33.09l-79.89,79.89
			l-42.38,42.78c-14.35,14.35-34.63,20.6-55.31,16.47c-7.16-1.43-14.03-4.24-20.13-8.25c-22.17-14.57-32.34-40.33-25.97-66.33
			c1.3-5.29,3.39-10.39,6.2-15.06c12.37-20.58,34.03-31.65,57.09-29.93c9.08,0.68,17.78,3.55,25.57,8.09l-22.22,22.25l0.04,0.04
			c-10.01,10.24-9.97,26.65,0.16,36.84c9.76,9.81,25.35,10.26,35.68,1.38l0.04,0.05l0.87-0.87c0.17-0.16,0.36-0.3,0.52-0.47
			l5.96-5.93c0.94-0.94,1.87-1.9,2.77-2.86l33.3-33.34c0.03-0.03,0.06-0.05,0.09-0.08c0.03-0.03,0.05-0.06,0.08-0.09l1.42-1.42
			l-0.04-0.1c8.75-10.31,8.27-25.77-1.46-35.5l-5.94-5.94c-4.29-4.29-8.88-8.22-13.71-11.8l-0.04-0.1l-0.04,0.04
			c-19.4-14.34-42.78-22.71-67.11-22.83c-31.46-0.16-61,12.45-82.71,35.38c-18.78,19.84-29.81,46.13-30.79,73.44
			c-1.13,31.72,10.7,61.73,33.02,84.04c21.33,21.34,49.71,33.09,79.88,33.09c30.18,0,58.55-11.75,79.89-33.09l79.89-79.89
			l42.38-42.78c14.35-14.35,34.63-20.6,55.31-16.47c7.16,1.43,14.03,4.24,20.13,8.25c22.17,14.57,32.34,40.33,25.97,66.33
			c-1.3,5.29-3.39,10.39-6.2,15.06c-12.37,20.58-34.03,31.65-57.09,29.93c-9.38-0.7-18.34-3.74-26.32-8.53l12.65-15.5
			c1.13-1.39,1.61-3.01,1.42-4.85c-0.19-1.85-0.98-3.34-2.37-4.47s-3.01-1.6-4.85-1.42l-65.26,6.62c-1.85,0.19-3.34,0.98-4.47,2.37
			s-1.61,3.01-1.42,4.85l6.62,65.26c0.19,1.85,0.98,3.34,2.37,4.47s3.01,1.6,4.85,1.42c1.84-0.19,3.33-0.97,4.47-2.37l12.69-15.56
			c18.7,12.84,40.77,20.26,63.68,20.37c31.46,0.16,61-12.45,82.71-35.38c18.78-19.84,29.81-46.13,30.79-73.44
			C1880.06,134.93,1868.22,104.93,1845.91,82.61z"/>
	</g>
	<g>
		<g class="st2">
			<path class="st3" d="M54.52,188.71h0.85l4.74,1.19l4.57,2.03c6.77,3.05,12.7,4.57,17.78,4.57c5.93,0,11.01-1.86,15.41-5.59
				c4.4-3.72,6.6-8.3,6.6-13.55c0-4.57-1.86-7.96-5.59-10.16c-2.71-1.52-8.97-3.73-18.63-6.94c-8.13-2.37-14.39-5.25-18.63-8.47
				c-5.93-4.4-8.97-11.01-8.97-19.64c0-11.01,4.57-20.32,13.55-28.11c8.97-7.96,19.98-11.85,33.02-11.85
				c7.96,0,14.9,1.52,20.83,4.57c5.93,2.88,8.97,6.43,8.97,10.67c0,5.93-5.42,11.85-11.34,11.85c-2.03,0-4.91-0.85-8.47-2.37
				l-4.4-1.86c-3.05-1.35-6.27-2.03-9.82-2.03c-4.74,0-8.97,1.52-12.53,4.4c-3.56,2.71-5.42,5.93-5.42,9.82
				c0,2.37,1.02,4.57,3.05,6.77c2.03,2.2,6.77,4.4,14.05,6.77c10.5,3.39,17.95,6.43,22.35,9.14c7.96,5.08,12.02,12.87,12.02,23.2
				c0,12.36-4.74,23.03-14.39,31.66c-9.65,8.64-21.34,13.04-35.22,13.04c-9.65,0-18.12-1.69-25.23-5.08
				c-6.94-3.39-10.5-7.45-10.5-12.02C43.18,194.12,48.42,188.71,54.52,188.71z"/>
			<path class="st3" d="M159,177.7c0.68,4.57,1.69,8.47,3.05,11.51c2.88,6.27,8.8,9.48,17.78,9.48c6.27,0,12.53-1.86,18.79-5.59
				c4.91-2.88,8.47-4.4,10.67-4.4c5.42,0,8.13,2.54,8.13,7.79c0,3.05-1.69,6.1-4.91,8.97c-9.82,8.3-21.84,12.36-36.24,12.36
				c-12.36,0-22.18-3.56-29.46-10.84c-7.28-7.28-11.01-17.1-11.01-29.29c0-14.56,4.91-27.26,14.73-37.93
				c9.82-10.84,21.5-16.25,35.05-16.25c10.84,0,19.81,3.89,26.75,11.51c6.94,7.62,10.5,17.27,10.5,28.96
				c0,10.16-3.05,13.88-11.85,13.88L159,177.7z M160.18,163.31h41.15c0-14.73-6.27-22.18-17.78-22.18
				C172.37,141.12,164.58,148.58,160.18,163.31z"/>
			<path class="st3" d="M310.38,133.33l2.37-1.69c6.77-5.42,14.9-8.13,24.21-8.13c8.3,0,15.24,2.37,20.49,7.28
				c5.42,4.74,8.13,11.01,8.13,18.79l-0.51,5.42l-6.27,51.65c-0.34,2.88-1.69,5.59-4.06,7.96c-2.2,2.03-4.91,3.05-7.96,3.05
				c-4.91,0-9.65-4.91-9.65-11.01l5.93-48.94c0-4.57-1.35-8.3-4.23-11.18c-2.88-3.22-5.76-4.74-9.82-4.74
				c-8.97,0-16.93,6.6-18.29,15.92l-5.76,48.94c-0.34,2.88-1.69,5.59-4.06,7.96c-2.37,2.03-5.08,3.05-8.13,3.05
				c-2.54,0-4.74-1.02-6.77-3.22l-1.52-2.37c-0.85-1.52-1.19-3.39-1.19-5.42l6.1-48.94c0-8.81-6.6-16.26-14.73-16.26
				c-4.23,0-8.3,1.52-11.85,4.57c-3.22,3.05-5.08,6.94-5.76,11.51l-6.1,49.11c-0.68,5.93-5.93,10.84-11.85,10.84
				c-5.25,0-9.82-4.74-9.82-10.84l8.8-71.79c0.34-2.88,1.69-5.59,4.06-7.96c2.54-2.2,5.25-3.22,8.3-3.22c4.91,0,8.81,3.39,8.81,7.45
				l-0.51,2.71l3.73-3.56c5.76-4.57,12.7-6.77,20.83-6.77c4.23,0,7.79,0.51,11.85,2.37c5.08,2.03,9.14,5.59,12.19,10.84
				L310.38,133.33z"/>
			<path class="st3" d="M445.67,131.64c0.68-4.23,5.42-8.13,10.67-8.13c5.25,0,9.99,4.74,9.99,11.01l-8.97,72.47
				c-0.68,6.27-5.76,10.67-11.85,10.67c-2.54,0-4.74-0.85-6.77-2.54c-1.86-1.86-2.71-3.73-2.71-5.93l0.34-3.56
				c-4.74,4.74-8.8,7.96-12.36,9.65c-3.39,1.52-7.62,2.37-12.87,2.37c-10.33,0-18.96-3.73-25.57-11.18
				c-6.6-7.45-9.82-16.93-9.82-28.62c0-14.73,4.57-27.43,13.88-38.1c9.31-10.84,20.49-16.25,33.19-16.25
				c5.08,0,8.97,0.68,11.85,2.03c2.88,1.36,6.43,4.23,10.67,8.81L445.67,131.64z M406.56,150.61c-4.4,4.91-7.28,11.68-8.47,19.98
				l-0.17,5.25c0,13.55,6.94,22.52,17.95,22.52c7.45,0,13.55-3.22,18.12-9.65s6.94-14.73,6.94-24.89c0-12.7-6.94-20.83-17.78-20.83
				C417.06,142.99,411.47,145.53,406.56,150.61z M428.06,117.25l-2.2,0.68c-4.91,0-9.48-3.22-9.48-7.28c0-4.91,2.37-8.47,7.11-10.33
				l24.04-9.14l2.37-0.34c4.91,0,9.48,3.22,9.48,7.11c0,4.91-2.37,8.47-7.11,10.33L428.06,117.25z"/>
			<path class="st3" d="M503.92,134.35l4.4-4.06c5.93-4.57,13.04-6.94,21.5-6.94c8.3,0,15.41,2.54,21,7.62
				c5.76,5.08,8.64,11.51,8.64,19.13l-0.51,6.77l-6.1,50.12c-0.68,5.93-5.93,10.84-11.85,10.84c-5.42,0-9.99-4.74-9.99-10.84
				l5.93-47.24c0-9.65-7.28-17.95-15.58-17.95c-9.99,0-18.29,7.62-19.64,17.78l-5.59,47.24c-0.68,5.93-5.93,10.84-11.85,10.84
				c-5.25,0-9.82-4.74-9.82-10.84l8.8-72.13c0.68-5.93,6.27-11.01,12.19-11.01c4.91,0,8.97,3.56,8.97,7.79L503.92,134.35z"/>
			<path class="st3" d="M582.66,144.17h-5.42c-4.74,0-8.81-3.89-8.81-9.31c0-5.25,4.91-9.82,11.18-9.82h5.25l2.03-17.27
				c0.68-6.1,5.93-11.01,11.85-11.01c4.91,0,9.65,4.91,9.65,11.01l-2.2,17.27h7.96c4.91,0,8.64,4.4,8.64,9.65
				c0,2.54-1.02,4.74-3.22,6.77c-2.2,1.86-4.74,2.71-7.96,2.71h-7.79l-7.45,62.31c-0.34,2.88-1.69,5.59-4.06,7.96
				c-2.2,2.03-4.91,3.05-7.79,3.05c-4.74,0-9.48-4.91-9.48-10.84L582.66,144.17z"/>
			<path class="st3" d="M640.23,206.65c-0.34,2.88-1.69,5.59-4.06,7.96c-2.2,2.03-4.91,3.05-7.79,3.05c-5.42,0-9.99-4.91-9.99-10.84
				l8.97-72.3c0.68-6.1,5.93-10.84,12.19-10.84c5.25,0,9.48,4.91,9.48,11.01L640.23,206.65z M633.46,92.7
				c2.71-2.54,5.76-3.89,9.82-3.89c6.1,0,11.68,5.42,11.68,12.7s-6.26,13.04-13.72,13.04c-3.05,0-5.93-1.19-8.47-3.56
				c-2.2-2.54-3.39-4.91-3.39-8.8C629.4,98.62,630.75,95.41,633.46,92.7z"/>
			<path class="st3" d="M713.21,193.95c1.69-0.68,3.39-1.02,4.91-1.02c4.23,0,7.96,3.72,7.96,8.64c0,4.23-3.05,8.13-8.97,11.34
				c-5.93,3.22-12.87,4.91-21.17,4.91c-11.68,0-21-3.56-28.11-10.84c-6.94-7.28-10.5-17.1-10.5-29.29c0-14.9,4.91-27.6,14.73-38.27
				c9.82-10.67,21.84-15.92,35.9-15.92c7.45,0,13.55,1.35,18.46,3.89c5.08,2.37,7.62,5.42,7.62,9.14c0,5.59-4.91,11.51-10.5,11.51
				c-1.52,0-3.56-0.51-6.1-1.69c-4.57-1.86-8.3-2.88-11.51-2.88c-7.28,0-13.38,3.05-18.46,8.97c-5.08,5.93-7.62,13.38-7.62,22.35
				c0,13.55,7.28,22.69,19.3,22.69c2.88,0,6.26-0.68,9.99-2.03L713.21,193.95z"/>
			<path class="st3" d="M806.68,131.64c0.68-4.23,5.42-8.13,10.67-8.13c5.25,0,9.99,4.74,9.99,11.01l-8.97,72.47
				c-0.68,6.27-5.76,10.67-11.85,10.67c-2.54,0-4.74-0.85-6.77-2.54c-1.86-1.86-2.71-3.73-2.71-5.93l0.34-3.56
				c-4.74,4.74-8.8,7.96-12.36,9.65c-3.39,1.52-7.62,2.37-12.87,2.37c-10.33,0-18.96-3.73-25.57-11.18
				c-6.6-7.45-9.82-16.93-9.82-28.62c0-14.73,4.57-27.43,13.88-38.1c9.31-10.84,20.49-16.25,33.19-16.25
				c5.08,0,8.97,0.68,11.85,2.03c2.88,1.36,6.43,4.23,10.67,8.81L806.68,131.64z M767.57,150.61c-4.4,4.91-7.28,11.68-8.47,19.98
				l-0.17,5.25c0,13.55,6.94,22.52,17.95,22.52c7.45,0,13.55-3.22,18.12-9.65s6.94-14.73,6.94-24.89c0-12.7-6.94-20.83-17.78-20.83
				C778.07,142.99,772.48,145.53,767.57,150.61z"/>
			<path class="st3" d="M895.42,215.97c-7.11,0-10.67-3.22-10.67-9.82v-1.35l12.36-99.56c0.68-6.1,6.6-11.18,12.7-11.18h29.8
				c15.92,0,28.45,4.57,37.59,13.88c9.14,9.14,13.71,21.84,13.71,37.93c0,12.02-2.71,23.37-7.96,34.04
				c-11.68,24.04-30.82,36.07-57.4,36.07H895.42z M918.44,114.37l-9.99,81.28h18.79c11.35,0,20.83-4.57,28.45-13.72
				c7.62-9.14,11.51-20.49,11.51-34.2c0-20.83-11.68-33.36-30.82-33.36H918.44z"/>
			<path class="st3" d="M1018.86,206.65c-0.34,2.88-1.69,5.59-4.06,7.96c-2.2,2.03-4.91,3.05-7.79,3.05
				c-5.42,0-9.99-4.91-9.99-10.84l8.97-72.3c0.68-6.1,5.93-10.84,12.19-10.84c5.25,0,9.48,4.91,9.48,11.01L1018.86,206.65z
				 M1012.08,92.7c2.71-2.54,5.76-3.89,9.82-3.89c6.1,0,11.68,5.42,11.68,12.7s-6.26,13.04-13.71,13.04c-3.05,0-5.93-1.19-8.47-3.56
				c-2.2-2.54-3.39-4.91-3.39-8.8C1008.02,98.62,1009.38,95.41,1012.08,92.7z"/>
			<path class="st3" d="M1083.71,215.8c-3.56,1.52-7.96,2.37-13.21,2.37c-10.33,0-18.63-3.56-25.06-10.84
				c-6.26-7.28-9.48-16.76-9.48-28.45c0-15.07,4.57-27.94,13.88-38.94c9.31-11.01,20.32-16.42,33.19-16.42
				c5.08,0,8.97,0.85,11.85,2.37c2.88,1.19,6.27,4.23,10.5,9.14l0.34-3.22c0-4.23,5.25-7.96,10.5-7.96c5.25,0,9.82,4.91,9.82,11.01
				l-8.97,72.81c-1.69,14.05-6.43,24.89-14.22,32.68c-9.31,8.97-21.5,13.55-36.58,13.55c-9.31,0-17.44-1.69-24.72-5.25
				c-7.11-3.39-10.67-7.45-10.67-12.02c0-1.86,0.68-3.89,2.03-5.76c2.37-3.22,5.42-4.91,8.97-4.91c2.03,0,2.71,0.17,4.74,1.35
				l4.74,2.71c5.93,3.22,11.85,4.91,17.95,4.91c8.64,0,15.58-3.05,20.49-9.14c3.05-3.89,5.08-10.33,6.27-19.64
				C1091.33,210.89,1087.27,214.1,1083.71,215.8z M1058.31,171.26l-0.17,4.74c0,13.71,6.94,22.35,18.29,22.35
				c15.07,0,24.55-13.88,24.55-34.88c0-12.19-7.11-19.98-17.95-19.98C1070.33,143.5,1060.34,154.84,1058.31,171.26z"/>
			<path class="st3" d="M1156.01,206.65c-0.34,2.88-1.69,5.59-4.06,7.96c-2.2,2.03-4.91,3.05-7.79,3.05
				c-5.42,0-9.99-4.91-9.99-10.84l8.97-72.3c0.68-6.1,5.93-10.84,12.19-10.84c5.25,0,9.48,4.91,9.48,11.01L1156.01,206.65z
				 M1149.24,92.7c2.71-2.54,5.76-3.89,9.82-3.89c6.1,0,11.68,5.42,11.68,12.7s-6.26,13.04-13.71,13.04c-3.05,0-5.93-1.19-8.47-3.56
				c-2.2-2.54-3.39-4.91-3.39-8.8C1145.18,98.62,1146.53,95.41,1149.24,92.7z"/>
			<path class="st3" d="M1185.99,144.17h-5.42c-4.74,0-8.8-3.89-8.8-9.31c0-5.25,4.91-9.82,11.18-9.82h5.25l2.03-17.27
				c0.68-6.1,5.93-11.01,11.85-11.01c4.91,0,9.65,4.91,9.65,11.01l-2.2,17.27h7.96c4.91,0,8.64,4.4,8.64,9.65
				c0,2.54-1.02,4.74-3.22,6.77c-2.2,1.86-4.74,2.71-7.96,2.71h-7.79l-7.45,62.31c-0.34,2.88-1.69,5.59-4.06,7.96
				c-2.2,2.03-4.91,3.05-7.79,3.05c-4.74,0-9.48-4.91-9.48-10.84L1185.99,144.17z"/>
			<path class="st3" d="M1291.82,131.64c0.68-4.23,5.42-8.13,10.67-8.13s9.99,4.74,9.99,11.01l-8.97,72.47
				c-0.68,6.27-5.76,10.67-11.85,10.67c-2.54,0-4.74-0.85-6.77-2.54c-1.86-1.86-2.71-3.73-2.71-5.93l0.34-3.56
				c-4.74,4.74-8.8,7.96-12.36,9.65c-3.39,1.52-7.62,2.37-12.87,2.37c-10.33,0-18.96-3.73-25.57-11.18s-9.82-16.93-9.82-28.62
				c0-14.73,4.57-27.43,13.88-38.1c9.31-10.84,20.49-16.25,33.19-16.25c5.08,0,8.97,0.68,11.85,2.03c2.88,1.36,6.43,4.23,10.67,8.81
				L1291.82,131.64z M1252.7,150.61c-4.4,4.91-7.28,11.68-8.47,19.98l-0.17,5.25c0,13.55,6.94,22.52,17.95,22.52
				c7.45,0,13.55-3.22,18.12-9.65c4.57-6.43,6.94-14.73,6.94-24.89c0-12.7-6.94-20.83-17.78-20.83
				C1263.2,142.99,1257.61,145.53,1252.7,150.61z"/>
			<path class="st3" d="M1342.28,206.48c-0.34,2.88-1.69,5.59-4.06,7.96c-2.37,2.2-4.91,3.22-7.79,3.22
				c-5.25,0-9.82-4.91-9.82-11.01l13.72-112.09c0.68-6.1,6.1-11.01,12.02-11.01c5.42,0,9.65,4.91,9.65,11.01L1342.28,206.48z"/>
		</g>
	</g>
</g>
</svg>
